<?xml version="1.0" standalone="no"?>
<!DOCTYPE svg PUBLIC "-//W3C//DTD SVG 20010904//EN"
 "http://www.w3.org/TR/2001/REC-SVG-20010904/DTD/svg10.dtd">
<svg version="1.0" xmlns="http://www.w3.org/2000/svg"
 width="200.000000pt" height="200.000000pt" viewBox="0 0 200.000000 200.000000"
 preserveAspectRatio="xMidYMid meet">
<g transform="translate(0.000000,200.000000) scale(0.100000,-0.100000)"
fill="#F2F2F2" stroke="none">
<path d="M0 1000 l0 -1000 1000 0 1000 0 0 1000 0 1000 -1000 0 -1000 0 0
-1000z m1214 778 c76 -23 136 -109 136 -194 -1 -44 -33 -105 -73 -141 -62 -54
-146 -65 -218 -28 -56 29 -109 114 -109 175 0 68 57 151 125 181 47 22 83 23
139 7z m271 -330 c-25 -218 -61 -386 -127 -588 -61 -187 -158 -365 -276 -507
-51 -61 -190 -188 -198 -180 -2 2 5 44 16 93 11 49 23 134 27 188 l6 99 -126
-67 c-109 -58 -435 -190 -445 -181 -2 2 16 21 40 42 61 53 199 187 268 258
111 115 170 207 170 268 0 55 -55 150 -137 237 l-75 80 108 0 c137 0 311 16
389 36 142 36 267 120 327 220 18 30 34 54 36 54 1 0 0 -24 -3 -52z"/>
</g>
</svg>
