<svg xmlns="http://www.w3.org/2000/svg" xmlns:xlink="http://www.w3.org/1999/xlink" viewBox="0 0 166.21 177.77"><defs><style>.cls-1{isolation:isolate;}.cls-2{fill:url(#linear-gradient);}.cls-142,.cls-3{fill:#fff;}.cls-3,.cls-72{opacity:0;}.cls-4{fill:#fbfbfd;opacity:0.02;}.cls-5{fill:#f7f8fb;opacity:0.04;}.cls-6{fill:#f2f4fa;opacity:0.06;}.cls-7{fill:#eef0f8;opacity:0.08;}.cls-8{fill:#eaecf6;opacity:0.1;}.cls-9{fill:#e6e9f4;opacity:0.12;}.cls-10{fill:#e1e5f2;opacity:0.14;}.cls-11{fill:#dde1f0;opacity:0.16;}.cls-12{fill:#d9deef;opacity:0.18;}.cls-13{fill:#d5daed;opacity:0.2;}.cls-14{fill:#d1d6eb;opacity:0.22;}.cls-15{fill:#ccd3e9;opacity:0.24;}.cls-16{fill:#c8cfe7;opacity:0.25;}.cls-17{fill:#c4cbe5;opacity:0.27;}.cls-18{fill:#c0c7e4;opacity:0.29;}.cls-19{fill:#bcc4e2;opacity:0.31;}.cls-20{fill:#b7c0e0;opacity:0.33;}.cls-21{fill:#b3bcde;opacity:0.35;}.cls-22{fill:#afb9dc;opacity:0.37;}.cls-23{fill:#abb5db;opacity:0.39;}.cls-24{fill:#a6b1d9;opacity:0.41;}.cls-25{fill:#a2add7;opacity:0.43;}.cls-26{fill:#9eaad5;opacity:0.45;}.cls-27{fill:#9aa6d3;opacity:0.47;}.cls-28{fill:#96a2d1;opacity:0.49;}.cls-29{fill:#919fd0;opacity:0.51;}.cls-30{fill:#8d9bce;opacity:0.53;}.cls-31{fill:#8997cc;opacity:0.55;}.cls-32{fill:#8594ca;opacity:0.57;}.cls-33{fill:#8190c8;opacity:0.59;}.cls-34{fill:#7c8cc6;opacity:0.61;}.cls-35{fill:#7888c5;opacity:0.63;}.cls-36{fill:#7485c3;opacity:0.65;}.cls-37{fill:#7081c1;opacity:0.67;}.cls-38{fill:#6b7dbf;opacity:0.69;}.cls-39{fill:#677abd;opacity:0.71;}.cls-40{fill:#6376bc;opacity:0.73;}.cls-41{fill:#5f72ba;opacity:0.75;}.cls-42{fill:#5b6eb8;opacity:0.76;}.cls-43{fill:#566bb6;opacity:0.78;}.cls-44{fill:#5267b4;opacity:0.8;}.cls-45{fill:#4e63b2;opacity:0.82;}.cls-46{fill:#4a60b1;opacity:0.84;}.cls-47{fill:#465caf;opacity:0.86;}.cls-48{fill:#4158ad;opacity:0.88;}.cls-49{fill:#3d55ab;opacity:0.9;}.cls-50{fill:#3951a9;opacity:0.92;}.cls-51{fill:#354da7;opacity:0.94;}.cls-52{fill:#3049a6;opacity:0.96;}.cls-53{fill:#2c46a4;opacity:0.98;}.cls-54{fill:#2842a2;}.cls-55{fill:#ffc107;}.cls-56{fill:#ffad33;}.cls-57{fill:#ffcd39;}.cls-58{fill:#ff9800;}.cls-121,.cls-126,.cls-154,.cls-59,.cls-64,.cls-67{mix-blend-mode:multiply;}.cls-59{fill:url(#radial-gradient);}.cls-60{fill:url(#linear-gradient-2);}.cls-61{fill:#f6f8fb;}.cls-62{fill:url(#linear-gradient-3);}.cls-100,.cls-101,.cls-102,.cls-103,.cls-104,.cls-105,.cls-106,.cls-107,.cls-108,.cls-109,.cls-110,.cls-111,.cls-112,.cls-139,.cls-63,.cls-72,.cls-73,.cls-74,.cls-75,.cls-76,.cls-77,.cls-78,.cls-79,.cls-80,.cls-81,.cls-82,.cls-83,.cls-84,.cls-85,.cls-86,.cls-87,.cls-88,.cls-89,.cls-90,.cls-91,.cls-92,.cls-93,.cls-94,.cls-95,.cls-96,.cls-97,.cls-98,.cls-99{fill:#3c5185;}.cls-64{fill:url(#radial-gradient-2);}.cls-65{fill:url(#linear-gradient-4);}.cls-66{fill:url(#linear-gradient-5);}.cls-67{fill:url(#radial-gradient-3);}.cls-68{fill:url(#linear-gradient-6);}.cls-69{fill:#fafbfd;}.cls-70{fill:url(#linear-gradient-7);}.cls-139,.cls-143,.cls-71{opacity:0.3;}.cls-73{opacity:0.02;}.cls-74{opacity:0.05;}.cls-75{opacity:0.07;}.cls-76{opacity:0.1;}.cls-77{opacity:0.12;}.cls-78{opacity:0.15;}.cls-79{opacity:0.17;}.cls-80{opacity:0.2;}.cls-81{opacity:0.22;}.cls-82{opacity:0.24;}.cls-83{opacity:0.27;}.cls-84{opacity:0.29;}.cls-85{opacity:0.32;}.cls-86{opacity:0.34;}.cls-87{opacity:0.37;}.cls-88{opacity:0.39;}.cls-89{opacity:0.41;}.cls-90{opacity:0.44;}.cls-91{opacity:0.46;}.cls-92{opacity:0.49;}.cls-93{opacity:0.51;}.cls-94{opacity:0.54;}.cls-95{opacity:0.56;}.cls-96{opacity:0.59;}.cls-97{opacity:0.61;}.cls-98{opacity:0.63;}.cls-99{opacity:0.66;}.cls-100{opacity:0.68;}.cls-101{opacity:0.71;}.cls-102{opacity:0.73;}.cls-103{opacity:0.76;}.cls-104{opacity:0.78;}.cls-105{opacity:0.8;}.cls-106{opacity:0.83;}.cls-107{opacity:0.85;}.cls-108{opacity:0.88;}.cls-109{opacity:0.9;}.cls-110{opacity:0.93;}.cls-111{opacity:0.95;}.cls-112{opacity:0.98;}.cls-113{fill:url(#linear-gradient-8);}.cls-114{fill:url(#linear-gradient-9);}.cls-115{fill:url(#linear-gradient-10);}.cls-116{fill:#63749d;}.cls-117{fill:#4f6291;}.cls-118{fill:#f2f6fc;}.cls-119{fill:#d8e5f5;}.cls-120{fill:#e8eff9;}.cls-121,.cls-126{opacity:0.44;}.cls-121{fill:url(#radial-gradient-4);}.cls-122{fill:url(#linear-gradient-11);}.cls-123{fill:#e5e9f4;}.cls-124{fill:#a5cbef;}.cls-125{fill:url(#linear-gradient-12);}.cls-126{fill:url(#radial-gradient-5);}.cls-127{fill:url(#linear-gradient-13);}.cls-128{fill:url(#linear-gradient-14);}.cls-129{fill:#ffe188;}.cls-130{fill:url(#linear-gradient-15);}.cls-131{fill:url(#linear-gradient-16);}.cls-132{fill:url(#linear-gradient-17);}.cls-133{fill:#ffda6a;}.cls-134{fill:url(#linear-gradient-18);}.cls-135{fill:url(#linear-gradient-19);}.cls-136{fill:url(#linear-gradient-20);}.cls-137{fill:url(#linear-gradient-21);}.cls-138{fill:url(#linear-gradient-22);}.cls-140{fill:url(#linear-gradient-23);}.cls-141{fill:#f2b1b5;}.cls-143,.cls-151{fill:#48486a;}.cls-144{fill:url(#linear-gradient-24);}.cls-145{fill:#4a65a3;}.cls-146{fill:url(#linear-gradient-25);}.cls-147{fill:url(#linear-gradient-26);}.cls-148{fill:#231f20;}.cls-149,.cls-150{fill:#ef9ea3;}.cls-149{opacity:0.2;}.cls-152{fill:url(#linear-gradient-27);}.cls-153{fill:url(#linear-gradient-28);}.cls-154{opacity:0.6;fill:url(#radial-gradient-6);}.cls-155{fill:url(#linear-gradient-29);}.cls-156{fill:url(#linear-gradient-30);}.cls-157{fill:url(#linear-gradient-31);}.cls-158{fill:url(#linear-gradient-32);}.cls-159{fill:url(#linear-gradient-33);}.cls-160{fill:url(#linear-gradient-34);}</style><linearGradient id="linear-gradient" x1="105.13" y1="178.28" x2="55.97" y2="17.98" gradientUnits="userSpaceOnUse"><stop offset="0.11" stop-color="#fff"/><stop offset="1" stop-color="#e1ebf7"/></linearGradient><radialGradient id="radial-gradient" cx="99.58" cy="7975.72" r="13.76" gradientTransform="translate(0 -3958.38) scale(1 0.52)" gradientUnits="userSpaceOnUse"><stop offset="0.09" stop-color="#3c5185"/><stop offset="0.16" stop-color="#506291"/><stop offset="0.38" stop-color="#8d9ab8"/><stop offset="0.58" stop-color="#bec5d7"/><stop offset="0.76" stop-color="#e2e5ed"/><stop offset="0.91" stop-color="#f7f8fa"/><stop offset="1" stop-color="#fff"/></radialGradient><linearGradient id="linear-gradient-2" x1="89.66" y1="166.25" x2="109.15" y2="166.25" gradientUnits="userSpaceOnUse"><stop offset="0" stop-color="#d3daed"/><stop offset="1" stop-color="#a5cbef"/></linearGradient><linearGradient id="linear-gradient-3" x1="91.02" y1="163.65" x2="105.28" y2="163.65" gradientUnits="userSpaceOnUse"><stop offset="0.15" stop-color="#ff9800"/><stop offset="1" stop-color="#ffc107"/></linearGradient><radialGradient id="radial-gradient-2" cx="58.91" cy="7930.18" r="13.76" xlink:href="#radial-gradient"/><linearGradient id="linear-gradient-4" x1="48.99" y1="142.7" x2="68.48" y2="142.7" xlink:href="#linear-gradient-2"/><linearGradient id="linear-gradient-5" x1="50.35" y1="139.4" x2="58.73" y2="139.4" gradientUnits="userSpaceOnUse"><stop offset="0" stop-color="#7ea7df"/><stop offset="1" stop-color="#a5cbef"/></linearGradient><radialGradient id="radial-gradient-3" cx="79.25" cy="7952.95" r="13.76" xlink:href="#radial-gradient"/><linearGradient id="linear-gradient-6" x1="69.32" y1="154.47" x2="88.81" y2="154.47" xlink:href="#linear-gradient-2"/><linearGradient id="linear-gradient-7" x1="70.69" y1="151.17" x2="84.95" y2="151.17" gradientUnits="userSpaceOnUse"><stop offset="0" stop-color="#5d7dbe"/><stop offset="1" stop-color="#3c5185"/></linearGradient><linearGradient id="linear-gradient-8" x1="35.4" y1="39.35" x2="84.29" y2="39.35" gradientTransform="matrix(-1, 0, 0, 1, 120.18, 0)" gradientUnits="userSpaceOnUse"><stop offset="0" stop-color="#7ea7df"/><stop offset="1" stop-color="#4a65a3"/></linearGradient><linearGradient id="linear-gradient-9" x1="35.4" y1="79.46" x2="60.15" y2="79.46" xlink:href="#linear-gradient-8"/><linearGradient id="linear-gradient-10" x1="60.15" y1="79.46" x2="84.29" y2="79.46" xlink:href="#linear-gradient-8"/><radialGradient id="radial-gradient-4" cx="91.9" cy="7796.56" r="13.03" gradientTransform="translate(0 -3958.38) scale(1 0.52)" gradientUnits="userSpaceOnUse"><stop offset="0.09" stop-color="#48486a"/><stop offset="0.12" stop-color="#505070"/><stop offset="0.35" stop-color="#8d8da3"/><stop offset="0.56" stop-color="#bebeca"/><stop offset="0.75" stop-color="#e2e2e7"/><stop offset="0.9" stop-color="#f7f7f9"/><stop offset="1" stop-color="#fff"/></radialGradient><linearGradient id="linear-gradient-11" x1="89.43" y1="35.22" x2="91.6" y2="35.22" gradientUnits="userSpaceOnUse"><stop offset="0" stop-color="#ffc107"/><stop offset="0.92" stop-color="#ff9800"/></linearGradient><linearGradient id="linear-gradient-12" x1="91.88" y1="34.83" x2="95.22" y2="34.83" xlink:href="#linear-gradient-11"/><radialGradient id="radial-gradient-5" cx="59.96" cy="7731.48" r="15.72" xlink:href="#radial-gradient-4"/><linearGradient id="linear-gradient-13" x1="50.83" y1="31.78" x2="68.6" y2="31.78" gradientUnits="userSpaceOnUse"><stop offset="0" stop-color="#3c5185"/><stop offset="0.27" stop-color="#476098"/><stop offset="0.73" stop-color="#5775b4"/><stop offset="1" stop-color="#5d7dbe"/></linearGradient><linearGradient id="linear-gradient-14" x1="56.29" y1="27.55" x2="63.14" y2="27.55" xlink:href="#linear-gradient-3"/><linearGradient id="linear-gradient-15" x1="56.19" y1="27.31" x2="63.24" y2="27.31" gradientUnits="userSpaceOnUse"><stop offset="0" stop-color="#ffc107"/><stop offset="0.85" stop-color="#ff9800"/></linearGradient><linearGradient id="linear-gradient-16" x1="47.37" y1="2.24" x2="56.47" y2="2.24" xlink:href="#linear-gradient-3"/><linearGradient id="linear-gradient-17" x1="46.34" y1="6.98" x2="52.28" y2="6.98" xlink:href="#linear-gradient-3"/><linearGradient id="linear-gradient-18" x1="48.5" y1="13.03" x2="71.45" y2="13.03" gradientUnits="userSpaceOnUse"><stop offset="0" stop-color="#ff9800"/><stop offset="0.71" stop-color="#ffc107"/></linearGradient><linearGradient id="linear-gradient-19" x1="61.87" y1="18.83" x2="59.25" y2="1.22" xlink:href="#linear-gradient-3"/><linearGradient id="linear-gradient-20" x1="67.78" y1="15.64" x2="73.79" y2="15.64" xlink:href="#linear-gradient-3"/><linearGradient id="linear-gradient-21" x1="63.79" y1="21.72" x2="70" y2="21.72" xlink:href="#linear-gradient-3"/><linearGradient id="linear-gradient-22" x1="252.8" y1="85.63" x2="256.73" y2="85.63" gradientTransform="translate(-218.52)" gradientUnits="userSpaceOnUse"><stop offset="0" stop-color="#a8d9fb"/><stop offset="1" stop-color="#fff"/></linearGradient><linearGradient id="linear-gradient-23" x1="252.94" y1="79.8" x2="264.37" y2="79.8" xlink:href="#linear-gradient-22"/><linearGradient id="linear-gradient-24" x1="253.81" y1="53.26" x2="262.15" y2="53.26" gradientTransform="translate(-218.52)" xlink:href="#linear-gradient-3"/><linearGradient id="linear-gradient-25" x1="86.37" y1="122.46" x2="90.47" y2="122.46" gradientTransform="matrix(-1, 0, 0, 1, 94.94, 0)" xlink:href="#linear-gradient-8"/><linearGradient id="linear-gradient-26" x1="82.36" y1="120.74" x2="90.65" y2="120.74" gradientTransform="matrix(-1, 0, 0, 1, 94.94, 0)" gradientUnits="userSpaceOnUse"><stop offset="0" stop-color="#4a65a3"/><stop offset="0.24" stop-color="#4d69a7"/><stop offset="0.49" stop-color="#5776b3"/><stop offset="0.75" stop-color="#688bc6"/><stop offset="1" stop-color="#7ea7df"/></linearGradient><linearGradient id="linear-gradient-27" x1="69.02" y1="145.33" x2="78.55" y2="145.33" gradientTransform="matrix(-1, 0, 0, 1, 112.68, 0)" gradientUnits="userSpaceOnUse"><stop offset="0" stop-color="#e3edf7"/><stop offset="0.17" stop-color="#dde9f6"/><stop offset="0.39" stop-color="#cddef2"/><stop offset="0.64" stop-color="#b2cbeb"/><stop offset="0.9" stop-color="#8db2e3"/><stop offset="1" stop-color="#7ea7df"/></linearGradient><linearGradient id="linear-gradient-28" x1="72.96" y1="130.89" x2="80.03" y2="130.89" gradientTransform="matrix(-1, 0, 0, 1, 112.68, 0)" xlink:href="#linear-gradient-3"/><radialGradient id="radial-gradient-6" cx="123.07" cy="7762.74" r="13.36" gradientTransform="translate(0 -5235.72) scale(1 0.69)" gradientUnits="userSpaceOnUse"><stop offset="0" stop-color="#3c5185"/><stop offset="0.18" stop-color="#6f7ea5"/><stop offset="0.38" stop-color="#a2acc5"/><stop offset="0.57" stop-color="#cad0de"/><stop offset="0.74" stop-color="#e7eaf0"/><stop offset="0.89" stop-color="#f9f9fb"/><stop offset="1" stop-color="#fff"/></radialGradient><linearGradient id="linear-gradient-29" x1="111.24" y1="98.21" x2="135.28" y2="98.21" gradientUnits="userSpaceOnUse"><stop offset="0" stop-color="#4a65a3"/><stop offset="0.44" stop-color="#5471b1"/><stop offset="1" stop-color="#5d7dbe"/></linearGradient><linearGradient id="linear-gradient-30" x1="44.79" y1="29.62" x2="48.92" y2="29.62" xlink:href="#linear-gradient-3"/><linearGradient id="linear-gradient-31" x1="33.15" y1="21.1" x2="39.22" y2="21.1" xlink:href="#linear-gradient-3"/><linearGradient id="linear-gradient-32" x1="36.09" y1="8.76" x2="44.21" y2="8.76" xlink:href="#linear-gradient-3"/><linearGradient id="linear-gradient-33" x1="73.08" y1="29.12" x2="77.06" y2="29.12" xlink:href="#linear-gradient-3"/><linearGradient id="linear-gradient-34" x1="77.79" y1="20.69" x2="86.34" y2="20.69" xlink:href="#linear-gradient-3"/></defs><title>mission122</title><g class="cls-1"><g id="Layer_2" data-name="Layer 2"><g id="Mission"><path class="cls-2" d="M166.21,105.42c0,42.44-41.91,72.35-84.36,72.35S0,147.86,0,105.42,25.41,17.07,67.85,17.07,166.21,63,166.21,105.42Z"/><path class="cls-3" d="M136.58,66.41c-5.59-3.23-14.73-3.23-20.31,0s-5.59,8.5,0,11.72,14.72,3.23,20.31,0S142.17,69.63,136.58,66.41Z"/><path class="cls-4" d="M136.42,66.5c-5.5-3.17-14.49-3.17-20,0s-5.5,8.37,0,11.54,14.49,3.18,20,0S141.92,69.67,136.42,66.5Z"/><path class="cls-5" d="M136.26,66.59c-5.41-3.12-14.26-3.12-19.67,0s-5.41,8.24,0,11.36,14.26,3.12,19.67,0S141.67,69.72,136.26,66.59Z"/><ellipse class="cls-6" cx="126.42" cy="72.27" rx="13.68" ry="7.9"/><path class="cls-7" d="M135.94,66.78c-5.23-3-13.8-3-19,0s-5.23,8,0,11,13.8,3,19,0S141.17,69.8,135.94,66.78Z"/><ellipse class="cls-8" cx="126.42" cy="72.27" rx="13.22" ry="7.64"/><path class="cls-9" d="M135.61,67c-5.05-2.91-13.32-2.91-18.38,0s-5,7.7,0,10.62,13.33,2.92,18.38,0S140.67,69.88,135.61,67Z"/><path class="cls-10" d="M135.45,67.06c-5-2.87-13.09-2.87-18,0s-5,7.56,0,10.42,13.09,2.87,18,0S140.42,69.92,135.45,67.06Z"/><ellipse class="cls-11" cx="126.42" cy="72.27" rx="12.54" ry="7.24"/><path class="cls-12" d="M135.13,67.24c-4.79-2.76-12.62-2.76-17.41,0s-4.79,7.29,0,10.06,12.62,2.76,17.41,0S139.92,70,135.13,67.24Z"/><path class="cls-13" d="M135,67.34c-4.7-2.72-12.39-2.72-17.09,0s-4.7,7.15,0,9.86,12.39,2.72,17.09,0S139.67,70.05,135,67.34Z"/><path class="cls-14" d="M134.81,67.43c-4.61-2.66-12.16-2.66-16.77,0s-4.61,7,0,9.68,12.16,2.66,16.77,0S139.42,70.09,134.81,67.43Z"/><path class="cls-15" d="M134.65,67.52c-4.52-2.61-11.93-2.61-16.45,0s-4.52,6.89,0,9.5,11.93,2.61,16.45,0S139.17,70.13,134.65,67.52Z"/><path class="cls-16" d="M134.49,67.62c-4.44-2.56-11.69-2.56-16.13,0s-4.43,6.75,0,9.31,11.69,2.56,16.13,0S138.92,70.18,134.49,67.62Z"/><path class="cls-17" d="M134.33,67.71c-4.35-2.51-11.46-2.51-15.81,0s-4.34,6.61,0,9.12,11.46,2.51,15.81,0S138.67,70.22,134.33,67.71Z"/><path class="cls-18" d="M134.17,67.8a17.18,17.18,0,0,0-15.49,0c-4.25,2.46-4.25,6.48,0,8.94a17.18,17.18,0,0,0,15.49,0C138.42,74.28,138.42,70.26,134.17,67.8Z"/><path class="cls-19" d="M134,67.89a16.86,16.86,0,0,0-15.16,0c-4.16,2.41-4.16,6.35,0,8.76a16.86,16.86,0,0,0,15.16,0C138.17,74.24,138.17,70.3,134,67.89Z"/><ellipse class="cls-20" cx="126.42" cy="72.27" rx="10.49" ry="6.06"/><path class="cls-21" d="M133.68,68.08a16.12,16.12,0,0,0-14.51,0c-4,2.31-4,6.08,0,8.38a16.06,16.06,0,0,0,14.51,0C137.67,74.16,137.67,70.39,133.68,68.08Z"/><path class="cls-22" d="M133.52,68.17a15.76,15.76,0,0,0-14.19,0c-3.91,2.26-3.91,5.94,0,8.2a15.76,15.76,0,0,0,14.19,0C137.42,74.11,137.42,70.43,133.52,68.17Z"/><ellipse class="cls-23" cx="126.42" cy="72.27" rx="9.81" ry="5.66"/><path class="cls-24" d="M133.2,68.36a15,15,0,0,0-13.55,0c-3.73,2.15-3.73,5.67,0,7.82a15,15,0,0,0,13.55,0C136.93,74,136.93,70.51,133.2,68.36Z"/><path class="cls-25" d="M133,68.45a14.68,14.68,0,0,0-13.23,0c-3.64,2.1-3.64,5.54,0,7.64a14.68,14.68,0,0,0,13.23,0C136.68,74,136.68,70.55,133,68.45Z"/><ellipse class="cls-26" cx="126.42" cy="72.27" rx="9.13" ry="5.27"/><path class="cls-27" d="M132.72,68.64a14,14,0,0,0-12.59,0c-3.46,2-3.46,5.27,0,7.26a14,14,0,0,0,12.59,0C136.18,73.91,136.18,70.64,132.72,68.64Z"/><path class="cls-28" d="M132.56,68.73a13.6,13.6,0,0,0-12.27,0c-3.37,2-3.37,5.13,0,7.08a13.6,13.6,0,0,0,12.27,0C135.93,73.86,135.93,70.68,132.56,68.73Z"/><path class="cls-29" d="M132.39,68.82a13.28,13.28,0,0,0-11.94,0c-3.28,1.9-3.28,5,0,6.9a13.28,13.28,0,0,0,11.94,0C135.68,73.82,135.68,70.72,132.39,68.82Z"/><path class="cls-30" d="M132.23,68.92a12.84,12.84,0,0,0-11.61,0c-3.2,1.84-3.2,4.86,0,6.7a12.84,12.84,0,0,0,11.61,0C135.43,73.78,135.43,70.76,132.23,68.92Z"/><path class="cls-31" d="M132.07,69a12.54,12.54,0,0,0-11.29,0c-3.11,1.79-3.11,4.73,0,6.52a12.48,12.48,0,0,0,11.29,0C135.18,73.74,135.18,70.8,132.07,69Z"/><path class="cls-32" d="M131.91,69.1a12.18,12.18,0,0,0-11,0c-3,1.75-3,4.6,0,6.34a12.18,12.18,0,0,0,11,0C134.93,73.7,134.93,70.85,131.91,69.1Z"/><path class="cls-33" d="M131.75,69.2a11.76,11.76,0,0,0-10.65,0c-2.93,1.69-2.93,4.45,0,6.15a11.82,11.82,0,0,0,10.65,0C134.68,73.65,134.68,70.89,131.75,69.2Z"/><path class="cls-34" d="M131.59,69.29a11.46,11.46,0,0,0-10.33,0c-2.84,1.64-2.84,4.32,0,6a11.46,11.46,0,0,0,10.33,0C134.43,73.61,134.43,70.93,131.59,69.29Z"/><path class="cls-35" d="M131.43,69.38a11.1,11.1,0,0,0-10,0c-2.75,1.59-2.75,4.19,0,5.78a11.1,11.1,0,0,0,10,0C134.18,73.57,134.18,71,131.43,69.38Z"/><path class="cls-36" d="M131.27,69.47a10.8,10.8,0,0,0-9.69,0c-2.66,1.54-2.66,4.06,0,5.6a10.8,10.8,0,0,0,9.69,0C133.93,73.53,133.93,71,131.27,69.47Z"/><path class="cls-37" d="M131.11,69.57a10.38,10.38,0,0,0-9.37,0c-2.57,1.48-2.57,3.92,0,5.4a10.38,10.38,0,0,0,9.37,0C133.68,73.49,133.68,71.05,131.11,69.57Z"/><path class="cls-38" d="M131,69.66a10.08,10.08,0,0,0-9,0c-2.48,1.44-2.48,3.79,0,5.22a10,10,0,0,0,9,0C133.43,73.45,133.43,71.1,131,69.66Z"/><path class="cls-39" d="M130.78,69.75a9.7,9.7,0,0,0-8.72,0c-2.39,1.39-2.39,3.65,0,5a9.7,9.7,0,0,0,8.72,0C133.18,73.4,133.18,71.14,130.78,69.75Z"/><path class="cls-40" d="M130.62,69.85a9.26,9.26,0,0,0-8.39,0c-2.31,1.33-2.31,3.51,0,4.84a9.26,9.26,0,0,0,8.39,0C132.93,73.36,132.93,71.18,130.62,69.85Z"/><ellipse class="cls-41" cx="126.42" cy="72.27" rx="5.71" ry="3.3"/><path class="cls-42" d="M130.3,70a8.6,8.6,0,0,0-7.75,0c-2.13,1.23-2.13,3.25,0,4.48a8.6,8.6,0,0,0,7.75,0C132.43,73.28,132.43,71.26,130.3,70Z"/><ellipse class="cls-43" cx="126.42" cy="72.27" rx="5.25" ry="3.03"/><path class="cls-44" d="M130,70.22a7.88,7.88,0,0,0-7.11,0c-2,1.13-2,3,0,4.1a7.88,7.88,0,0,0,7.11,0C131.93,73.19,131.93,71.35,130,70.22Z"/><path class="cls-45" d="M129.82,70.31a7.52,7.52,0,0,0-6.79,0c-1.87,1.08-1.87,2.84,0,3.92a7.52,7.52,0,0,0,6.79,0C131.68,73.15,131.68,71.39,129.82,70.31Z"/><ellipse class="cls-46" cx="126.42" cy="72.27" rx="4.57" ry="2.64"/><path class="cls-47" d="M129.5,70.5a6.8,6.8,0,0,0-6.15,0c-1.69,1-1.69,2.57,0,3.54a6.8,6.8,0,0,0,6.15,0C131.19,73.07,131.19,71.47,129.5,70.5Z"/><path class="cls-48" d="M129.34,70.59a6.5,6.5,0,0,0-5.83,0c-1.6.92-1.6,2.44,0,3.36a6.44,6.44,0,0,0,5.83,0C130.94,73,130.94,71.51,129.34,70.59Z"/><path class="cls-49" d="M129.17,70.68a6.12,6.12,0,0,0-5.5,0c-1.51.88-1.51,2.31,0,3.18a6.12,6.12,0,0,0,5.5,0C130.69,73,130.69,71.56,129.17,70.68Z"/><path class="cls-50" d="M129,70.78a5.68,5.68,0,0,0-5.17,0c-1.43.82-1.43,2.16,0,3a5.74,5.74,0,0,0,5.17,0C130.44,72.94,130.44,71.6,129,70.78Z"/><path class="cls-51" d="M128.85,70.87a5.38,5.38,0,0,0-4.85,0c-1.34.77-1.34,2,0,2.8a5.38,5.38,0,0,0,4.85,0C130.19,72.9,130.19,71.64,128.85,70.87Z"/><path class="cls-52" d="M128.69,71a5,5,0,0,0-4.53,0,1.38,1.38,0,0,0,0,2.62,5,5,0,0,0,4.53,0A1.38,1.38,0,0,0,128.69,71Z"/><path class="cls-53" d="M128.53,71.06a4.66,4.66,0,0,0-4.21,0,1.28,1.28,0,0,0,0,2.43,4.66,4.66,0,0,0,4.21,0A1.28,1.28,0,0,0,128.53,71.06Z"/><path class="cls-54" d="M128.37,71.15a4.3,4.3,0,0,0-3.89,0,1.18,1.18,0,0,0,0,2.24,4.3,4.3,0,0,0,3.89,0A1.18,1.18,0,0,0,128.37,71.15Z"/><path class="cls-55" d="M136.4,69.57h-.93a6.47,6.47,0,0,0-1.69-1.37,14.11,14.11,0,0,0-12.72,0,6.36,6.36,0,0,0-1.7,1.37h-.91v2h0c-.17,1.45.69,2.93,2.6,4a14.11,14.11,0,0,0,12.72,0c1.9-1.09,2.76-2.57,2.59-4h0Z"/><path class="cls-56" d="M122.88,67.4a7.82,7.82,0,0,0-.89.34V76c.28.12.58.23.89.34Z"/><path class="cls-56" d="M120.21,68.77V75a7,7,0,0,0,.85.57l0,0V68.18l0,0A7,7,0,0,0,120.21,68.77Z"/><path class="cls-56" d="M124.65,66.94c-.3,0-.6.12-.89.19v9.48l.89.2Z"/><path class="cls-56" d="M134.41,68.61v6.53a6.9,6.9,0,0,0,.89-.78v-5A6.9,6.9,0,0,0,134.41,68.61Z"/><path class="cls-56" d="M136.18,73a3,3,0,0,0,.19-1.45h0v-2h-.22Z"/><path class="cls-56" d="M131.75,67.32c-.29-.09-.59-.17-.89-.24v9.59l.89-.25Z"/><path class="cls-56" d="M119.33,74.13V69.57h-.88v2h0A3.45,3.45,0,0,0,119.33,74.13Z"/><path class="cls-56" d="M133.52,68.07a8.09,8.09,0,0,0-.89-.42v8.44a8,8,0,0,0,.89-.41Z"/><path class="cls-56" d="M126.42,66.72l-.88.08V76.94a8.72,8.72,0,0,0,.88.08Z"/><path class="cls-56" d="M128.2,77V66.71a8.81,8.81,0,0,0-.89,0V77.06Z"/><path class="cls-56" d="M130,66.9l-.88-.13V77c.29,0,.59-.07.88-.12Z"/><ellipse class="cls-57" cx="127.42" cy="69.3" rx="9" ry="5.19"/><path class="cls-56" d="M133.14,65.83a12.69,12.69,0,0,0-11.45,0c-3.15,1.81-3.15,4.79,0,6.61a12.69,12.69,0,0,0,11.45,0C136.29,70.62,136.29,67.64,133.14,65.83Z"/><path class="cls-57" d="M132.44,66.21a11.31,11.31,0,0,0-10,0c-2.76,1.57-2.76,4.13,0,5.7a11.38,11.38,0,0,0,10,0C135.2,70.34,135.2,67.78,132.44,66.21Z"/><path class="cls-58" d="M128.09,71.06h-2.5c-.58,0-1-.27-1-.61v-.31H126v.06h2.06c.39,0,.71-.19.71-.42s-.21-.27-.46-.27H126.5c-1.08,0-2-.51-2-1.14v-.15c0-.71,1-1.28,2.21-1.28h2.5c.57,0,1,.27,1,.6v.36H128.8v-.1h-2.05c-.4,0-.72.19-.72.42v.15c0,.15.21.27.47.27h1.84c1.07,0,1.95.51,1.95,1.14S129.3,71.06,128.09,71.06Z"/><rect class="cls-58" x="126.67" y="66.52" width="1.48" height="5.08"/><path class="cls-55" d="M136.4,65.81h-.93a6.3,6.3,0,0,0-1.69-1.38,14.11,14.11,0,0,0-12.72,0,6.2,6.2,0,0,0-1.7,1.38h-.91v1.94h0c-.17,1.45.69,2.93,2.6,4a14.11,14.11,0,0,0,12.72,0c1.9-1.1,2.76-2.58,2.59-4h0Z"/><path class="cls-56" d="M122.88,63.63c-.31.1-.61.22-.89.34v8.27a7.82,7.82,0,0,0,.89.34Z"/><path class="cls-56" d="M120.21,65v6.21a7,7,0,0,0,.85.57l0,0V64.41l0,0A7,7,0,0,0,120.21,65Z"/><path class="cls-56" d="M124.65,63.17c-.3.06-.6.12-.89.2v9.47c.29.08.59.14.89.2Z"/><path class="cls-56" d="M134.41,64.85v6.52a6.9,6.9,0,0,0,.89-.78v-5A6.16,6.16,0,0,0,134.41,64.85Z"/><path class="cls-56" d="M136.18,69.2a3,3,0,0,0,.19-1.45h0V65.81h-.22Z"/><path class="cls-56" d="M131.75,63.56c-.29-.09-.59-.18-.89-.25V72.9c.3-.07.6-.16.89-.25Z"/><path class="cls-56" d="M119.33,70.37V65.81h-.88v1.94h0A3.47,3.47,0,0,0,119.33,70.37Z"/><path class="cls-56" d="M133.52,64.3c-.28-.15-.58-.29-.89-.42v8.45c.31-.13.61-.27.89-.42Z"/><path class="cls-56" d="M126.42,63c-.29,0-.59,0-.88.09V73.18l.88.08Z"/><path class="cls-56" d="M128.2,73.27V62.94l-.89,0V73.29C127.61,73.29,127.9,73.29,128.2,73.27Z"/><path class="cls-56" d="M130,63.13c-.29-.05-.59-.09-.88-.12V73.2c.29,0,.59-.07.88-.12Z"/><ellipse class="cls-57" cx="127.42" cy="65.53" rx="9" ry="5.19"/><path class="cls-56" d="M133.14,62.06a12.69,12.69,0,0,0-11.45,0c-3.15,1.82-3.15,4.79,0,6.61a12.69,12.69,0,0,0,11.45,0C136.29,66.85,136.29,63.88,133.14,62.06Z"/><path class="cls-57" d="M132.44,62.44a11.38,11.38,0,0,0-10,0c-2.76,1.57-2.76,4.13,0,5.7a11.31,11.31,0,0,0,10,0C135.2,66.57,135.2,64,132.44,62.44Z"/><path class="cls-58" d="M128.09,67.29h-2.5c-.58,0-1-.27-1-.6v-.31H126v.05h2.06c.39,0,.71-.19.71-.42s-.21-.27-.46-.27H126.5c-1.08,0-2-.51-2-1.13v-.16c0-.7,1-1.28,2.21-1.28h2.5c.57,0,1,.27,1,.61v.35H128.8V64h-2.05c-.4,0-.72.19-.72.42v.16c0,.15.21.27.47.27h1.84c1.07,0,1.95.51,1.95,1.13S129.3,67.29,128.09,67.29Z"/><rect class="cls-58" x="126.67" y="62.75" width="1.48" height="5.08"/><path class="cls-55" d="M136.4,62h-.93a6.47,6.47,0,0,0-1.69-1.37,14.11,14.11,0,0,0-12.72,0,6.36,6.36,0,0,0-1.7,1.37h-.91v2h0c-.17,1.44.69,2.92,2.6,4a14.11,14.11,0,0,0,12.72,0c1.9-1.1,2.76-2.58,2.59-4h0Z"/><path class="cls-56" d="M122.88,59.86c-.31.11-.61.22-.89.35v8.26c.28.13.58.24.89.35Z"/><path class="cls-56" d="M120.21,61.24v6.2a7,7,0,0,0,.85.57l0,0v-7.4l0,0A7,7,0,0,0,120.21,61.24Z"/><path class="cls-56" d="M124.65,59.41c-.3.05-.6.12-.89.19v9.48c.29.07.59.14.89.19Z"/><path class="cls-56" d="M134.41,61.08V67.6a6.16,6.16,0,0,0,.89-.77v-5A6.85,6.85,0,0,0,134.41,61.08Z"/><path class="cls-56" d="M136.18,65.44a3,3,0,0,0,.19-1.45h0V62h-.22Z"/><path class="cls-56" d="M131.75,59.79c-.29-.09-.59-.17-.89-.24v9.58c.3-.07.6-.15.89-.24Z"/><path class="cls-56" d="M119.33,66.6V62h-.88v2h0A3.45,3.45,0,0,0,119.33,66.6Z"/><path class="cls-56" d="M133.52,60.53a8,8,0,0,0-.89-.41v8.44a8,8,0,0,0,.89-.41Z"/><path class="cls-56" d="M126.42,59.19c-.29,0-.59,0-.88.08V69.41c.29,0,.59.06.88.08Z"/><path class="cls-56" d="M128.2,69.51V59.17c-.3,0-.59,0-.89,0V69.52C127.61,69.53,127.9,69.52,128.2,69.51Z"/><path class="cls-56" d="M130,59.36c-.29,0-.59-.09-.88-.12v10.2c.29,0,.59-.07.88-.12Z"/><ellipse class="cls-57" cx="127.42" cy="61.76" rx="9" ry="5.19"/><path class="cls-56" d="M133.14,58.29a12.69,12.69,0,0,0-11.45,0c-3.15,1.82-3.15,4.8,0,6.62a12.69,12.69,0,0,0,11.45,0C136.29,63.09,136.29,60.11,133.14,58.29Z"/><path class="cls-57" d="M132.44,58.68a11.31,11.31,0,0,0-10,0c-2.76,1.56-2.76,4.13,0,5.7a11.38,11.38,0,0,0,10,0C135.2,62.81,135.2,60.24,132.44,58.68Z"/><path class="cls-58" d="M128.09,63.53h-2.5c-.58,0-1-.27-1-.61v-.31H126v0h2.06c.39,0,.71-.18.71-.41s-.21-.27-.46-.27H126.5c-1.08,0-2-.51-2-1.14v-.15c0-.71,1-1.28,2.21-1.28h2.5c.57,0,1,.27,1,.6v.35H128.8v-.09h-2.05c-.4,0-.72.19-.72.42v.15c0,.15.21.27.47.27h1.84c1.07,0,1.95.51,1.95,1.14S129.3,63.53,128.09,63.53Z"/><rect class="cls-58" x="126.67" y="58.99" width="1.48" height="5.08"/><path class="cls-3" d="M151.05,81.36c-5.59-3.23-14.73-3.23-20.32,0s-5.58,8.5,0,11.73,14.73,3.22,20.32,0S156.63,84.58,151.05,81.36Z"/><path class="cls-4" d="M150.88,81.45c-5.49-3.17-14.49-3.17-20,0s-5.49,8.37,0,11.54,14.5,3.18,20,0S156.38,84.63,150.88,81.45Z"/><path class="cls-5" d="M150.72,81.54c-5.41-3.12-14.26-3.12-19.67,0s-5.4,8.24,0,11.36,14.26,3.12,19.67,0S156.13,84.67,150.72,81.54Z"/><ellipse class="cls-6" cx="140.89" cy="87.22" rx="13.68" ry="7.9"/><path class="cls-7" d="M150.4,81.73c-5.23-3-13.79-3-19,0s-5.24,8,0,11,13.79,3,19,0S155.63,84.75,150.4,81.73Z"/><path class="cls-8" d="M150.24,81.82c-5.14-3-13.56-3-18.7,0s-5.15,7.83,0,10.8,13.56,3,18.7,0S155.38,84.79,150.24,81.82Z"/><path class="cls-9" d="M150.08,81.92C145,79,136.75,79,131.7,81.92s-5.06,7.69,0,10.61,13.32,2.92,18.38,0S155.13,84.83,150.08,81.92Z"/><path class="cls-10" d="M149.92,82c-5-2.87-13.09-2.87-18.06,0s-5,7.56,0,10.43,13.09,2.86,18.06,0S154.88,84.88,149.92,82Z"/><path class="cls-11" d="M149.76,82.1c-4.88-2.81-12.86-2.81-17.74,0s-4.88,7.43,0,10.24,12.86,2.82,17.74,0S154.63,84.92,149.76,82.1Z"/><ellipse class="cls-12" cx="140.89" cy="87.22" rx="12.31" ry="7.11"/><ellipse class="cls-13" cx="140.89" cy="87.22" rx="12.09" ry="6.98"/><ellipse class="cls-14" cx="140.89" cy="87.22" rx="11.86" ry="6.85"/><ellipse class="cls-15" cx="140.89" cy="87.22" rx="11.63" ry="6.72"/><path class="cls-16" d="M149,82.57c-4.43-2.56-11.69-2.56-16.12,0s-4.44,6.75,0,9.31,11.69,2.56,16.12,0S153.39,85.13,149,82.57Z"/><path class="cls-17" d="M148.79,82.66c-4.35-2.51-11.46-2.51-15.8,0s-4.35,6.62,0,9.12,11.45,2.51,15.8,0S153.14,85.17,148.79,82.66Z"/><path class="cls-18" d="M148.63,82.75a17.16,17.16,0,0,0-15.48,0c-4.26,2.46-4.26,6.48,0,8.94a17.16,17.16,0,0,0,15.48,0C152.89,89.23,152.89,85.21,148.63,82.75Z"/><path class="cls-19" d="M148.47,82.85a16.8,16.8,0,0,0-15.16,0c-4.17,2.4-4.17,6.34,0,8.75a16.8,16.8,0,0,0,15.16,0C152.64,89.19,152.64,85.25,148.47,82.85Z"/><ellipse class="cls-20" cx="140.89" cy="87.22" rx="10.49" ry="6.06"/><ellipse class="cls-21" cx="140.89" cy="87.22" rx="10.26" ry="5.93"/><path class="cls-22" d="M148,83.12a15.78,15.78,0,0,0-14.2,0c-3.9,2.26-3.9,5.95,0,8.2a15.78,15.78,0,0,0,14.2,0C151.89,89.07,151.89,85.38,148,83.12Z"/><path class="cls-23" d="M147.82,83.22a15.4,15.4,0,0,0-13.87,0c-3.81,2.2-3.81,5.8,0,8a15.4,15.4,0,0,0,13.87,0C151.64,89,151.64,85.42,147.82,83.22Z"/><path class="cls-24" d="M147.66,83.31a15,15,0,0,0-13.55,0c-3.72,2.15-3.72,5.67,0,7.82a15,15,0,0,0,13.55,0C151.39,89,151.39,85.46,147.66,83.31Z"/><ellipse class="cls-25" cx="140.89" cy="87.22" rx="9.35" ry="5.4"/><path class="cls-26" d="M147.34,83.5a14.3,14.3,0,0,0-12.9,0c-3.55,2-3.55,5.4,0,7.45a14.3,14.3,0,0,0,12.9,0C150.89,88.9,150.89,85.55,147.34,83.5Z"/><path class="cls-27" d="M147.18,83.59a13.94,13.94,0,0,0-12.58,0c-3.46,2-3.46,5.27,0,7.27a14,14,0,0,0,12.58,0C150.64,88.86,150.64,85.59,147.18,83.59Z"/><ellipse class="cls-28" cx="140.89" cy="87.22" rx="8.67" ry="5.01"/><path class="cls-29" d="M146.86,83.78a13.22,13.22,0,0,0-11.94,0c-3.28,1.89-3.28,5,0,6.89a13.28,13.28,0,0,0,11.94,0C150.14,88.77,150.14,85.67,146.86,83.78Z"/><path class="cls-30" d="M146.7,83.87a12.86,12.86,0,0,0-11.62,0c-3.2,1.84-3.2,4.86,0,6.71a12.92,12.92,0,0,0,11.62,0C149.89,88.73,149.89,85.71,146.7,83.87Z"/><path class="cls-31" d="M146.54,84a12.56,12.56,0,0,0-11.3,0c-3.11,1.8-3.11,4.73,0,6.52a12.5,12.5,0,0,0,11.3,0C149.64,88.69,149.64,85.76,146.54,84Z"/><path class="cls-32" d="M146.38,84.05a12.2,12.2,0,0,0-11,0c-3,1.75-3,4.6,0,6.34a12.2,12.2,0,0,0,11,0C149.39,88.65,149.39,85.8,146.38,84.05Z"/><path class="cls-33" d="M146.21,84.15a11.82,11.82,0,0,0-10.65,0c-2.93,1.69-2.93,4.46,0,6.15a11.82,11.82,0,0,0,10.65,0C149.14,88.61,149.14,85.84,146.21,84.15Z"/><path class="cls-34" d="M146.05,84.24a11.46,11.46,0,0,0-10.33,0c-2.84,1.64-2.84,4.32,0,6a11.46,11.46,0,0,0,10.33,0C148.89,88.56,148.89,85.88,146.05,84.24Z"/><path class="cls-35" d="M145.89,84.33a11.1,11.1,0,0,0-10,0c-2.75,1.59-2.75,4.19,0,5.78a11.1,11.1,0,0,0,10,0C148.64,88.52,148.64,85.92,145.89,84.33Z"/><path class="cls-36" d="M145.73,84.43a10.72,10.72,0,0,0-9.68,0c-2.67,1.53-2.67,4,0,5.59a10.72,10.72,0,0,0,9.68,0C148.4,88.48,148.4,86,145.73,84.43Z"/><ellipse class="cls-37" cx="140.89" cy="87.22" rx="6.62" ry="3.82"/><path class="cls-38" d="M145.41,84.61a10.06,10.06,0,0,0-9,0c-2.49,1.44-2.49,3.79,0,5.22a10,10,0,0,0,9,0C147.9,88.4,147.9,86.05,145.41,84.61Z"/><path class="cls-39" d="M145.25,84.71a9.64,9.64,0,0,0-8.72,0c-2.4,1.38-2.4,3.65,0,5a9.7,9.7,0,0,0,8.72,0C147.65,88.36,147.65,86.09,145.25,84.71Z"/><path class="cls-40" d="M145.09,84.8a9.34,9.34,0,0,0-8.4,0c-2.31,1.33-2.31,3.51,0,4.85a9.34,9.34,0,0,0,8.4,0C147.4,88.31,147.4,86.13,145.09,84.8Z"/><path class="cls-41" d="M144.93,84.89a9,9,0,0,0-8.08,0c-2.22,1.28-2.22,3.38,0,4.66a8.92,8.92,0,0,0,8.08,0C147.15,88.27,147.15,86.17,144.93,84.89Z"/><ellipse class="cls-42" cx="140.89" cy="87.22" rx="5.48" ry="3.17"/><path class="cls-43" d="M144.6,85.08a8.24,8.24,0,0,0-7.43,0c-2,1.18-2,3.11,0,4.29a8.24,8.24,0,0,0,7.43,0C146.65,88.19,146.65,86.26,144.6,85.08Z"/><path class="cls-44" d="M144.44,85.17a7.88,7.88,0,0,0-7.11,0c-2,1.13-2,3,0,4.1a7.88,7.88,0,0,0,7.11,0C146.4,88.15,146.4,86.3,144.44,85.17Z"/><ellipse class="cls-45" cx="140.89" cy="87.22" rx="4.8" ry="2.77"/><path class="cls-46" d="M144.12,85.36a7.14,7.14,0,0,0-6.46,0c-1.78,1-1.78,2.7,0,3.73a7.14,7.14,0,0,0,6.46,0C145.9,88.06,145.9,86.38,144.12,85.36Z"/><path class="cls-47" d="M144,85.45a6.78,6.78,0,0,0-6.14,0c-1.69,1-1.69,2.57,0,3.55A6.84,6.84,0,0,0,144,89C145.65,88,145.65,86.42,144,85.45Z"/><path class="cls-48" d="M143.8,85.54a6.48,6.48,0,0,0-5.82,0c-1.6.93-1.6,2.44,0,3.36a6.42,6.42,0,0,0,5.82,0C145.4,88,145.4,86.47,143.8,85.54Z"/><path class="cls-49" d="M143.64,85.63a6.12,6.12,0,0,0-5.5,0c-1.51.88-1.51,2.31,0,3.18a6.12,6.12,0,0,0,5.5,0C145.15,87.94,145.15,86.51,143.64,85.63Z"/><path class="cls-50" d="M143.48,85.73a5.76,5.76,0,0,0-5.18,0c-1.42.82-1.42,2.16,0,3a5.76,5.76,0,0,0,5.18,0C144.9,87.89,144.9,86.55,143.48,85.73Z"/><ellipse class="cls-51" cx="140.89" cy="87.22" rx="3.43" ry="1.98"/><path class="cls-52" d="M143.16,85.91a5,5,0,0,0-4.54,0,1.39,1.39,0,0,0,0,2.62,5,5,0,0,0,4.54,0A1.39,1.39,0,0,0,143.16,85.91Z"/><path class="cls-53" d="M143,86a4.66,4.66,0,0,0-4.21,0,1.29,1.29,0,0,0,0,2.43,4.66,4.66,0,0,0,4.21,0A1.28,1.28,0,0,0,143,86Z"/><path class="cls-54" d="M142.83,86.1a4.3,4.3,0,0,0-3.89,0,1.19,1.19,0,0,0,0,2.25,4.36,4.36,0,0,0,3.89,0A1.19,1.19,0,0,0,142.83,86.1Z"/><path class="cls-55" d="M150.87,84.53h-.93a6.51,6.51,0,0,0-1.7-1.38,14.11,14.11,0,0,0-12.72,0,6.51,6.51,0,0,0-1.7,1.38h-.9v1.94h0c-.16,1.45.7,2.93,2.6,4a14.11,14.11,0,0,0,12.72,0c1.91-1.1,2.76-2.58,2.6-4h0Z"/><path class="cls-56" d="M137.34,82.35a8.61,8.61,0,0,0-.89.34V91c.29.12.58.24.89.34Z"/><path class="cls-56" d="M134.68,83.72v6.2a6.88,6.88,0,0,0,.84.58l0,0V83.13l0,0A6.84,6.84,0,0,0,134.68,83.72Z"/><path class="cls-56" d="M139.11,81.89a8.63,8.63,0,0,0-.88.2v9.47c.29.08.58.14.88.2Z"/><path class="cls-56" d="M148.87,83.56v6.53a5.77,5.77,0,0,0,.89-.78v-5A6.28,6.28,0,0,0,148.87,83.56Z"/><path class="cls-56" d="M150.65,87.92a3.29,3.29,0,0,0,.19-1.45h0V84.53h-.22Z"/><path class="cls-56" d="M146.21,82.28a8.31,8.31,0,0,0-.89-.25v9.59c.31-.07.6-.16.89-.25Z"/><path class="cls-56" d="M133.79,89.08V84.53h-.87v1.94h0A3.43,3.43,0,0,0,133.79,89.08Z"/><path class="cls-56" d="M148,83c-.29-.15-.58-.29-.89-.42v8.45c.31-.13.6-.27.89-.42Z"/><path class="cls-56" d="M140.89,81.67l-.89.08V91.89c.3,0,.59.07.89.09Z"/><path class="cls-56" d="M142.66,92V81.66c-.29,0-.59,0-.88,0V92Z"/><path class="cls-56" d="M144.44,81.85c-.29,0-.59-.09-.89-.12V91.92c.3,0,.6-.07.89-.12Z"/><path class="cls-57" d="M148.24,80.58a14.11,14.11,0,0,0-12.72,0c-3.5,2-3.5,5.32,0,7.34a14.11,14.11,0,0,0,12.72,0C151.74,85.9,151.74,82.6,148.24,80.58Z"/><path class="cls-56" d="M147.61,80.78a12.71,12.71,0,0,0-11.46,0c-3.15,1.82-3.15,4.79,0,6.61a12.71,12.71,0,0,0,11.46,0C150.76,85.57,150.76,82.6,147.61,80.78Z"/><path class="cls-57" d="M146.91,81.16a11.31,11.31,0,0,0-10,0c-2.77,1.57-2.77,4.13,0,5.7a11.31,11.31,0,0,0,10,0C149.67,85.29,149.67,82.73,146.91,81.16Z"/><path class="cls-58" d="M142.55,86h-2.5c-.57,0-1-.27-1-.61v-.31h1.48v.06h2.06c.4,0,.72-.19.72-.42s-.21-.27-.47-.27H141c-1.08,0-2-.51-2-1.14v-.15c0-.71,1-1.28,2.2-1.28h2.5c.57,0,1,.27,1,.6v.36h-1.48v-.1h-2.06c-.4,0-.72.19-.72.42v.15c0,.15.21.28.47.28h1.84c1.08,0,1.95.51,1.95,1.13S143.76,86,142.55,86Z"/><rect class="cls-58" x="141.14" y="81.47" width="1.48" height="5.08"/><path class="cls-59" d="M89.94,161.09c5.3-3.06,14-3.06,19.28,0s5.3,8.07,0,11.13-14,3.06-19.28,0S84.64,164.15,89.94,161.09Z"/><path class="cls-60" d="M109.15,163.65h-1.1a6.81,6.81,0,0,0-1.75-1.38,15.25,15.25,0,0,0-13.8,0,7,7,0,0,0-1.75,1.38H89.66v2.58h0c0,1.45.94,2.9,2.84,4a15.31,15.31,0,0,0,13.8,0c1.91-1.1,2.85-2.55,2.84-4h0Z"/><ellipse class="cls-61" cx="99.4" cy="163.65" rx="9.76" ry="5.63"/><path class="cls-62" d="M99.4,168.59a11.89,11.89,0,0,1-5.88-1.41c-1.61-.93-2.5-2.18-2.5-3.53s.89-2.6,2.5-3.53a13,13,0,0,1,11.76,0l-.23.41a12.5,12.5,0,0,0-11.3,0,3.28,3.28,0,0,0,0,6.24,11.46,11.46,0,0,0,5.65,1.35h0v.47Z"/><path class="cls-63" d="M97.49,161.35l1-.8,1.46.89-.51.43-3.36,1.58-.5-.3,3.26-1.55-.52-.31-.39.32Zm2.35,1.74a1.66,1.66,0,0,0,.4-.21.66.66,0,0,0,.19-.25.15.15,0,0,0-.07-.19c-.13-.08-.39,0-.78.11l0-.48a3.34,3.34,0,0,1,.82-.23.94.94,0,0,1,.6.13.43.43,0,0,1,.21.49,1.19,1.19,0,0,1-.48.68,2.2,2.2,0,0,1-.53.32,6,6,0,0,1-.85.28l-.94.24.8.49-.61.5-1.43-.87.5-.42,1.52-.39A5.74,5.74,0,0,0,99.84,163.09Zm4.09.79-4.51,1.62-.5-.31,4.51-1.62Zm-2.45,2.05a1.37,1.37,0,0,1-.55.28.66.66,0,0,1-.49,0,.3.3,0,0,1-.13-.34.93.93,0,0,1,.32-.43,1.37,1.37,0,0,1,.55-.28.66.66,0,0,1,.49,0,.27.27,0,0,1,.13.33A.9.9,0,0,1,101.48,165.93Zm-.67-.19s0,.08,0,.1a.21.21,0,0,0,.14,0,.52.52,0,0,0,.19-.11.35.35,0,0,0,.13-.15.09.09,0,0,0,0-.11.19.19,0,0,0-.15,0,.66.66,0,0,0-.2.11A.49.49,0,0,0,100.81,165.74Zm1.31-2a1.39,1.39,0,0,1-.55.29.66.66,0,0,1-.49-.05.26.26,0,0,1-.12-.33.8.8,0,0,1,.31-.43,1.41,1.41,0,0,1,.56-.28.59.59,0,0,1,.48,0,.27.27,0,0,1,.13.33A.82.82,0,0,1,102.12,163.76Zm-.67-.18s0,.08,0,.1a.19.19,0,0,0,.15,0,.7.7,0,0,0,.19-.1.51.51,0,0,0,.12-.16s0-.08,0-.1a.19.19,0,0,0-.15,0,.66.66,0,0,0-.2.11A.4.4,0,0,0,101.45,163.58Z"/><path class="cls-64" d="M49.27,137.54c5.31-3.06,14-3.06,19.28,0s5.3,8.07,0,11.13-14,3.06-19.28,0S44,140.6,49.27,137.54Z"/><path class="cls-65" d="M68.48,140.1H67.39a7.12,7.12,0,0,0-1.76-1.39,15.29,15.29,0,0,0-13.79,0,7.12,7.12,0,0,0-1.76,1.39H49v2.58h0c0,1.45.94,2.9,2.85,4a15.29,15.29,0,0,0,13.79,0c1.91-1.1,2.86-2.55,2.85-4h0Z"/><path class="cls-61" d="M51.84,136.12a15.23,15.23,0,0,1,13.79,0c3.8,2.19,3.8,5.77,0,8a15.29,15.29,0,0,1-13.79,0C48,141.89,48,138.31,51.84,136.12Z"/><path class="cls-66" d="M52.85,143.63c-1.61-.93-2.5-2.18-2.5-3.53a4.28,4.28,0,0,1,2.5-3.54,12,12,0,0,1,5.88-1.4v.47A11.53,11.53,0,0,0,53.09,137a3.29,3.29,0,0,0,0,6.25Z"/><path class="cls-63" d="M57.17,138.43a1.42,1.42,0,0,0,.39-.21.62.62,0,0,0,.19-.26.14.14,0,0,0-.07-.18q-.2-.12-.78.12l0-.49a3.34,3.34,0,0,1,.82-.23,1,1,0,0,1,.6.12.43.43,0,0,1,.21.49,1.18,1.18,0,0,1-.48.69,2.34,2.34,0,0,1-.53.32,6,6,0,0,1-.85.28l-.93.25.8.48-.61.51-1.44-.87L55,139l1.51-.39C56.77,138.56,57,138.49,57.17,138.43Zm3.4.35-.59.49-.81-.49-.5.43a.59.59,0,0,1,.24.09.46.46,0,0,1,.24.52,1.18,1.18,0,0,1-.5.72,2.18,2.18,0,0,1-1,.49,1.12,1.12,0,0,1-.83-.09.6.6,0,0,1-.24-.79l.74-.27,0,.12a1,1,0,0,0,0,.23.29.29,0,0,0,.14.21.44.44,0,0,0,.31,0,.84.84,0,0,0,.4-.2.5.5,0,0,0,.22-.32.24.24,0,0,0-.14-.24.91.91,0,0,0-.52-.08l.11-.37L59.34,138ZM63,140.25l-4.5,1.64-.5-.31L62.5,140Zm-2.44,2.06a1.37,1.37,0,0,1-.55.28.62.62,0,0,1-.49,0,.26.26,0,0,1-.12-.33.8.8,0,0,1,.31-.43,1.39,1.39,0,0,1,.55-.29.66.66,0,0,1,.49,0,.28.28,0,0,1,.13.33A.84.84,0,0,1,60.55,142.31Zm-.67-.19s0,.08,0,.1a.18.18,0,0,0,.15,0,.77.77,0,0,0,.19-.11.4.4,0,0,0,.12-.15.09.09,0,0,0,0-.11.19.19,0,0,0-.15,0,.71.71,0,0,0-.2.12A.47.47,0,0,0,59.88,142.12Zm1.31-2a1.43,1.43,0,0,1-.56.29.68.68,0,0,1-.48,0,.27.27,0,0,1-.13-.34.9.9,0,0,1,.31-.43,1.35,1.35,0,0,1,.56-.28.63.63,0,0,1,.48,0,.29.29,0,0,1,.13.34A.9.9,0,0,1,61.19,140.14Zm-.68-.18a.09.09,0,0,0,0,.1.19.19,0,0,0,.15,0,.54.54,0,0,0,.19-.11.4.4,0,0,0,.12-.15c0-.05,0-.08,0-.1a.19.19,0,0,0-.15,0,.52.52,0,0,0-.19.11A.35.35,0,0,0,60.51,140Z"/><ellipse class="cls-67" cx="79.25" cy="154.88" rx="13.63" ry="7.87"/><path class="cls-68" d="M88.81,151.87H87.72A7.22,7.22,0,0,0,86,150.49a15.31,15.31,0,0,0-13.8,0,7.28,7.28,0,0,0-1.76,1.38H69.32v2.58h0c0,1.45.94,2.9,2.85,4a15.25,15.25,0,0,0,13.8,0c1.9-1.1,2.85-2.55,2.84-4h0Z"/><path class="cls-69" d="M72.17,147.89a15.31,15.31,0,0,1,13.8,0c3.79,2.19,3.79,5.78,0,8a15.31,15.31,0,0,1-13.8,0C68.37,153.67,68.37,150.08,72.17,147.89Z"/><path class="cls-70" d="M73.18,155.41a3.75,3.75,0,0,1,0-7.07,13.07,13.07,0,0,1,11.77,0l-.23.41a12.58,12.58,0,0,0-11.3,0,3.29,3.29,0,0,0,0,6.25Z"/><path class="cls-63" d="M79.34,149.64l-.58.49-.81-.47-.5.43a1,1,0,0,1,.24.09.49.49,0,0,1,.26.52,1.3,1.3,0,0,1-.5.73,2.14,2.14,0,0,1-1,.5,1.11,1.11,0,0,1-.84-.07.61.61,0,0,1-.25-.79l.73-.28s0,.08,0,.12a1,1,0,0,0,0,.23.3.3,0,0,0,.15.21.4.4,0,0,0,.31,0,.81.81,0,0,0,.39-.2.54.54,0,0,0,.22-.33.25.25,0,0,0-.15-.24,1,1,0,0,0-.52-.07l.11-.37,1.46-1.25Zm-.56,1.05,1-.82,1.49.86-.5.44-3.33,1.65-.5-.29,3.22-1.62-.52-.3-.39.33ZM83.5,152,79,153.76l-.5-.29L83,151.75Zm-2.4,2.11a1.46,1.46,0,0,1-.55.29.66.66,0,0,1-.49,0,.27.27,0,0,1-.13-.33.83.83,0,0,1,.3-.44,1.39,1.39,0,0,1,.55-.29.67.67,0,0,1,.49,0,.27.27,0,0,1,.13.33A.89.89,0,0,1,81.1,154.15Zm-.68-.17a.07.07,0,0,0,0,.1.17.17,0,0,0,.14,0,.52.52,0,0,0,.19-.11.32.32,0,0,0,.12-.16c0-.05,0-.08,0-.1a.19.19,0,0,0-.15,0,.44.44,0,0,0-.19.12A.4.4,0,0,0,80.42,154Zm1.27-2a1.42,1.42,0,0,1-.55.3.67.67,0,0,1-.49,0,.3.3,0,0,1-.13-.34.94.94,0,0,1,.3-.43,1.3,1.3,0,0,1,.55-.3.66.66,0,0,1,.49,0,.28.28,0,0,1,.14.33A.88.88,0,0,1,81.69,152ZM81,151.8s0,.08,0,.1a.19.19,0,0,0,.15,0,.77.77,0,0,0,.19-.11.4.4,0,0,0,.12-.15s0-.09,0-.11a.14.14,0,0,0-.14,0,.5.5,0,0,0-.2.11A.29.29,0,0,0,81,151.8Z"/><g class="cls-71"><polygon class="cls-72" points="105.03 117.47 153.07 145.2 129.05 159.07 81.02 131.34 105.03 117.47"/><polygon class="cls-73" points="105.03 117.47 152.05 144.62 128.03 158.49 81.02 131.34 105.03 117.47"/><polygon class="cls-74" points="105.03 117.47 151.03 144.03 127.02 157.9 81.02 131.34 105.03 117.47"/><polygon class="cls-75" points="105.03 117.47 150.02 143.45 126 157.31 81.02 131.34 105.03 117.47"/><polygon class="cls-76" points="105.03 117.47 149 142.86 124.98 156.73 81.02 131.34 105.03 117.47"/><polygon class="cls-77" points="105.03 117.47 147.98 142.28 123.97 156.14 81.02 131.34 105.03 117.47"/><polygon class="cls-78" points="105.03 117.47 146.97 141.69 122.95 155.56 81.02 131.34 105.03 117.47"/><polygon class="cls-79" points="105.03 117.47 145.95 141.1 121.93 154.97 81.02 131.34 105.03 117.47"/><polygon class="cls-80" points="105.03 117.47 144.93 140.52 120.91 154.38 81.02 131.34 105.03 117.47"/><polygon class="cls-81" points="105.03 117.47 143.91 139.93 119.9 153.8 81.02 131.34 105.03 117.47"/><polygon class="cls-82" points="105.03 117.47 142.9 139.35 118.88 153.21 81.02 131.34 105.03 117.47"/><polygon class="cls-83" points="105.03 117.47 141.88 138.76 117.86 152.63 81.02 131.34 105.03 117.47"/><polygon class="cls-84" points="105.03 117.47 140.86 138.18 116.84 152.04 81.02 131.34 105.03 117.47"/><polygon class="cls-85" points="105.03 117.47 139.84 137.59 115.83 151.46 81.02 131.34 105.03 117.47"/><polygon class="cls-86" points="105.03 117.47 138.83 137 114.81 150.87 81.02 131.34 105.03 117.47"/><polygon class="cls-87" points="105.03 117.47 137.81 136.42 113.79 150.28 81.02 131.34 105.03 117.47"/><polygon class="cls-88" points="105.03 117.47 136.79 135.83 112.78 149.7 81.02 131.34 105.03 117.47"/><polygon class="cls-89" points="105.03 117.47 135.78 135.25 111.76 149.11 81.02 131.34 105.03 117.47"/><polygon class="cls-90" points="105.03 117.47 134.76 134.66 110.74 148.53 81.02 131.34 105.03 117.47"/><polygon class="cls-91" points="105.03 117.47 133.74 134.08 109.72 147.94 81.02 131.34 105.03 117.47"/><polygon class="cls-92" points="105.03 117.47 132.72 133.49 108.71 147.36 81.02 131.34 105.03 117.47"/><polygon class="cls-93" points="105.03 117.47 131.71 132.9 107.69 146.77 81.02 131.34 105.03 117.47"/><polygon class="cls-94" points="105.03 117.47 130.69 132.32 106.67 146.19 81.02 131.34 105.03 117.47"/><polygon class="cls-95" points="105.03 117.47 129.67 131.73 105.66 145.6 81.02 131.34 105.03 117.47"/><polygon class="cls-96" points="105.03 117.47 128.66 131.15 104.64 145.01 81.02 131.34 105.03 117.47"/><polygon class="cls-97" points="105.03 117.47 127.64 130.56 103.62 144.43 81.02 131.34 105.03 117.47"/><polygon class="cls-98" points="105.03 117.47 126.62 129.98 102.6 143.84 81.02 131.34 105.03 117.47"/><polygon class="cls-99" points="105.03 117.47 125.6 129.39 101.59 143.26 81.02 131.34 105.03 117.47"/><polygon class="cls-100" points="105.03 117.47 124.59 128.81 100.57 142.67 81.02 131.34 105.03 117.47"/><polygon class="cls-101" points="105.03 117.47 123.57 128.22 99.55 142.09 81.02 131.34 105.03 117.47"/><polygon class="cls-102" points="105.03 117.47 122.55 127.63 98.53 141.5 81.02 131.34 105.03 117.47"/><polygon class="cls-103" points="105.03 117.47 121.53 127.05 97.52 140.91 81.02 131.34 105.03 117.47"/><polygon class="cls-104" points="105.03 117.47 120.52 126.46 96.5 140.33 81.02 131.34 105.03 117.47"/><polygon class="cls-105" points="105.03 117.47 119.5 125.88 95.48 139.74 81.02 131.34 105.03 117.47"/><polygon class="cls-106" points="105.03 117.47 118.48 125.29 94.47 139.16 81.02 131.34 105.03 117.47"/><polygon class="cls-107" points="105.03 117.47 117.47 124.7 93.45 138.57 81.02 131.34 105.03 117.47"/><polygon class="cls-108" points="105.03 117.47 116.45 124.12 92.43 137.99 81.02 131.34 105.03 117.47"/><polygon class="cls-109" points="105.03 117.47 115.43 123.53 91.41 137.4 81.02 131.34 105.03 117.47"/><polygon class="cls-110" points="105.03 117.47 114.41 122.95 90.4 136.81 81.02 131.34 105.03 117.47"/><polygon class="cls-111" points="105.03 117.47 113.4 122.36 89.38 136.23 81.02 131.34 105.03 117.47"/><polygon class="cls-112" points="105.03 117.47 112.38 121.78 88.36 135.64 81.02 131.34 105.03 117.47"/><polygon class="cls-63" points="105.03 117.47 111.36 121.19 87.34 135.06 81.02 131.34 105.03 117.47"/></g><g class="cls-71"><polygon class="cls-72" points="61.76 92.62 109.63 120.62 85.54 134.35 37.66 106.35 61.76 92.62"/><polygon class="cls-73" points="61.76 92.62 108.62 120.03 84.52 133.76 37.66 106.35 61.76 92.62"/><polygon class="cls-74" points="61.76 92.62 107.61 119.44 83.51 133.17 37.66 106.35 61.76 92.62"/><polygon class="cls-75" points="61.76 92.62 106.59 118.85 82.5 132.58 37.66 106.35 61.76 92.62"/><polygon class="cls-76" points="61.76 92.62 105.58 118.26 81.48 131.99 37.66 106.35 61.76 92.62"/><polygon class="cls-77" points="61.76 92.62 104.56 117.67 80.47 131.4 37.66 106.35 61.76 92.62"/><polygon class="cls-78" points="61.76 92.62 103.55 117.07 79.45 130.8 37.66 106.35 61.76 92.62"/><polygon class="cls-79" points="61.76 92.62 102.54 116.48 78.44 130.21 37.66 106.35 61.76 92.62"/><polygon class="cls-80" points="61.76 92.62 101.52 115.89 77.43 129.62 37.66 106.35 61.76 92.62"/><polygon class="cls-81" points="61.76 92.62 100.51 115.3 76.41 129.03 37.66 106.35 61.76 92.62"/><polygon class="cls-82" points="61.76 92.62 99.5 114.71 75.4 128.44 37.66 106.35 61.76 92.62"/><polygon class="cls-83" points="61.76 92.62 98.48 114.12 74.39 127.85 37.66 106.35 61.76 92.62"/><polygon class="cls-84" points="61.76 92.62 97.47 113.53 73.37 127.25 37.66 106.35 61.76 92.62"/><polygon class="cls-85" points="61.76 92.62 96.45 112.93 72.36 126.66 37.66 106.35 61.76 92.62"/><polygon class="cls-86" points="61.76 92.62 95.44 112.34 71.34 126.07 37.66 106.35 61.76 92.62"/><polygon class="cls-87" points="61.76 92.62 94.42 111.75 70.33 125.48 37.66 106.35 61.76 92.62"/><polygon class="cls-88" points="61.76 92.62 93.41 111.16 69.32 124.89 37.66 106.35 61.76 92.62"/><polygon class="cls-89" points="61.76 92.62 92.4 110.57 68.3 124.3 37.66 106.35 61.76 92.62"/><polygon class="cls-90" points="61.76 92.62 91.38 109.98 67.29 123.71 37.66 106.35 61.76 92.62"/><polygon class="cls-91" points="61.76 92.62 90.37 109.39 66.27 123.11 37.66 106.35 61.76 92.62"/><polygon class="cls-92" points="61.76 92.62 89.36 108.79 65.26 122.52 37.66 106.35 61.76 92.62"/><polygon class="cls-93" points="61.76 92.62 88.34 108.2 64.25 121.93 37.66 106.35 61.76 92.62"/><polygon class="cls-94" points="61.76 92.62 87.33 107.61 63.23 121.34 37.66 106.35 61.76 92.62"/><polygon class="cls-95" points="61.76 92.62 86.31 107.02 62.22 120.75 37.66 106.35 61.76 92.62"/><polygon class="cls-96" points="61.76 92.62 85.3 106.43 61.2 120.16 37.66 106.35 61.76 92.62"/><polygon class="cls-97" points="61.76 92.62 84.29 105.84 60.19 119.57 37.66 106.35 61.76 92.62"/><polygon class="cls-98" points="61.76 92.62 83.27 105.25 59.18 118.97 37.66 106.35 61.76 92.62"/><polygon class="cls-99" points="61.76 92.62 82.26 104.65 58.16 118.38 37.66 106.35 61.76 92.62"/><polygon class="cls-100" points="61.76 92.62 81.25 104.06 57.15 117.79 37.66 106.35 61.76 92.62"/><polygon class="cls-101" points="61.76 92.62 80.23 103.47 56.13 117.2 37.66 106.35 61.76 92.62"/><polygon class="cls-102" points="61.76 92.62 79.22 102.88 55.12 116.61 37.66 106.35 61.76 92.62"/><polygon class="cls-103" points="61.76 92.62 78.2 102.29 54.11 116.02 37.66 106.35 61.76 92.62"/><polygon class="cls-104" points="61.76 92.62 77.19 101.7 53.09 115.43 37.66 106.35 61.76 92.62"/><polygon class="cls-105" points="61.76 92.62 76.18 101.11 52.08 114.83 37.66 106.35 61.76 92.62"/><polygon class="cls-106" points="61.76 92.62 75.16 100.51 51.07 114.24 37.66 106.35 61.76 92.62"/><polygon class="cls-107" points="61.76 92.62 74.15 99.92 50.05 113.65 37.66 106.35 61.76 92.62"/><polygon class="cls-108" points="61.76 92.62 73.13 99.33 49.04 113.06 37.66 106.35 61.76 92.62"/><polygon class="cls-109" points="61.76 92.62 72.12 98.74 48.02 112.47 37.66 106.35 61.76 92.62"/><polygon class="cls-110" points="61.76 92.62 71.11 98.15 47.01 111.88 37.66 106.35 61.76 92.62"/><polygon class="cls-111" points="61.76 92.62 70.09 97.56 46 111.29 37.66 106.35 61.76 92.62"/><polygon class="cls-112" points="61.76 92.62 69.08 96.97 44.98 110.69 37.66 106.35 61.76 92.62"/><polygon class="cls-63" points="61.76 92.62 68.06 96.37 43.97 110.1 37.66 106.35 61.76 92.62"/></g><polygon class="cls-113" points="84.78 39.35 60.04 25.07 35.9 39.35 60.03 53.64 84.78 39.35"/><polygon class="cls-114" points="84.78 39.35 84.78 106.04 60.03 119.56 60.03 53.64 84.78 39.35"/><polygon class="cls-115" points="35.9 39.35 35.9 105.27 60.03 119.56 60.03 53.64 35.9 39.35"/><polygon class="cls-116" points="115.67 72.65 90.92 58.36 66.78 72.65 90.92 86.94 115.67 72.65"/><polygon class="cls-63" points="115.67 72.65 115.67 123.62 90.92 137.14 90.92 86.94 115.67 72.65"/><polygon class="cls-117" points="66.78 72.65 66.78 122.85 90.92 137.14 90.92 86.94 66.78 72.65"/><polygon class="cls-118" points="146.96 111.46 122.21 97.17 98.07 111.46 122.21 125.75 146.96 111.46"/><polygon class="cls-119" points="146.96 111.46 146.96 141.6 122.21 155.12 122.21 125.75 146.96 111.46"/><polygon class="cls-120" points="98.07 111.46 98.07 140.83 122.21 155.12 122.21 125.75 98.07 111.46"/><path class="cls-121" d="M82.77,68.73c5-2.9,13.23-2.9,18.25,0s5,7.64,0,10.54-13.23,2.89-18.25,0S77.75,71.63,82.77,68.73Z"/><polygon class="cls-122" points="91.6 32.1 91.58 39.62 89.43 38.41 89.43 30.81 91.6 32.1"/><path class="cls-123" d="M105.37,59.51l-1.51.27a9.69,9.69,0,0,0-2.42-1.91c-5.25-3-13.84-3-19.08,0a9.94,9.94,0,0,0-2.43,1.91l-1.51-.27v1.64h0c0,2,1.3,4,3.94,5.54,5.24,3,13.83,3,19.08,0,2.63-1.53,4-3.54,3.93-5.54h0Z"/><path class="cls-69" d="M82.36,53.86c5.24-3,13.83-3,19.08,0s5.25,8,0,11-13.84,3-19.08,0S77.11,56.89,82.36,53.86Z"/><path class="cls-124" d="M83.66,54.62c4.53-2.62,11.94-2.62,16.47,0s4.53,6.89,0,9.51-11.94,2.61-16.47,0S79.13,57.23,83.66,54.62Z"/><path class="cls-69" d="M85,55.47a15.63,15.63,0,0,1,13.8,0c3.8,2.15,3.8,5.66,0,7.8a15.57,15.57,0,0,1-13.8,0C81.19,61.13,81.19,57.62,85,55.47Z"/><ellipse class="cls-124" cx="91.88" cy="59.37" rx="7.96" ry="4.5"/><path class="cls-69" d="M87.5,57.13a10.6,10.6,0,0,1,8.65,0c2.38,1.23,2.38,3.25,0,4.48a10.6,10.6,0,0,1-8.65,0C85.12,60.38,85.12,58.36,87.5,57.13Z"/><path class="cls-124" d="M89.18,58a6.5,6.5,0,0,1,5.29,0c1.45.76,1.45,2,0,2.74a6.5,6.5,0,0,1-5.29,0C87.72,60,87.72,58.76,89.18,58Z"/><path class="cls-63" d="M91.88,59.7a.61.61,0,0,1-.62-.61V31a.62.62,0,0,1,.62-.62.61.61,0,0,1,.61.62V59.09A.61.61,0,0,1,91.88,59.7Z"/><polygon class="cls-125" points="91.88 32.03 91.9 39.55 95.22 37.71 95.22 30.11 91.88 32.03"/><path class="cls-126" d="M49,34c6.06-3.5,16-3.5,22,0S77,43.2,71,46.69s-16,3.5-22,0S42.89,37.48,49,34Z"/><path class="cls-127" d="M68.6,30.28h-.39A5.53,5.53,0,0,0,66,28.16a13.94,13.94,0,0,0-12.58,0,5.49,5.49,0,0,0-2.2,2.12h-.39v1.34h0c-.07,1.36.78,2.74,2.58,3.78A14,14,0,0,0,66,35.4c1.8-1,2.66-2.42,2.58-3.78h0Z"/><path class="cls-63" d="M66,33.9c3.46-2,3.46-5.25,0-7.24a14,14,0,0,0-12.58,0c-3.45,2-3.45,5.25,0,7.24A14,14,0,0,0,66,33.9Z"/><path class="cls-128" d="M56.29,24.18V29h0a1.74,1.74,0,0,0,1,1.32,5.42,5.42,0,0,0,4.84,0,1.73,1.73,0,0,0,1-1.32h0V24.18Z"/><path class="cls-129" d="M62.21,26.5a5.57,5.57,0,0,1-5,0,2.16,2.16,0,0,1-.92-.94v-.39h-.1v1.51h0a1.77,1.77,0,0,0,1,1.36,5.57,5.57,0,0,0,5,0,1.76,1.76,0,0,0,1-1.36h0V25.27l-.1.06v.23A2.14,2.14,0,0,1,62.21,26.5Z"/><path class="cls-130" d="M62.21,26.93a5.57,5.57,0,0,1-5,0,1.79,1.79,0,0,1-1-1.37h0v1.55h0a1.8,1.8,0,0,0,1,1.36,5.57,5.57,0,0,0,5,0,1.79,1.79,0,0,0,1-1.36h0V25.56h0A1.79,1.79,0,0,1,62.21,26.93Z"/><path class="cls-131" d="M47.37,2.79,51,.74a3.11,3.11,0,0,1,3.2.07l2.26,1.43-3.4,1.91L50.75,2.67a2.37,2.37,0,0,0-1.54-.43Z"/><path class="cls-132" d="M48.62,11.72l3.66-2.07a6.85,6.85,0,0,1-2.72-7.41,4.38,4.38,0,0,0-1.83.55A3.2,3.2,0,0,0,46.34,5.7Z"/><path class="cls-133" d="M48.93,13.16,46.25,6.05a1.73,1.73,0,0,1-.12-.64,3.38,3.38,0,0,1,5.08-2.92l2,1.36L53,4.2l-2-.72c-.92-.53-1.56-.89-2.49-.36a2.9,2.9,0,0,0-1.63,2.46,1.37,1.37,0,0,0,.09.49L49.33,13Z"/><path class="cls-134" d="M68.42,19.83c3.34-4.24,4.68-14.75,0-17.44s-12.32-2.68-17,0-3.14,13.08,0,17.44c2.35,3.27,5.4,5.85,8.47,5.85S66.33,22.48,68.42,19.83Z"/><path class="cls-133" d="M67.53,10.51c4.18-2.4,4.18-6.32,0-8.71a16.8,16.8,0,0,0-15.13,0c-4.15,2.39-4.15,6.31,0,8.71A16.8,16.8,0,0,0,67.53,10.51Z"/><path class="cls-135" d="M67.28,10.22c4-2.28,4-6,0-8.3a16.44,16.44,0,0,0-14.63,0c-4,2.28-4,6,0,8.3A16.5,16.5,0,0,0,67.28,10.22Z"/><path class="cls-133" d="M63.36,23.32a21.22,21.22,0,0,0,4.56-.64c.85-.22,2.92-1.23,3.45-2.76.59-1.74,1.11-4.22.1-6.06a5,5,0,0,0-3.69-2.48l-.28,1.51a2.27,2.27,0,0,1,2.12.14,3.85,3.85,0,0,1,1.61,2.66,5.82,5.82,0,0,1-1.31,5.17s-3.8,2-6.13,1.82Z"/><path class="cls-136" d="M67.78,11.38l2.7-2s8,6.18-.83,12.47a10.79,10.79,0,0,0,1.25-1.52C72.09,18.18,73.48,13.58,67.78,11.38Z"/><path class="cls-137" d="M63.79,22.68,66.61,21s2.55.63,3.39-.22C70,20.76,68.64,22.68,63.79,22.68Z"/><path class="cls-63" d="M29.81,121.14h-.07a.51.51,0,0,1-.43-.56L39.45,43a.49.49,0,1,1,1,.13L30.3,120.71A.5.5,0,0,1,29.81,121.14Z"/><path class="cls-63" d="M44.67,129.46h-.06a.49.49,0,0,1-.43-.55L54,48.29a.48.48,0,0,1,.55-.44.51.51,0,0,1,.43.56L45.17,129A.51.51,0,0,1,44.67,129.46Z"/><polygon class="cls-63" points="53.72 55.88 39.26 47.27 39.42 46.22 53.99 54.89 53.72 55.88"/><polygon class="cls-63" points="52.27 67.77 37.81 59.17 37.98 58.11 52.54 66.78 52.27 67.77"/><polygon class="cls-63" points="50.82 79.67 36.37 71.06 36.53 70.01 51.09 78.68 50.82 79.67"/><polygon class="cls-63" points="49.37 91.56 34.92 82.95 35.08 81.9 49.65 90.57 49.37 91.56"/><polygon class="cls-63" points="47.92 103.45 33.47 94.85 33.63 93.79 48.2 102.46 47.92 103.45"/><polygon class="cls-63" points="46.48 115.35 32.02 106.74 32.19 105.69 46.75 114.36 46.48 115.35"/><polygon class="cls-63" points="45.03 127.24 30.57 118.64 30.74 117.58 45.3 126.25 45.03 127.24"/><path class="cls-63" d="M36.54,99.47,41.34,97a.65.65,0,0,0,0-1.15l-.08,0a3.49,3.49,0,0,0-2.67-.17L35,96.51a.89.89,0,0,0-.72.87v.8a.93.93,0,0,0,.46.79l.83.48A1,1,0,0,0,36.54,99.47Z"/><path class="cls-138" d="M36.25,98c-1,0-2,.12-2-.89l.14-22a1.83,1.83,0,0,1,1.83-1.82,2.16,2.16,0,0,1,2,2.06l-.14,20.81A1.83,1.83,0,0,1,36.25,98Z"/><path class="cls-139" d="M34.42,76.78v1.34a5.36,5.36,0,0,0,2.39,4.46l1.34.89.06-5.19Z"/><path class="cls-63" d="M43.32,90.49,48.12,88a.65.65,0,0,0,0-1.15l-.07,0a3.51,3.51,0,0,0-2.68-.17l-3.58.88a.88.88,0,0,0-.71.88v.79a.89.89,0,0,0,.46.79l.82.48A1,1,0,0,0,43.32,90.49Z"/><path class="cls-140" d="M42.8,89.36h-.11c-1-.06-1.62-.62-1.63-.94L42.14,82,39.2,80.16a5.4,5.4,0,0,1-4-1.46,2.63,2.63,0,0,1-.79-1.92V72.15a1.89,1.89,0,0,1,1.65-1.9,1.83,1.83,0,0,1,2,1.82v2.61a1.86,1.86,0,0,0,.58,1.39,1.72,1.72,0,0,0,1.3.45L41.69,76l3.78,3.29a2.14,2.14,0,0,1,.38,1.36l-1.23,7A1.83,1.83,0,0,1,42.8,89.36Z"/><path class="cls-141" d="M39.27,66.49,35.44,59.9a1.14,1.14,0,0,1,2-1.14l3,5.18,6-1.21A1.14,1.14,0,1,1,46.89,65Z"/><path class="cls-142" d="M43,62.11l-.45,14.31c-2.21,1.27-7.09.58-8.36-1.62V59.35a2.4,2.4,0,0,1,3.6-2.08l3.64,2.11A3.15,3.15,0,0,1,43,62.11Z"/><path class="cls-141" d="M41,63.21a1.15,1.15,0,0,1-1.07-.75A1.13,1.13,0,0,1,40.61,61l5.66-2.1a1.25,1.25,0,0,0,.61-.5l3.16-5A1.14,1.14,0,0,1,52,54.67L48.8,59.62A3.49,3.49,0,0,1,47.06,61l-5.65,2.1A1.14,1.14,0,0,1,41,63.21Z"/><path class="cls-143" d="M39.94,62.44s-.06.33.41.62c.13.09.29.38.45.41l2.13,1.11L43,62.11a3,3,0,0,0,0-.31l-1.64-.33A1.11,1.11,0,0,0,39.94,62.44Z"/><path class="cls-142" d="M41,63.43a1.37,1.37,0,0,1-.48-2.65l3.21-1.19a1.37,1.37,0,0,1,.95,2.57l-3.2,1.19A1.34,1.34,0,0,1,41,63.43Z"/><path class="cls-141" d="M36.25,51.34h5.89a0,0,0,0,1,0,0v3.3a3.57,3.57,0,0,1-3.57,3.57h-.46a1.87,1.87,0,0,1-1.87-1.87v-5A0,0,0,0,1,36.25,51.34Z"/><path class="cls-141" d="M37.26,55.18h1.91a.28.28,0,0,1,.28.28V59a1.14,1.14,0,0,1-1.14,1.14h-.19A1.14,1.14,0,0,1,37,59V55.46A.28.28,0,0,1,37.26,55.18Z"/><path class="cls-141" d="M48.64,63.49c.13.66-.74,1.32-1.42,1.32A1.21,1.21,0,0,1,46,63.59c0-.67.17-1.32.85-1.32A2.27,2.27,0,0,1,48.64,63.49Z"/><path class="cls-141" d="M50.15,53.23c1-1,2.26-.8,2.53-.19a1.21,1.21,0,0,1-.61,1.6c-.61.28-.59-.42-.87-1S49.68,53.71,50.15,53.23Z"/><path class="cls-141" d="M46.33,63a.61.61,0,1,1-.61-.61A.61.61,0,0,1,46.33,63Z"/><rect class="cls-141" x="48.67" y="52.84" width="2.25" height="0.85" rx="0.39" transform="translate(61.64 -18.68) rotate(52.43)"/><path class="cls-144" d="M43,49.64c0,.17-.22.24-.38.26a9.3,9.3,0,0,1-3.36-.26,8.35,8.35,0,0,0-1.48-.26,2.14,2.14,0,0,0-1.41.42,1.25,1.25,0,0,0-.44,1.34c-.48.17-.62.78-.63,1.29a6.56,6.56,0,0,0,.28,2,2.79,2.79,0,0,1,.28,1.09,1.94,1.94,0,0,0,.09,1.21c.07.13.25.4.42.43s.4-.24.59-.34l.58-.26a1.78,1.78,0,0,0,1-.92c.11-.34,0-.71.13-1.06s.27-.44.49-.37.22.21.28.36l.24.58a.59.59,0,0,0,.1.17.28.28,0,0,0,.41-.09.6.6,0,0,0,0-.46,3.89,3.89,0,0,1-.09-.47,1.18,1.18,0,0,1,.88-1c.45-.15.94-.17,1.38-.34a2,2,0,0,0,.59-3.3Z"/><path class="cls-133" d="M43,49.64a.25.25,0,0,1-.1.16,2,2,0,0,1-.74,3.14c-.44.17-.93.19-1.38.34a1.16,1.16,0,0,0-.87,1,2,2,0,0,0,.09.47.61.61,0,0,1-.06.46.35.35,0,0,1-.13.11.31.31,0,0,0,.38-.11.6.6,0,0,0,0-.46,3.89,3.89,0,0,1-.09-.47,1.18,1.18,0,0,1,.88-1c.45-.15.94-.17,1.38-.34a2,2,0,0,0,.59-3.3Z"/><path class="cls-145" d="M4.62,132.58v1.64a1.13,1.13,0,0,0,.56,1l.23.16a3.18,3.18,0,0,0,3.12,0l2.9-1.57a.49.49,0,0,0,0-.86h0c-.55-.32-1.2-.8-1.8-.72a5.85,5.85,0,0,1-.83.09l-1.34.18Z"/><path class="cls-63" d="M11.43,133.47,8.53,135a3.18,3.18,0,0,1-3.12,0l-.23-.16a1.15,1.15,0,0,1-.56-1v.38a1.13,1.13,0,0,0,.56,1l.23.16a3.18,3.18,0,0,0,3.12,0l2.9-1.57a.49.49,0,0,0,.22-.62A.48.48,0,0,1,11.43,133.47Z"/><path class="cls-142" d="M9.29,133.3l.34-.17-.4-.81c-.14,0-.27,0-.41,0Z"/><polygon class="cls-142" points="8.61 133.47 8.94 133.3 8.49 132.39 8.1 132.44 8.61 133.47"/><path class="cls-145" d="M9.32,135.88v1.64a1.13,1.13,0,0,0,.56,1l.23.16a3.18,3.18,0,0,0,3.12.05l2.9-1.57a.49.49,0,0,0,0-.86h0c-.55-.32-1.2-.8-1.8-.72a5.85,5.85,0,0,1-.83.09l-1.34.18Z"/><path class="cls-63" d="M16.13,136.76l-2.9,1.57a3.16,3.16,0,0,1-3.12,0l-.23-.16a1.15,1.15,0,0,1-.56-1v.38a1.13,1.13,0,0,0,.56,1l.23.16a3.18,3.18,0,0,0,3.12.05l2.9-1.57a.49.49,0,0,0,.22-.62A.43.43,0,0,1,16.13,136.76Z"/><path class="cls-63" d="M5.61,112.07a.86.86,0,0,1-.62-.25l-1.67-1.61a6,6,0,0,1,.4-8.95l1.85-1.49a.89.89,0,0,1,1.25.13.9.9,0,0,1-.13,1.26l-1.85,1.49a4.19,4.19,0,0,0-.28,6.28l1.67,1.61a.89.89,0,0,1-.62,1.53Z"/><path class="cls-146" d="M6,134.33a1.43,1.43,0,0,1-1.4-1.56l.49-9.87-.65-10.74A1.56,1.56,0,0,1,6,110.6c.86,0,2.54.7,2.54,1.56l-1,20.61A1.56,1.56,0,0,1,6,134.33Z"/><path class="cls-147" d="M5,110.39c0-1.26.69-7.15,1.78-6.52l5.71,3.29c.54.32-.77-.12-.77.51v6.5a1.54,1.54,0,0,1,.77,1.33v20.61a1.56,1.56,0,0,1-3.12,0l.2-10.55-.79-6.68-3.58-2a1.75,1.75,0,0,1-.87-1.52Z"/><g class="cls-71"><path class="cls-148" d="M6.23,110.54a.89.89,0,0,1-.62,1.53.86.86,0,0,1-.62-.25l-1-.95c0-.26,0-.47.06-.57.06-.61.07-1.22.09-1.83a4.49,4.49,0,0,0,.41.46Z"/></g><path class="cls-63" d="M4.41,102.42l.31,4.81c-.1,1-.07,2-.17,3.07a45.57,45.57,0,0,0-.27,4.94,5.75,5.75,0,0,0,2.44,1.87c.12.07.25-3.07.38-3s.24,3.31.36,3.37c1.72.77,3.76,1.26,5.15.59l-.16-5.87.28-3.66c.18-2.51.66-5.86-1.81-7.4l-.32-.19L8,99.51a2,2,0,0,0-2,0H6A3.14,3.14,0,0,0,4.41,102.42Z"/><path class="cls-141" d="M8.43,101.14a.89.89,0,0,1-.9-.89v-3.5a.9.9,0,1,1,1.79,0v3.5A.89.89,0,0,1,8.43,101.14Z"/><path class="cls-141" d="M7.62,100.07h0V94.14H12v1.54A4.39,4.39,0,0,1,7.62,100.07Z"/><path class="cls-63" d="M13,93a.92.92,0,0,0-1.24-.5.56.56,0,0,1-.63,0c-.31-.18-.38-.3-.8-.25a4.72,4.72,0,0,1-.54.17c-.34,0-.56-.27-1-.16a1.07,1.07,0,0,1-.66.07,1.24,1.24,0,0,0-.63.06c-.4.16-.37.46-.6.73s-.47.08-.7.29a.66.66,0,0,0-.15.74c.06.11.15.24.1.35s-.12.13-.19.19c-.23.23,0,.62.13.89a.28.28,0,0,1,.07.17c0,.09-.07.15-.12.22A.81.81,0,0,0,6.22,97c.14.12.33.21.36.39a.8.8,0,0,1-.06.3.9.9,0,0,0,.45,1c.4.2,0,.93.65,1s.94-.56,1-1c0,.06.31-.11.34-.14a1.07,1.07,0,0,0,.15-.4,3,3,0,0,0,.16-.79c0-.1,0-1.24.09-1.25a1.74,1.74,0,0,0,.64-.09c.47-.18.27-.5.45-.83.09-.16.3-.2.4-.36a1,1,0,0,0,0-.62,2.37,2.37,0,0,0,1.37,0c.34-.14.81-.38.82-.79A1.22,1.22,0,0,0,13,93Z"/><path class="cls-149" d="M13.13,93.46c0,.41-.48.65-.82.79a1.48,1.48,0,0,1-.76.09,1.24,1.24,0,0,0,.39-.09c.33-.14.81-.38.81-.79a1,1,0,0,0-.11-.5,1.05,1.05,0,0,0-.67-.57A1,1,0,0,1,13,93,1.22,1.22,0,0,1,13.13,93.46Z"/><path class="cls-141" d="M10.4,96.67a.65.65,0,0,1-.65.65.65.65,0,1,1,.65-.65Z"/><path class="cls-142" d="M14,136.6l.34-.17-.41-.81-.4,0Z"/><polygon class="cls-142" points="13.3 136.77 13.64 136.6 13.19 135.69 12.8 135.74 13.3 136.77"/><path class="cls-141" d="M11.47,105h0l4.21-1.53a4.35,4.35,0,0,0,2.78-3.25l1.28-6.72A.89.89,0,1,0,18,93.18L16.74,99.9a2.55,2.55,0,0,1-1.63,1.91l-4.21,1.53a.89.89,0,0,0-.53,1.14A.88.88,0,0,0,11.47,105Z"/><path class="cls-63" d="M11.51,105.12l0,0,4.21-1.52a4.44,4.44,0,0,0,2.83-3.33l1-5.37a1,1,0,1,0-1.93-.37l-1,5.37a2.48,2.48,0,0,1-1.58,1.84l-4.21,1.53a1,1,0,0,0,.65,1.87Z"/><path class="cls-141" d="M18.09,93.71h0a.18.18,0,0,0,.21-.13l.44-2.15a.18.18,0,0,0-.14-.21h0a.17.17,0,0,0-.2.14L18,93.5A.17.17,0,0,0,18.09,93.71Z"/><path class="cls-150" d="M37,148.83a1.11,1.11,0,0,0,.5-.12,1.05,1.05,0,0,0,.42-1.43l-3.46-6.35a1.55,1.55,0,0,1,.49-2l4.53-3.1a1.05,1.05,0,0,0-1.19-1.74l-4.53,3.1a3.65,3.65,0,0,0-1.15,4.79l3.46,6.34A1,1,0,0,0,37,148.83Z"/><path class="cls-141" d="M49.84,126.59h0a.3.3,0,0,0,.38-.17l.81-2.1a.28.28,0,0,0-.17-.37h0a.29.29,0,0,0-.38.16l-.81,2.1A.3.3,0,0,0,49.84,126.59Z"/><path class="cls-151" d="M36.81,173.71l1.06-.62,1.11-.64,2.5-1.45a.85.85,0,0,0-.14-1.53h0a1.85,1.85,0,0,0-1.46.07l-1.93.94-2.33.86a.47.47,0,0,0-.31.47l0,.62a1.37,1.37,0,0,0,1.36,1.28Z"/><path class="cls-141" d="M36.43,170.85l1.52-.37,1.14-.55a.85.85,0,0,1,0,1.47l-1.69,1-.08,0a1.19,1.19,0,0,1-1.44-.18c-.29-.29-.53-.58-.44-.7l.66-.21A.47.47,0,0,1,36.43,170.85Z"/><path class="cls-141" d="M36.75,172.57c.73,0,1-.59,1-1.31V147a1.32,1.32,0,0,0-1.32-1.32c-.72,0-1.56,4.73-1.56,5.46l.26,8.6.25,11.49A1.32,1.32,0,0,0,36.75,172.57Z"/><path class="cls-151" d="M41.31,176.21l1.06-.62,1.11-.64L46,173.5a.85.85,0,0,0-.14-1.53h0a1.85,1.85,0,0,0-1.46.07l-1.93.94-2.33.86a.47.47,0,0,0-.31.47l0,.62a1.37,1.37,0,0,0,1.36,1.28Z"/><path class="cls-141" d="M40.93,173.35l1.52-.37,1.14-.55a.85.85,0,0,1,0,1.47l-1.69,1-.08,0a1.19,1.19,0,0,1-1.44-.18c-.29-.29-.53-.58-.44-.7l.66-.21A.47.47,0,0,1,40.93,173.35Z"/><path class="cls-141" d="M41.25,175.07c.73,0,1-.59,1-1.31V149.53A1.32,1.32,0,0,0,41,148.21c-.72,0-2.44,1-2.44,1.72l1.14,12.34.25,11.49A1.32,1.32,0,0,0,41.25,175.07Z"/><path class="cls-141" d="M39.1,137h.17l1.06-.18a14.09,14.09,0,0,0,10.5-8l.88-1.92a1.06,1.06,0,0,0-1.92-.88l-.88,1.92A12,12,0,0,1,40,134.74l-1.07.18A1.05,1.05,0,0,0,39.1,137Z"/><path class="cls-152" d="M35.14,145.47h0L34.51,132a2,2,0,0,1,3-1.78l0,0a1.84,1.84,0,0,1,.6.58A21.57,21.57,0,0,0,41,134.26c.31-.08.62-.18.92-.28a1.32,1.32,0,1,1,.88,2.48l-.37.11a5.21,5.21,0,0,1,.23,1.55l-.78,6,.92,5.86.32,10.21a3.64,3.64,0,0,1-2.2.52c-.08,0-1-.05-1.18-.09-2.25-.39-4.36-.54-5.21-2.22l-.33-4.27A25.37,25.37,0,0,1,35.14,145.47Z"/><path class="cls-141" d="M37.76,132.28h0a.78.78,0,0,0,.78-.78v-3.6H37v3.6A.78.78,0,0,0,37.76,132.28Z"/><path class="cls-141" d="M36.18,130.35l1.56.2a1.82,1.82,0,0,0,2.08-1.94l0-.19-.8-3.68-3.85.84Z"/><path class="cls-153" d="M33.09,134.52a2.15,2.15,0,0,0,.33-.82c.06-.63-.45-1.16-.57-1.77-.18-.91.45-1.74.41-2.64a8,8,0,0,1,0-2.84,4,4,0,0,1,.16-.45,3.84,3.84,0,0,1,3.12-2.15,5.52,5.52,0,0,1,1.72,0,2.78,2.78,0,0,1,1,.25.9.9,0,0,1,.33.28,1,1,0,0,1,.15.64c-.05.51-.69.69-.75,1.16a5.43,5.43,0,0,0,.16.76,2,2,0,0,1-.16.93c-.25.55-.77,1-.75,1.62,0,.27.14.52.18.78.14.94-.85,1.66-.59,2.62.16.61.86,1.06.79,1.69a6.75,6.75,0,0,1-.22.73c-.09.52.29,1.09.06,1.56-.78,1.63-3.51,1.35-4.78.64a2.11,2.11,0,0,1-.8-.71A2.34,2.34,0,0,1,33.09,134.52Z"/><path class="cls-151" d="M38.54,147.78a12.83,12.83,0,0,1-3.83-.58c.13-.58.27-1.16.43-1.73v-.36a10.87,10.87,0,0,0,6.88,0l.33,2.12A12.53,12.53,0,0,1,38.54,147.78Z"/><path class="cls-154" d="M113.71,104.06a16.23,16.23,0,0,1,18.72,0c5.14,4,5.14,10.43,0,14.39a16.27,16.27,0,0,1-18.72,0C108.57,114.49,108.57,108,113.71,104.06Z"/><path class="cls-63" d="M135.28,99c0-.3-.43-.55-.95-.55h-2c-.34,0-.89.36-1,.25s-.09-.38.14-.52l1.43-.82c.37-.21-2-.11-2.35-.32l0-1.78a1.48,1.48,0,0,0-1.33,0l-1.44.83a1.25,1.25,0,0,1-.86.09l-.62-.14c-.3-.07-.49-.24-.49-.42V94.45c0-.3-.42-.55-.94-.55h-3.29c-.52,0-1,.25-1,.55v1.16c0,.19-.21.35-.52.42l-.59.14a1.27,1.27,0,0,1-.89-.08l-1.43-.82a1.5,1.5,0,0,0-1.34,0l-.17,1.94c-.37.21-2.51,0-2.14.17l1.44.83c.22.13.29.32.16.49s-.65-.23-1-.23h-2c-.52,0-.94.25-.94.55v2.76c0,.3.43.54,1,.54h1.18l0,2.28a.24.24,0,0,0,0,.12h0a.49.49,0,0,0,.27.33l2.33,1.33a1.41,1.41,0,0,0,.83.14h0a1.27,1.27,0,0,0,.49-.14l1.44-.83a1.24,1.24,0,0,1,.86-.09l.61.14c.3.07.5.23.5.42v1.17c0,.3.43.54,1,.54h3.28c.53,0,1-.24,1-.54V106c0-.2.22-.36.53-.43l.56-.13a1.27,1.27,0,0,1,.89.08l1.43.82a1.27,1.27,0,0,0,.49.14v0l0,0a1.39,1.39,0,0,0,.82-.14l2.32-1.34a.5.5,0,0,0,.26-.31h0v-.08l0-2.33h1.17c.52,0,.94-.24.94-.54Zm-7.44,2.3c-.54,1.67-3.55,2.62-6.26,2-2-.46-3.31-1.74-2.9-3,.55-1.68,3.56-2.62,6.26-2C127,98.77,128.25,100.05,127.84,101.3Z"/><path class="cls-63" d="M133.2,95.85V94.37h-2.12l-.48-.27a1.48,1.48,0,0,0-1.33,0l-.47.27h-2.94V93.29c0-.3-.42-.55-.94-.55h-3.29c-.52,0-1,.25-1,.55v1.08h-3l-.45-.26a1.5,1.5,0,0,0-1.34,0l-.45.26h-2.14v1.45a.44.44,0,0,0,.28.4l1.44.83,16.46,0,1.43-.82a.48.48,0,0,0,.27-.35Z"/><path class="cls-155" d="M131.76,99.69h2.58c.52,0,.94-.24.94-.54V97.26c0-.3-.43-.55-.95-.55h-2a.87.87,0,0,1-.74-.3,3.71,3.71,0,0,0-.23-.32c-.14-.18-.09-.38.14-.52l1.43-.82c.37-.21.37-.55,0-.77l-2.33-1.33a1.48,1.48,0,0,0-1.33,0l-1.44.82a1.2,1.2,0,0,1-.86.1l-.62-.14c-.3-.07-.49-.24-.49-.42V91.84c0-.3-.42-.55-.94-.55h-3.29c-.52,0-1,.25-1,.55V93c0,.19-.21.35-.52.42l-.59.14a1.27,1.27,0,0,1-.89-.08l-1.43-.82a1.5,1.5,0,0,0-1.34,0L113.58,94c-.37.21-.36.56,0,.77l1.44.83c.22.13.29.32.16.49l-.24.36a.92.92,0,0,1-.73.28h-2c-.52,0-.94.25-.94.55v1.89c0,.3.43.54,1,.54h2a.89.89,0,0,1,.74.3,2.43,2.43,0,0,0,.24.32c.13.18.09.38-.15.52l-1.42.82a.41.41,0,0,0,0,.77l2.33,1.33a1.48,1.48,0,0,0,1.33,0l1.44-.83a1.19,1.19,0,0,1,.86-.09l.61.14c.3.07.5.23.5.42v1.17c0,.3.43.54,1,.54h3.28c.53,0,1-.24,1-.54v-1.17c0-.19.22-.35.53-.42l.56-.13a1.22,1.22,0,0,1,.89.08l1.43.82a1.5,1.5,0,0,0,1.34,0l2.32-1.34a.41.41,0,0,0,0-.77l-1.44-.82c-.23-.13-.29-.33-.17-.5S131.75,99.71,131.76,99.69Zm-13.08-2c.55-1.67,3.56-2.61,6.26-2,2.06.45,3.31,1.73,2.9,3-.54,1.67-3.55,2.61-6.26,2C119.53,100.25,118.27,99,118.68,97.72Z"/><path class="cls-156" d="M46.72,27.1l-.49,1.09-1.36-.75s-.1,0-.08.08l.9,1.7-.28,1.45a.1.1,0,0,0,.1.11l1.13-.11,1.21,1.47a.06.06,0,0,0,.1,0l-.17-1.6,1.11-.63a0,0,0,0,0,0-.09l-1.44-.84L46.8,27.1A0,0,0,0,0,46.72,27.1Z"/><path class="cls-55" d="M45,28l1,.55.16-.36-1.35-.74s-.1,0-.08.08Z"/><path class="cls-55" d="M48.89,29.77l-1.44-.84L46.8,27.1a0,0,0,0,0-.08,0l-.24.53L47,29.15l1.44.83a0,0,0,0,1,0,.09l-1.11.63.1,1,.4.48a.06.06,0,0,0,.1,0l-.17-1.6,1.11-.63A0,0,0,0,0,48.89,29.77Z"/><path class="cls-157" d="M36,17.4,35.26,19l-2-1.09a.08.08,0,0,0-.12.11l1.31,2.5-.41,2.12a.15.15,0,0,0,.15.17l1.66-.16,1.77,2.16a.09.09,0,0,0,.15-.07l-.25-2.36,1.64-.93a.07.07,0,0,0,0-.13l-2.12-1.23-1-2.68A.06.06,0,0,0,36,17.4Z"/><path class="cls-55" d="M33.51,18.7l1.51.82.24-.53-2-1.08a.08.08,0,0,0-.12.11Z"/><path class="cls-55" d="M39.18,21.32l-2.12-1.23-1-2.68a.06.06,0,0,0-.12,0l-.35.78.78,2.23,2.13,1.23a.08.08,0,0,1,0,.13l-1.64.92.15,1.41.58.71a.09.09,0,0,0,.15-.07l-.25-2.36,1.64-.93A.07.07,0,0,0,39.18,21.32Z"/><path class="cls-158" d="M39.88,3.82,38.92,6,36.26,4.49a.12.12,0,0,0-.16.16L37.86,8l-.54,2.84a.18.18,0,0,0,.18.23l2.23-.22,2.37,2.88a.11.11,0,0,0,.2-.09L42,10.46l2.2-1.23a.1.1,0,0,0,0-.17L41.31,7.41,40.05,3.82A.09.09,0,0,0,39.88,3.82Z"/><path class="cls-55" d="M36.58,5.55l2,1.1.32-.71L36.26,4.49a.12.12,0,0,0-.16.16Z"/><path class="cls-55" d="M44.16,9.06,41.31,7.41,40.05,3.82a.09.09,0,0,0-.17,0l-.47,1,1.06,3,2.84,1.64a.1.1,0,0,1,0,.18l-2.2,1.23.21,1.87.78,1a.11.11,0,0,0,.2-.09L42,10.46l2.2-1.23A.1.1,0,0,0,44.16,9.06Z"/><path class="cls-159" d="M74.94,26.69l-.47,1L73.16,27a.06.06,0,0,0-.07.08L74,28.74l-.27,1.38a.1.1,0,0,0,.09.12l1.09-.11L76,31.54s.11,0,.1,0L76,30l1.07-.6a0,0,0,0,0,0-.09l-1.39-.8L75,26.7A0,0,0,0,0,74.94,26.69Z"/><path class="cls-55" d="M73.32,27.54l1,.54.16-.35L73.16,27a.06.06,0,0,0-.07.08Z"/><path class="cls-55" d="M77,29.26l-1.39-.8L75,26.7a0,0,0,0,0-.08,0l-.23.51.51,1.46,1.4.81s0,.07,0,.08l-1.08.61.1.92.38.46s.11,0,.1,0L76,30l1.07-.6A0,0,0,0,0,77,29.26Z"/><path class="cls-160" d="M81.79,15.49l-1,2.25L78,16.19a.13.13,0,0,0-.17.17l1.85,3.51-.58,3a.21.21,0,0,0,.2.24l2.34-.23,2.5,3a.12.12,0,0,0,.21-.09L84,22.48l2.32-1.29a.11.11,0,0,0,0-.19l-3-1.73L82,15.49A.09.09,0,0,0,81.79,15.49Z"/><path class="cls-55" d="M78.31,17.31l2.11,1.16.34-.75L78,16.19a.13.13,0,0,0-.17.17Z"/><path class="cls-55" d="M86.29,21l-3-1.73L82,15.49a.09.09,0,0,0-.17,0l-.5,1.09,1.11,3.14,3,1.73a.1.1,0,0,1,0,.18l-2.32,1.3.22,2,.82,1a.12.12,0,0,0,.21-.09L84,22.48l2.32-1.29A.11.11,0,0,0,86.29,21Z"/></g></g></g></svg>