<svg xmlns="http://www.w3.org/2000/svg" xmlns:xlink="http://www.w3.org/1999/xlink" viewBox="0 0 166.21 164.39"><defs><style>.cls-1{fill:url(#linear-gradient);}.cls-2,.cls-57{opacity:0.3;}.cls-10,.cls-11,.cls-12,.cls-13,.cls-14,.cls-15,.cls-16,.cls-17,.cls-18,.cls-19,.cls-20,.cls-21,.cls-22,.cls-23,.cls-24,.cls-25,.cls-26,.cls-27,.cls-28,.cls-29,.cls-3,.cls-30,.cls-31,.cls-32,.cls-33,.cls-34,.cls-35,.cls-36,.cls-37,.cls-38,.cls-39,.cls-4,.cls-40,.cls-41,.cls-42,.cls-43,.cls-44,.cls-5,.cls-6,.cls-7,.cls-8,.cls-9{fill:#3c5185;}.cls-3{opacity:0;}.cls-4{opacity:0.02;}.cls-5{opacity:0.05;}.cls-6{opacity:0.07;}.cls-7{opacity:0.1;}.cls-8{opacity:0.12;}.cls-9{opacity:0.15;}.cls-10{opacity:0.17;}.cls-11{opacity:0.2;}.cls-12{opacity:0.22;}.cls-13{opacity:0.24;}.cls-14{opacity:0.27;}.cls-15{opacity:0.29;}.cls-16{opacity:0.32;}.cls-17{opacity:0.34;}.cls-18{opacity:0.37;}.cls-19{opacity:0.39;}.cls-20{opacity:0.41;}.cls-21{opacity:0.44;}.cls-22{opacity:0.46;}.cls-23{opacity:0.49;}.cls-24{opacity:0.51;}.cls-25{opacity:0.54;}.cls-26{opacity:0.56;}.cls-27{opacity:0.59;}.cls-28{opacity:0.61;}.cls-29{opacity:0.63;}.cls-30{opacity:0.66;}.cls-31{opacity:0.68;}.cls-32{opacity:0.71;}.cls-33{opacity:0.73;}.cls-34{opacity:0.76;}.cls-35{opacity:0.78;}.cls-36{opacity:0.8;}.cls-37{opacity:0.83;}.cls-38{opacity:0.85;}.cls-39{opacity:0.88;}.cls-40{opacity:0.9;}.cls-41{opacity:0.93;}.cls-42{opacity:0.95;}.cls-43{opacity:0.98;}.cls-45{fill:url(#linear-gradient-2);}.cls-46{fill:url(#linear-gradient-3);}.cls-47{fill:url(#linear-gradient-4);}.cls-48{fill:url(#linear-gradient-5);}.cls-49{fill:url(#linear-gradient-6);}.cls-50{fill:url(#linear-gradient-7);}.cls-51{fill:url(#linear-gradient-8);}.cls-52{fill:url(#linear-gradient-9);}.cls-53{fill:url(#linear-gradient-10);}.cls-54{fill:url(#linear-gradient-11);}.cls-55{fill:url(#linear-gradient-12);}.cls-56{fill:url(#linear-gradient-13);}.cls-57{fill:#2d3d64;}.cls-58{fill:none;}.cls-59{fill:url(#linear-gradient-14);}.cls-60{fill:url(#linear-gradient-15);}.cls-61{fill:url(#linear-gradient-16);}.cls-62{fill:#fff;}.cls-63{fill:#a5cbef;opacity:0.5;}.cls-64{fill:url(#linear-gradient-17);}.cls-65{fill:url(#linear-gradient-18);}.cls-66{fill:url(#linear-gradient-19);}.cls-67{fill:url(#linear-gradient-20);}.cls-68{fill:url(#linear-gradient-21);}.cls-69{fill:url(#linear-gradient-22);}.cls-70{fill:url(#linear-gradient-23);}.cls-71{fill:url(#linear-gradient-24);}.cls-72{fill:url(#linear-gradient-25);}.cls-73{fill:url(#linear-gradient-26);}.cls-74{fill:url(#linear-gradient-27);}.cls-75{fill:url(#linear-gradient-28);}.cls-76{fill:url(#linear-gradient-29);}.cls-77{fill:url(#linear-gradient-30);}.cls-78{fill:url(#linear-gradient-31);}.cls-79{fill:url(#linear-gradient-32);}</style><linearGradient id="linear-gradient" x1="105.41" y1="163.84" x2="59.22" y2="13.24" gradientUnits="userSpaceOnUse"><stop offset="0.14" stop-color="#fff"/><stop offset="1" stop-color="#e1ebf7"/></linearGradient><linearGradient id="linear-gradient-2" x1="72.21" y1="56.63" x2="102.11" y2="56.63" gradientTransform="translate(39.99 -35.99) rotate(30)" gradientUnits="userSpaceOnUse"><stop offset="0" stop-color="#f4f9fd"/><stop offset="0.21" stop-color="#e6f1fa"/><stop offset="0.85" stop-color="#b2d2f1"/><stop offset="1" stop-color="#a5cbef"/></linearGradient><linearGradient id="linear-gradient-3" x1="70.26" y1="57.12" x2="100.16" y2="57.12" gradientTransform="translate(39.98 -34.95) rotate(30)" gradientUnits="userSpaceOnUse"><stop offset="0" stop-color="#fff"/><stop offset="0.24" stop-color="#eff8fe"/><stop offset="0.72" stop-color="#c4e5fc"/><stop offset="1" stop-color="#a8d9fb"/></linearGradient><linearGradient id="linear-gradient-4" x1="257.84" y1="55.87" x2="294.1" y2="55.87" gradientTransform="translate(-227.15)" gradientUnits="userSpaceOnUse"><stop offset="0" stop-color="#4a65a3"/><stop offset="0.4" stop-color="#445c95"/><stop offset="1" stop-color="#3c5185"/></linearGradient><linearGradient id="linear-gradient-5" x1="65.06" y1="79.93" x2="30.84" y2="32.1" gradientTransform="matrix(1, 0, 0, 1, 0, 0)" xlink:href="#linear-gradient-4"/><linearGradient id="linear-gradient-6" x1="43.08" y1="55.87" x2="54.55" y2="55.87" gradientUnits="userSpaceOnUse"><stop offset="0.15" stop-color="#ff9800"/><stop offset="1" stop-color="#ffc107"/></linearGradient><linearGradient id="linear-gradient-7" x1="114.68" y1="55" x2="144.47" y2="55" gradientUnits="userSpaceOnUse"><stop offset="0" stop-color="#3c5185"/><stop offset="0.6" stop-color="#445c95"/><stop offset="1" stop-color="#4a65a3"/></linearGradient><linearGradient id="linear-gradient-8" x1="112.71" y1="55.57" x2="141.88" y2="55.57" gradientTransform="matrix(1, 0, 0, 1, 0, 0)" xlink:href="#linear-gradient-4"/><linearGradient id="linear-gradient-9" x1="115.73" y1="55.89" x2="137.98" y2="55.89" xlink:href="#linear-gradient-6"/><linearGradient id="linear-gradient-10" x1="349.84" y1="104.06" x2="386.1" y2="104.06" gradientTransform="translate(-227.15)" xlink:href="#linear-gradient-2"/><linearGradient id="linear-gradient-11" x1="157.06" y1="128.12" x2="122.84" y2="80.3" gradientUnits="userSpaceOnUse"><stop offset="0" stop-color="#a8d9fb"/><stop offset="0.28" stop-color="#c4e5fc"/><stop offset="0.76" stop-color="#eff8fe"/><stop offset="1" stop-color="#fff"/></linearGradient><linearGradient id="linear-gradient-12" x1="-0.45" y1="96.56" x2="5.2" y2="96.56" gradientTransform="matrix(-1, 0, 0, 1, 136.48, 0)" xlink:href="#linear-gradient-6"/><linearGradient id="linear-gradient-13" x1="122.68" y1="115.13" x2="157.43" y2="115.13" gradientUnits="userSpaceOnUse"><stop offset="0" stop-color="#3c5185"/><stop offset="0.13" stop-color="#41588e"/><stop offset="0.69" stop-color="#5573b1"/><stop offset="1" stop-color="#5d7dbe"/></linearGradient><linearGradient id="linear-gradient-14" x1="64.43" y1="81.89" x2="51.53" y2="64.33" gradientUnits="userSpaceOnUse"><stop offset="0" stop-color="#a5cbef"/><stop offset="0.19" stop-color="#b2d2f1"/><stop offset="1" stop-color="#e6f1fa"/></linearGradient><linearGradient id="linear-gradient-15" x1="130.78" y1="147.68" x2="107.13" y2="114.71" xlink:href="#linear-gradient-14"/><linearGradient id="linear-gradient-16" x1="41.4" y1="94.96" x2="141.97" y2="94.96" xlink:href="#linear-gradient-14"/><linearGradient id="linear-gradient-17" x1="68.38" y1="151.81" x2="53.96" y2="115.52" gradientUnits="userSpaceOnUse"><stop offset="0" stop-color="#ffc107"/><stop offset="0.85" stop-color="#ff9800"/></linearGradient><linearGradient id="linear-gradient-18" x1="68.41" y1="153.31" x2="50.03" y2="118.89" xlink:href="#linear-gradient-6"/><linearGradient id="linear-gradient-19" x1="49.12" y1="22.33" x2="71.82" y2="22.33" gradientTransform="translate(19.27 -27.24) rotate(30)" xlink:href="#linear-gradient-7"/><linearGradient id="linear-gradient-20" x1="47.64" y1="22.7" x2="70.34" y2="22.7" gradientTransform="matrix(1, 0, 0, 1, 0, 0)" xlink:href="#linear-gradient-4"/><linearGradient id="linear-gradient-21" x1="191.08" y1="79.51" x2="194.42" y2="79.51" gradientTransform="matrix(-1, 0, 0, 1, 338.48, 0)" xlink:href="#linear-gradient-4"/><linearGradient id="linear-gradient-22" x1="307.05" y1="72.01" x2="310.39" y2="72.01" gradientTransform="matrix(-1, 0, 0, 1, 338.48, 0)" xlink:href="#linear-gradient-4"/><linearGradient id="linear-gradient-23" x1="228.07" y1="61.07" x2="231.41" y2="61.07" gradientTransform="matrix(-1, 0, 0, 1, 338.48, 0)" xlink:href="#linear-gradient-4"/><linearGradient id="linear-gradient-24" x1="257.63" y1="26.11" x2="260.97" y2="26.11" gradientTransform="matrix(-1, 0, 0, 1, 338.48, 0)" xlink:href="#linear-gradient-4"/><linearGradient id="linear-gradient-25" x1="183.42" y1="70.82" x2="188.78" y2="70.82" gradientTransform="matrix(-1, 0, 0, 1, 338.48, 0)" xlink:href="#linear-gradient-4"/><linearGradient id="linear-gradient-26" x1="213.12" y1="26.11" x2="218.48" y2="26.11" gradientTransform="matrix(-1, 0, 0, 1, 338.48, 0)" xlink:href="#linear-gradient-4"/><linearGradient id="linear-gradient-27" x1="313.97" y1="48.63" x2="319.34" y2="48.63" gradientTransform="matrix(-1, 0, 0, 1, 338.48, 0)" xlink:href="#linear-gradient-4"/><linearGradient id="linear-gradient-28" x1="322.44" y1="68.74" x2="327.81" y2="68.74" gradientTransform="matrix(-1, 0, 0, 1, 338.48, 0)" xlink:href="#linear-gradient-4"/><linearGradient id="linear-gradient-29" x1="235.25" y1="43.55" x2="240.61" y2="43.55" gradientTransform="matrix(-1, 0, 0, 1, 338.48, 0)" xlink:href="#linear-gradient-4"/><linearGradient id="linear-gradient-30" x1="174.15" y1="87.47" x2="181.06" y2="87.47" gradientTransform="matrix(-1, 0, 0, 1, 338.48, 0)" xlink:href="#linear-gradient-4"/><linearGradient id="linear-gradient-31" x1="80.14" y1="10.22" x2="110.01" y2="28.16" gradientUnits="userSpaceOnUse"><stop offset="0" stop-color="#4a65a3"/><stop offset="0.36" stop-color="#48629e"/><stop offset="0.78" stop-color="#41588f"/><stop offset="1" stop-color="#3c5185"/></linearGradient><linearGradient id="linear-gradient-32" x1="80.29" y1="9.97" x2="110.16" y2="27.92" gradientUnits="userSpaceOnUse"><stop offset="0" stop-color="#3c5185"/><stop offset="0.22" stop-color="#41588f"/><stop offset="0.64" stop-color="#48629e"/><stop offset="1" stop-color="#4a65a3"/></linearGradient></defs><title>secure-cloud122</title><g id="Layer_2" data-name="Layer 2"><g id="Cloud_Storage" data-name="Cloud Storage"><path class="cls-1" d="M166.21,91.27c0,42.44-41.91,72.35-84.36,72.35S0,133.71,0,91.27,40.41,9.41,82.85,9.41,166.21,48.82,166.21,91.27Z"/><g class="cls-2"><polygon class="cls-3" points="31.14 100.65 11.05 112.03 99.72 164.39 119.81 151.85 31.14 100.65"/><polygon class="cls-4" points="31.14 100.65 11.43 111.81 100.08 164.16 119.81 151.85 31.14 100.65"/><polygon class="cls-5" points="31.14 100.65 11.82 111.6 100.45 163.94 119.81 151.85 31.14 100.65"/><polygon class="cls-6" points="31.14 100.65 12.2 111.38 100.81 163.72 119.81 151.85 31.14 100.65"/><polygon class="cls-7" points="31.14 100.65 12.59 111.16 101.17 163.49 119.81 151.85 31.14 100.65"/><polygon class="cls-8" points="31.14 100.65 12.97 110.94 101.53 163.27 119.81 151.85 31.14 100.65"/><polygon class="cls-9" points="31.14 100.65 13.36 110.72 101.89 163.05 119.81 151.85 31.14 100.65"/><polygon class="cls-10" points="31.14 100.65 13.74 110.5 102.26 162.82 119.81 151.85 31.14 100.65"/><polygon class="cls-11" points="31.14 100.65 14.13 110.28 102.62 162.6 119.81 151.85 31.14 100.65"/><polygon class="cls-12" points="31.14 100.65 14.51 110.07 102.98 162.38 119.81 151.85 31.14 100.65"/><polygon class="cls-13" points="31.14 100.65 14.9 109.85 103.34 162.16 119.81 151.85 31.14 100.65"/><polygon class="cls-14" points="31.14 100.65 15.28 109.63 103.7 161.93 119.81 151.85 31.14 100.65"/><polygon class="cls-15" points="31.14 100.65 15.67 109.41 104.07 161.71 119.81 151.85 31.14 100.65"/><polygon class="cls-16" points="31.14 100.65 16.05 109.19 104.43 161.49 119.81 151.85 31.14 100.65"/><polygon class="cls-17" points="31.14 100.65 16.44 108.97 104.79 161.26 119.81 151.85 31.14 100.65"/><polygon class="cls-18" points="31.14 100.65 16.82 108.75 105.15 161.04 119.81 151.85 31.14 100.65"/><polygon class="cls-19" points="31.14 100.65 17.21 108.53 105.51 160.82 119.81 151.85 31.14 100.65"/><polygon class="cls-20" points="31.14 100.65 17.59 108.32 105.88 160.59 119.81 151.85 31.14 100.65"/><polygon class="cls-21" points="31.14 100.65 17.98 108.1 106.24 160.37 119.81 151.85 31.14 100.65"/><polygon class="cls-22" points="31.14 100.65 18.36 107.88 106.6 160.15 119.81 151.85 31.14 100.65"/><polygon class="cls-23" points="31.14 100.65 18.75 107.66 106.96 159.93 119.81 151.85 31.14 100.65"/><polygon class="cls-24" points="31.14 100.65 19.13 107.44 107.32 159.7 119.81 151.85 31.14 100.65"/><polygon class="cls-25" points="31.14 100.65 19.52 107.22 107.69 159.48 119.81 151.85 31.14 100.65"/><polygon class="cls-26" points="31.14 100.65 19.9 107 108.05 159.26 119.81 151.85 31.14 100.65"/><polygon class="cls-27" points="31.14 100.65 20.29 106.79 108.41 159.03 119.81 151.85 31.14 100.65"/><polygon class="cls-28" points="31.14 100.65 20.67 106.57 108.77 158.81 119.81 151.85 31.14 100.65"/><polygon class="cls-29" points="31.14 100.65 21.06 106.35 109.13 158.59 119.81 151.85 31.14 100.65"/><polygon class="cls-30" points="31.14 100.65 21.44 106.13 109.49 158.36 119.81 151.85 31.14 100.65"/><polygon class="cls-31" points="31.14 100.65 21.83 105.91 109.86 158.14 119.81 151.85 31.14 100.65"/><polygon class="cls-32" points="31.14 100.65 22.21 105.69 110.22 157.92 119.81 151.85 31.14 100.65"/><polygon class="cls-33" points="31.14 100.65 22.6 105.47 110.58 157.69 119.81 151.85 31.14 100.65"/><polygon class="cls-34" points="31.14 100.65 22.98 105.25 110.94 157.47 119.81 151.85 31.14 100.65"/><polygon class="cls-35" points="31.14 100.65 23.37 105.04 111.3 157.25 119.81 151.85 31.14 100.65"/><polygon class="cls-36" points="31.14 100.65 23.75 104.82 111.67 157.03 119.81 151.85 31.14 100.65"/><polygon class="cls-37" points="31.14 100.65 24.14 104.6 112.03 156.8 119.81 151.85 31.14 100.65"/><polygon class="cls-38" points="31.14 100.65 24.52 104.38 112.39 156.58 119.81 151.85 31.14 100.65"/><polygon class="cls-39" points="31.14 100.65 24.91 104.16 112.75 156.35 119.81 151.85 31.14 100.65"/><polygon class="cls-40" points="31.14 100.65 25.29 103.94 113.11 156.13 119.81 151.85 31.14 100.65"/><polygon class="cls-41" points="31.14 100.65 25.68 103.72 113.47 155.91 119.81 151.85 31.14 100.65"/><polygon class="cls-42" points="31.14 100.65 26.06 103.5 113.84 155.69 119.81 151.85 31.14 100.65"/><polygon class="cls-43" points="31.14 100.65 26.45 103.29 114.2 155.46 119.81 151.85 31.14 100.65"/><polygon class="cls-44" points="31.14 100.65 26.83 103.07 114.56 155.24 119.81 151.85 31.14 100.65"/></g><ellipse class="cls-45" cx="87.16" cy="56.63" rx="12.21" ry="21.14" transform="translate(-16.64 51.17) rotate(-30)"/><ellipse class="cls-46" cx="85.21" cy="57.12" rx="12.21" ry="21.14" transform="translate(-17.14 50.26) rotate(-30)"/><path class="cls-44" d="M81.81,45.57v13.3a5,5,0,0,0-2-1.72c-1.48-.66-2.54.24-2.37,2a5.89,5.89,0,0,0,3,4.4c1.46.65,2.5-.21,2.38-1.92V49.83L88.71,54v9.82a5.15,5.15,0,0,0-2-1.75c-1.49-.65-2.55.25-2.37,2a5.86,5.86,0,0,0,3,4.4c1.41.62,2.43-.16,2.38-1.76,0,0,0,0,0-.07V51.3Z"/><path class="cls-47" d="M31.2,32.71l-.13.18a1.94,1.94,0,0,0-.38,1.16V58.7a3.62,3.62,0,0,0,1.64,2.84L63.74,79.62a2.13,2.13,0,0,0,1.4.25h.06a2.07,2.07,0,0,0,1.74-2v-25A3.61,3.61,0,0,0,65.3,50L34,32.12A2.14,2.14,0,0,0,31.2,32.71Z"/><path class="cls-48" d="M32.33,32.94c-.9-.52-1.64-.09-1.64,1V58.57a3.62,3.62,0,0,0,1.64,2.84L63.79,79.57c.9.52,1.64.1,1.64-.94V53.76a3.63,3.63,0,0,0-1.65-2.84Z"/><path class="cls-49" d="M53.81,61.54l-8.52.88c-1,.1-2.21-1.2-2.21-2.33V50.25c0-1.14,1.23-1.27,2.21-.23l8.52,9c1,1,1,2.46,0,2.56l-8.52.88c-1,.1-2.21-1.2-2.21-2.33V50.25c0-1.14,1.23-1.27,2.21-.23l8.52,9C54.8,60,54.8,61.44,53.81,61.54Z"/><path class="cls-50" d="M144.47,63.44c0-9.46-6.7-21.08-14.9-25.81-3.81-2.2-7.29-2.53-9.93-1.32h0a6.7,6.7,0,0,0-1.07.61l-2.42,1.38.36.77a13,13,0,0,0-1.81,7.16,30.19,30.19,0,0,0,4.12,14.22v6.92a.94.94,0,0,0,1,1h5A24.7,24.7,0,0,0,129.57,72a15.12,15.12,0,0,0,5,1.88l.06.47,2-.34a7.84,7.84,0,0,0,2-.35h0C142.17,72.6,144.47,69,144.47,63.44Z"/><path class="cls-51" d="M127.29,38.72c-8-4.63-14.58-.84-14.58,8.42a29.65,29.65,0,0,0,4,13.93v6.78a.93.93,0,0,0,.93.93h4.91a24.34,24.34,0,0,0,4.71,3.63c8,4.63,14.59.84,14.59-8.42S135.32,43.35,127.29,38.72Z"/><path class="cls-52" d="M126.85,42.54c-6.12-3.68-11.12-.67-11.12,6.68s5,16.36,11.12,20S138,69.92,138,62.57,133,46.21,126.85,42.54Z"/><path class="cls-44" d="M120.32,51.86c-.74-.42-1.34-.07-1.34.78A3,3,0,0,0,120.32,55c.74.43,1.35.08,1.35-.77A3,3,0,0,0,120.32,51.86Z"/><path class="cls-44" d="M126.56,55.33c-.74-.43-1.35-.08-1.35.77a3,3,0,0,0,1.35,2.33c.73.43,1.34.08,1.34-.78A3,3,0,0,0,126.56,55.33Z"/><path class="cls-44" d="M133,58.79c-.73-.42-1.34-.07-1.34.78A3,3,0,0,0,133,61.89c.74.43,1.35.08,1.35-.77A3,3,0,0,0,133,58.79Z"/><path class="cls-53" d="M123.2,80.91l-.13.18a1.93,1.93,0,0,0-.39,1.16v24.64a3.64,3.64,0,0,0,1.64,2.84l31.42,18.09a2.1,2.1,0,0,0,1.39.25h.07a2.08,2.08,0,0,0,1.74-2V101a3.64,3.64,0,0,0-1.64-2.84L126,80.31A2.14,2.14,0,0,0,123.2,80.91Z"/><path class="cls-54" d="M124.33,81.13c-.91-.51-1.65-.08-1.65,1v24.67a3.66,3.66,0,0,0,1.64,2.85l31.47,18.16c.9.52,1.64.09,1.64-1V102a3.61,3.61,0,0,0-1.65-2.84Z"/><path class="cls-55" d="M134.11,93.26c-1.56-.89-2.83-.18-2.83,1.58a6.55,6.55,0,0,0,2.83,5c1.55,1,2.82.25,2.82-1.58A6.35,6.35,0,0,0,134.11,93.26Z"/><path class="cls-56" d="M150.64,104.45l-7.75,5.72-3.21-6.11-7.7,3.25-9.3-5v4.49a3.66,3.66,0,0,0,1.64,2.85l31.47,18.16c.9.52,1.64.09,1.64-1V116.43Z"/><polygon class="cls-57" points="150.67 104.51 150.67 112.18 148.75 109.53 146.1 111.38 146.1 110.67 142.89 110.17 150.64 104.45 150.67 104.51"/><polygon class="cls-57" points="139.68 104.06 139.68 105.92 138.07 105.92 137.75 107.31 136.93 106.32 131.97 107.31 139.68 104.06"/><path class="cls-57" d="M124.32,109.73l20.58,11.84c-2.53-7.49-7.87-14.77-14-18.33-.44-.25-.87-.47-1.3-.67l-.22-.12c0-.61.08-1.23.08-1.88A47,47,0,0,0,124.82,80a2.11,2.11,0,0,0-1.62.87l-.13.18a.05.05,0,0,0,0,0,1.19,1.19,0,0,0-.37,1v24.8A3.64,3.64,0,0,0,124.32,109.73Z"/><path class="cls-57" d="M66.94,77.81v-21a28.08,28.08,0,0,0-20.65,5.46l-4.42,3.35a.11.11,0,0,0,0,.08,10.07,10.07,0,0,0-1.67.33L63.74,79.62a2.13,2.13,0,0,0,1.4.25h.06A2.07,2.07,0,0,0,66.94,77.81Zm-5-1.1-.25.14h0l.25-.14Z"/><path class="cls-57" d="M85.6,63c-.49.35-1,.72-1.45,1.09a12.82,12.82,0,0,0-1.05-1.06A27,27,0,0,0,71.82,57a36.38,36.38,0,0,0,6.06,10.9s4.67,4.95,7.33,6.48c3.68,2.13,7.05,2.51,9.66,1.46,4.33-.54,7.24-4.33,7.24-10.57a24.64,24.64,0,0,0-.84-6.14,20.6,20.6,0,0,0-5.58-.78C92.11,58.35,89.35,60.38,85.6,63Z"/><path class="cls-58" d="M83.79,69.22l0,0h0S83.78,69.23,83.79,69.22Z"/><path class="cls-59" d="M82.6,68.06a27.77,27.77,0,0,0-35.31-1.27l-4.42,3.35c-.74.67,9.61,4.76,9.72,5.8A8.86,8.86,0,0,0,41.4,84.48h0a15.92,15.92,0,0,0,2.08,7.87L83.76,69.24A13.76,13.76,0,0,0,82.6,68.06Z"/><path class="cls-60" d="M141.81,129.74c-1-9.36-7.58-20-15.44-24.5-.44-.25-.87-.47-1.3-.67l-38.35,22,33.47,25.35s14.15-7.66,17.11-9.54a6.71,6.71,0,0,0,.71-.47h0a7.94,7.94,0,0,0,1.52-1.44,9.89,9.89,0,0,0,2.43-6.54v-4.08Z"/><path class="cls-61" d="M124.85,104.45c0-.61.08-1.23.08-1.88,0-13.93-5.79-26.43-14.93-33.6-4.6-3.61-9.56-5.62-14.81-5.62-3.58,0-6.34,2-10.09,4.68-1,.74-2,1.6-3.14,2.24L43.48,92.35a16,16,0,0,0,5.87,5.91l37.37,28.31,38.35-22Z"/><path class="cls-62" d="M122.46,141.21c-1-9.37-7.58-20-15.44-24.5-.52-.3-1-.56-1.52-.79,0-.62.08-1.23.08-1.88,0-13.94-9.87-31-21.94-38-9.71-5.61-18-3-20.86,5.48A36.48,36.48,0,0,0,53,72.84c-11-6.32-19.92-1.15-19.92,11.51a28.82,28.82,0,0,0,.18,3.05A8.86,8.86,0,0,0,22.05,96h0a15.9,15.9,0,0,0,8,13.77l77.59,44.38a9.94,9.94,0,0,0,10.36-.25c.25-.14.48-.31.71-.47h0a8.32,8.32,0,0,0,1.52-1.45,9.88,9.88,0,0,0,2.43-6.54v-4.07Z"/><path class="cls-63" d="M77,136.61v-9.19a6.64,6.64,0,0,0-3-5.21l-2.92-1.65v-5.12c0-7.43-1.64-12.15-4.87-14a4.93,4.93,0,0,0-5-.14c-1.24.71-3.32,2.7-3.32,8V114a7.44,7.44,0,0,0-6,2.44,2.26,2.26,0,0,0-.58,1.51v4Zm-16.4-27.36c0-2.77.72-4.85,1.93-5.55a2.23,2.23,0,0,1,2.24.14c2.25,1.3,3.48,5.42,3.48,11.6V119L61,114.89c-.13-.07-.27-.11-.4-.18Z"/><path class="cls-64" d="M48.82,118.41h0A7.44,7.44,0,0,1,58,116.89l13,7.32a6.64,6.64,0,0,1,3,5.21v17.13a5.35,5.35,0,0,1-5.68,5.34l-.57,0a3.11,3.11,0,0,1-1.3-.38L51.28,142.9a6.62,6.62,0,0,1-3-5.2V119.92A2.26,2.26,0,0,1,48.82,118.41Z"/><path class="cls-65" d="M48.24,120.74c0-1.92,1.37-2.72,3-1.77l14.81,8.38a6.64,6.64,0,0,1,3,5.21v16.9c0,1.91-1.37,2.71-3,1.77l-14.81-8.39a6.61,6.61,0,0,1-3-5.2Z"/><path class="cls-44" d="M58.68,128.82c-1.74-1-3.16-.21-3.16,1.77a7.37,7.37,0,0,0,3.16,5.58c1.75,1.08,3.17.28,3.17-1.78A7.08,7.08,0,0,0,58.68,128.82Z"/><path class="cls-44" d="M68.05,125.12v-7.68c0-7.43-1.64-12.15-4.87-14a4.93,4.93,0,0,0-5-.14c-1.24.71-3.32,2.7-3.32,8v7.54h0a.7.7,0,0,0,.39.53,2.18,2.18,0,0,0,1.93,0,.7.7,0,0,0,.39-.53h0v-7.54c0-2.77.72-4.85,1.93-5.55a2.23,2.23,0,0,1,2.24.14c2.25,1.3,3.48,5.42,3.48,11.6v7.66a.67.67,0,0,0,.41.6,2.2,2.2,0,0,0,2,0A.69.69,0,0,0,68.05,125.12Z"/><polygon class="cls-44" points="56.77 130.77 56.77 139.6 60.6 141.81 60.6 132.98 56.77 130.77"/><path class="cls-44" d="M49.9,147.27a3.64,3.64,0,0,1-.57,0,.69.69,0,0,1-.61-.77.71.71,0,0,1,.78-.62,3.07,3.07,0,0,0,.91,0,2.46,2.46,0,0,0,.76-.27,2.31,2.31,0,0,0,.62-.51,3.19,3.19,0,0,0,.5-.77,4.7,4.7,0,0,0,.34-1.06,7.21,7.21,0,0,0,.12-1.35,9.24,9.24,0,0,0-.13-1.54,12,12,0,0,0-.36-1.59.7.7,0,0,1,1.34-.4,14.92,14.92,0,0,1,.4,1.77,10.73,10.73,0,0,1,.15,1.76,8.23,8.23,0,0,1-.15,1.61,6.2,6.2,0,0,1-.44,1.38,4.39,4.39,0,0,1-.72,1.12,4,4,0,0,1-1,.8,4.1,4.1,0,0,1-2,.49Zm-5.61-3.19a.71.71,0,0,1-.52-.23,16.83,16.83,0,0,1-1.17-1.45,18.69,18.69,0,0,1-1-1.59q-.46-.83-.84-1.68a.7.7,0,0,1,1.29-.56,14.88,14.88,0,0,0,.77,1.55,17.26,17.26,0,0,0,.94,1.46,12.7,12.7,0,0,0,1.07,1.33.7.7,0,0,1-.05,1A.71.71,0,0,1,44.29,144.08Zm-3.52-6.18a.69.69,0,0,1-.66-.5,12.84,12.84,0,0,1-.41-1.74,10,10,0,0,1-.14-1.7,7.91,7.91,0,0,1,.14-1.57,6,6,0,0,1,.44-1.34,4.48,4.48,0,0,1,.73-1.1,3.71,3.71,0,0,1,1-.78,3.93,3.93,0,0,1,1.19-.43,4.73,4.73,0,0,1,1.31-.06,6.53,6.53,0,0,1,1.4.31,8.53,8.53,0,0,1,1.45.67,10.7,10.7,0,0,1,1.42,1,14.86,14.86,0,0,1,1.31,1.23.71.71,0,0,1,0,1,.69.69,0,0,1-1,0,13.3,13.3,0,0,0-1.17-1.1,8.82,8.82,0,0,0-1.23-.86,6.71,6.71,0,0,0-1.2-.55,4.94,4.94,0,0,0-1.08-.25,4,4,0,0,0-.92,0,3,3,0,0,0-.77.28,2.52,2.52,0,0,0-.63.51,2.86,2.86,0,0,0-.49.75,4.21,4.21,0,0,0-.34,1A6.5,6.5,0,0,0,41,134a9.67,9.67,0,0,0,.13,1.48,11.51,11.51,0,0,0,.36,1.55.7.7,0,0,1-.46.88Z"/><path class="cls-44" d="M36,157.92a5.32,5.32,0,0,1-.69,0,7.24,7.24,0,0,1-1.69-.43,10.4,10.4,0,0,1-1.77-.88,14.07,14.07,0,0,1-1.72-1.27,18,18,0,0,1-1.6-1.56A19.52,19.52,0,0,1,27.11,152a.7.7,0,1,1,1.13-.82,17,17,0,0,0,1.34,1.66,15.28,15.28,0,0,0,1.47,1.44,13.06,13.06,0,0,0,1.55,1.14,9.46,9.46,0,0,0,1.52.77,6.09,6.09,0,0,0,1.37.34,4.21,4.21,0,0,0,1.18,0,3.33,3.33,0,0,0,1-.35,3.26,3.26,0,0,0,.82-.67,4,4,0,0,0,.64-1,5.78,5.78,0,0,0,.43-1.35,9,9,0,0,0,.15-1.7,11.75,11.75,0,0,0-.16-1.92,15,15,0,0,0-.45-2,19.08,19.08,0,0,0-.73-2,19.5,19.5,0,0,0-1-1.94c-.36-.63-.75-1.24-1.16-1.82a19.71,19.71,0,0,0-1.34-1.63.7.7,0,0,1,1-.95c.5.55,1,1.14,1.44,1.76a21.59,21.59,0,0,1,1.25,2,21,21,0,0,1,1,2.07,19.91,19.91,0,0,1,.79,2.15,17.87,17.87,0,0,1,.49,2.18,13.24,13.24,0,0,1,.18,2.14,10.23,10.23,0,0,1-.18,2,7.43,7.43,0,0,1-.53,1.67,5.25,5.25,0,0,1-.87,1.34,4.52,4.52,0,0,1-1.18,1,4.68,4.68,0,0,1-1.43.5A4.43,4.43,0,0,1,36,157.92Zm-10.54-9.55a.71.71,0,0,1-.65-.43,21.67,21.67,0,0,1-.78-2.12.7.7,0,0,1,1.34-.4,18.19,18.19,0,0,0,.73,2,.71.71,0,0,1-.36.92A.74.74,0,0,1,25.47,148.37Zm-.76-9.29a.82.82,0,0,1-.3-.07.7.7,0,0,1-.33-.93,5.07,5.07,0,0,1,.87-1.31,4.57,4.57,0,0,1,1.17-.94,4.65,4.65,0,0,1,1.42-.52,5.6,5.6,0,0,1,1.59-.07.71.71,0,0,1,.63.77.7.7,0,0,1-.76.63,4.25,4.25,0,0,0-1.19,0,3.33,3.33,0,0,0-1,.37,3.46,3.46,0,0,0-.83.65,4.25,4.25,0,0,0-.64,1A.7.7,0,0,1,24.71,139.08Z"/><ellipse class="cls-66" cx="60.47" cy="22.33" rx="9.27" ry="16.05" transform="translate(-3.06 33.23) rotate(-30)"/><path class="cls-67" d="M59,9.6C52.75,6,47.64,8.94,47.64,16.15S52.75,32.2,59,35.8s11.35.66,11.35-6.55S65.24,13.2,59,9.6Z"/><path class="cls-62" d="M62.38,27.19c.25.14.47,0,.66-.32a3.29,3.29,0,0,0,.29-1.58,9.4,9.4,0,0,0-1.13-4.42,7.87,7.87,0,0,0-3-3.22,3,3,0,0,0-3.2-.26,3.29,3.29,0,0,0-1.3,3,8.77,8.77,0,0,0,1.22,4.34,8.32,8.32,0,0,0,3,3.18,2.46,2.46,0,0,0,2.48.22L62,29.62a2.45,2.45,0,0,1-1.43.1,5,5,0,0,1-1.63-.58,10.68,10.68,0,0,1-3.91-4,10.73,10.73,0,0,1-1.57-5.4c0-1.81.55-3,1.66-3.68s2.43-.52,4,.36A10.5,10.5,0,0,1,63,20.46a11,11,0,0,1,1.57,5.48,3.75,3.75,0,0,1-.64,2.48,1.21,1.21,0,0,1-1.67.13,3.14,3.14,0,0,1-1-.93,3.85,3.85,0,0,1-.61-1.28,1.53,1.53,0,0,1-1.95,0,5.71,5.71,0,0,1-2.05-2.2,6.24,6.24,0,0,1-.87-3.12,2.73,2.73,0,0,1,.79-2.24c.52-.42,1.21-.39,2.07.1a3.24,3.24,0,0,1,.83.69,4.19,4.19,0,0,1,.55.74l.19.32V20L62,21v5.15Q62,27,62.38,27.19Zm-2.15-3.67A3.4,3.4,0,0,0,59.86,22a2.48,2.48,0,0,0-1-1.09c-.4-.22-.72-.23-1,0A1.45,1.45,0,0,0,57.58,22a3.69,3.69,0,0,0,.35,1.57,2.41,2.41,0,0,0,1,1.14c.41.23.74.23,1,0A1.56,1.56,0,0,0,60.23,23.52Z"/><path class="cls-68" d="M145.58,81.35a3.3,3.3,0,0,1-1.52-2.62,1.13,1.13,0,0,1,1.83-1,3.29,3.29,0,0,1,1.52,2.62,1.25,1.25,0,0,1-.56,1.14,1,1,0,0,1-.51.14A1.55,1.55,0,0,1,145.58,81.35Zm-.31-2.64a.39.39,0,0,0-.14.35,1.55,1.55,0,0,0,.69,1.2.4.4,0,0,0,.38.06.41.41,0,0,0,.14-.36,1.58,1.58,0,0,0-.69-1.2.63.63,0,0,0-.26-.08A.21.21,0,0,0,145.27,78.71Z"/><path class="cls-69" d="M29.6,73.84a3.3,3.3,0,0,1-1.51-2.61,1.25,1.25,0,0,1,.56-1.15,1.23,1.23,0,0,1,1.27.09,3.29,3.29,0,0,1,1.51,2.62,1.26,1.26,0,0,1-.56,1.15,1,1,0,0,1-.51.13A1.47,1.47,0,0,1,29.6,73.84Zm-.3-2.63a.39.39,0,0,0-.14.35,1.55,1.55,0,0,0,.69,1.2.4.4,0,0,0,.37,0,.39.39,0,0,0,.15-.35,1.53,1.53,0,0,0-.7-1.2.46.46,0,0,0-.26-.08A.2.2,0,0,0,29.3,71.21Z"/><path class="cls-70" d="M108.59,62.91a3.3,3.3,0,0,1-1.52-2.62,1.26,1.26,0,0,1,.56-1.15,1.27,1.27,0,0,1,1.27.09,3.27,3.27,0,0,1,1.51,2.62,1.24,1.24,0,0,1-.55,1.15,1,1,0,0,1-.51.14A1.55,1.55,0,0,1,108.59,62.91Zm-.31-2.64a.39.39,0,0,0-.14.35,1.58,1.58,0,0,0,.69,1.2.42.42,0,0,0,.38,0,.39.39,0,0,0,.14-.35,1.58,1.58,0,0,0-.69-1.2.63.63,0,0,0-.26-.08A.21.21,0,0,0,108.28,60.27Z"/><path class="cls-71" d="M79,28a3.3,3.3,0,0,1-1.52-2.62,1.25,1.25,0,0,1,.56-1.15,1.23,1.23,0,0,1,1.27.09,3.27,3.27,0,0,1,1.51,2.62A1.24,1.24,0,0,1,80.3,28a1,1,0,0,1-.51.13A1.53,1.53,0,0,1,79,28Zm-.31-2.64a.39.39,0,0,0-.14.35,1.58,1.58,0,0,0,.69,1.2.42.42,0,0,0,.38.05.39.39,0,0,0,.14-.35,1.58,1.58,0,0,0-.69-1.2.63.63,0,0,0-.26-.08A.21.21,0,0,0,78.72,25.31Z"/><path class="cls-72" d="M152.13,73.77a5.3,5.3,0,0,1-2.43-4.21,1.82,1.82,0,0,1,2.94-1.69,5.29,5.29,0,0,1,2.43,4.21,2,2,0,0,1-.9,1.84,1.64,1.64,0,0,1-.82.21A2.5,2.5,0,0,1,152.13,73.77Zm-.49-4.24a.63.63,0,0,0-.22.56A2.51,2.51,0,0,0,152.53,72a.63.63,0,0,0,.6.09.64.64,0,0,0,.23-.57,2.47,2.47,0,0,0-1.12-1.92.81.81,0,0,0-.41-.13A.38.38,0,0,0,151.64,69.53Z"/><path class="cls-73" d="M122.43,29.06A5.32,5.32,0,0,1,120,24.85a1.82,1.82,0,0,1,2.94-1.69,5.29,5.29,0,0,1,2.43,4.21,2,2,0,0,1-.9,1.84,1.67,1.67,0,0,1-.82.21A2.5,2.5,0,0,1,122.43,29.06Zm-.49-4.24a.63.63,0,0,0-.23.56,2.49,2.49,0,0,0,1.12,1.93.63.63,0,0,0,.6.09.68.68,0,0,0,.23-.57,2.51,2.51,0,0,0-1.12-1.93.92.92,0,0,0-.41-.13A.38.38,0,0,0,121.94,24.82Z"/><path class="cls-74" d="M21.57,51.58a5.28,5.28,0,0,1-2.43-4.2,1.83,1.83,0,0,1,2.94-1.7,5.32,5.32,0,0,1,2.43,4.21,2,2,0,0,1-.9,1.84,1.55,1.55,0,0,1-.82.22A2.41,2.41,0,0,1,21.57,51.58Zm-.49-4.23a.62.62,0,0,0-.22.56A2.51,2.51,0,0,0,22,49.84a.62.62,0,0,0,.6.08.63.63,0,0,0,.23-.56,2.49,2.49,0,0,0-1.12-1.93.81.81,0,0,0-.41-.13A.38.38,0,0,0,21.08,47.35Z"/><path class="cls-75" d="M13.1,71.69a5.28,5.28,0,0,1-2.43-4.2,2,2,0,0,1,.89-1.84,2,2,0,0,1,2,.14A5.3,5.3,0,0,1,16,70a2,2,0,0,1-.9,1.84,1.55,1.55,0,0,1-.82.22A2.41,2.41,0,0,1,13.1,71.69Zm-.49-4.23a.62.62,0,0,0-.22.56A2.53,2.53,0,0,0,13.5,70a.62.62,0,0,0,.6.08.63.63,0,0,0,.23-.56,2.49,2.49,0,0,0-1.12-1.93.81.81,0,0,0-.41-.13A.3.3,0,0,0,12.61,67.46Z"/><path class="cls-76" d="M100.3,46.5a5.28,5.28,0,0,1-2.43-4.2,2,2,0,0,1,.89-1.84,2,2,0,0,1,2,.14,5.25,5.25,0,0,1,2.43,4.21,2,2,0,0,1-.89,1.84,1.58,1.58,0,0,1-.82.22A2.39,2.39,0,0,1,100.3,46.5Zm-.49-4.23a.6.6,0,0,0-.23.56,2.51,2.51,0,0,0,1.11,1.93.64.64,0,0,0,.61.08.63.63,0,0,0,.22-.56,2.45,2.45,0,0,0-1.11-1.93.81.81,0,0,0-.41-.13A.29.29,0,0,0,99.81,42.27Z"/><path class="cls-77" d="M160.55,91.26a6.81,6.81,0,0,1-3.12-5.41,2.34,2.34,0,0,1,3.77-2.18,6.77,6.77,0,0,1,3.13,5.42,2.58,2.58,0,0,1-1.15,2.37,2.14,2.14,0,0,1-1.06.27A3.11,3.11,0,0,1,160.55,91.26Zm-.63-5.45a.82.82,0,0,0-.29.72A3.25,3.25,0,0,0,161.06,89a.86.86,0,0,0,.78.11.84.84,0,0,0,.29-.73,3.2,3.2,0,0,0-1.43-2.48,1.16,1.16,0,0,0-.54-.17A.48.48,0,0,0,159.92,85.81Z"/><path class="cls-78" d="M80.08.1c-.39-.23-.7,0-.7.4V19.72a1.6,1.6,0,0,0,.7,1.22l28.68,16.55c.38.22.7,0,.7-.41V17.87a1.57,1.57,0,0,0-.7-1.22Z"/><path class="cls-79" d="M108.76,16.65,80.08.1c-.38-.23-.7,0-.7.4V.69l28.45,16.42a1.56,1.56,0,0,1,.7,1.22v19l.23.13c.38.22.7,0,.7-.41V17.87A1.57,1.57,0,0,0,108.76,16.65Z"/><polygon class="cls-62" points="87.8 11.49 107.11 22.91 107.11 24.14 87.8 12.77 87.8 11.49"/><polygon class="cls-62" points="87.8 15.3 107.11 26.72 107.11 27.94 87.8 16.58 87.8 15.3"/><polygon class="cls-62" points="87.72 19.22 97.66 25.04 97.66 26.27 87.72 20.5 87.72 19.22"/><path class="cls-62" d="M84.81,14a1.52,1.52,0,0,0,.49-1.26,4.62,4.62,0,0,0-2.08-3.6c-1.14-.66-2.07-.12-2.07,1.2a4.57,4.57,0,0,0,1.07,2.72,3.32,3.32,0,0,0-1.91,3v.83l6.19,3.62V18.83A7.78,7.78,0,0,0,84.81,14Z"/></g></g></svg>