<svg xmlns="http://www.w3.org/2000/svg" xmlns:xlink="http://www.w3.org/1999/xlink" viewBox="0 0 166.21 184.55"><defs><style>.cls-1{fill:url(#linear-gradient);}.cls-2{opacity:0.3;}.cls-10,.cls-100,.cls-101,.cls-102,.cls-103,.cls-106,.cls-11,.cls-12,.cls-13,.cls-14,.cls-15,.cls-16,.cls-17,.cls-18,.cls-19,.cls-20,.cls-21,.cls-22,.cls-23,.cls-24,.cls-25,.cls-26,.cls-27,.cls-28,.cls-29,.cls-3,.cls-30,.cls-31,.cls-32,.cls-33,.cls-34,.cls-35,.cls-36,.cls-37,.cls-38,.cls-39,.cls-4,.cls-40,.cls-41,.cls-42,.cls-43,.cls-44,.cls-45,.cls-46,.cls-47,.cls-48,.cls-49,.cls-5,.cls-50,.cls-51,.cls-52,.cls-53,.cls-54,.cls-6,.cls-64,.cls-65,.cls-66,.cls-67,.cls-68,.cls-69,.cls-7,.cls-70,.cls-71,.cls-72,.cls-73,.cls-74,.cls-75,.cls-76,.cls-77,.cls-78,.cls-79,.cls-8,.cls-80,.cls-81,.cls-82,.cls-83,.cls-84,.cls-85,.cls-86,.cls-87,.cls-88,.cls-89,.cls-9,.cls-90,.cls-91,.cls-92,.cls-93,.cls-94,.cls-95,.cls-96,.cls-97,.cls-98,.cls-99{fill:#3c5185;}.cls-3{opacity:0;}.cls-4{opacity:0.02;}.cls-5{opacity:0.04;}.cls-6{opacity:0.06;}.cls-7{opacity:0.08;}.cls-8{opacity:0.1;}.cls-9{opacity:0.12;}.cls-10{opacity:0.14;}.cls-11{opacity:0.16;}.cls-12{opacity:0.18;}.cls-13{opacity:0.2;}.cls-14{opacity:0.22;}.cls-15{opacity:0.24;}.cls-16{opacity:0.25;}.cls-17{opacity:0.27;}.cls-18{opacity:0.29;}.cls-19{opacity:0.31;}.cls-20{opacity:0.33;}.cls-21{opacity:0.35;}.cls-22{opacity:0.37;}.cls-23{opacity:0.39;}.cls-24{opacity:0.41;}.cls-25{opacity:0.43;}.cls-26{opacity:0.45;}.cls-27{opacity:0.47;}.cls-28{opacity:0.49;}.cls-29{opacity:0.51;}.cls-30{opacity:0.53;}.cls-31{opacity:0.55;}.cls-32{opacity:0.57;}.cls-33{opacity:0.59;}.cls-34{opacity:0.61;}.cls-35{opacity:0.63;}.cls-36{opacity:0.65;}.cls-37{opacity:0.67;}.cls-38{opacity:0.69;}.cls-39{opacity:0.71;}.cls-40{opacity:0.73;}.cls-41{opacity:0.75;}.cls-42{opacity:0.76;}.cls-43{opacity:0.78;}.cls-44{opacity:0.8;}.cls-45{opacity:0.82;}.cls-46{opacity:0.84;}.cls-47{opacity:0.86;}.cls-48{opacity:0.88;}.cls-49{opacity:0.9;}.cls-50{opacity:0.92;}.cls-51{opacity:0.94;}.cls-52{opacity:0.96;}.cls-53{opacity:0.98;}.cls-55{fill:#edf3fa;}.cls-56{fill:url(#linear-gradient-2);}.cls-57{fill:#d1e1f2;}.cls-58{fill:#7ea7df;}.cls-59{fill:#4a65a3;}.cls-60{fill:url(#linear-gradient-3);}.cls-61{fill:#ff9800;}.cls-61,.cls-63{opacity:0.1;}.cls-62{fill:#ffad33;}.cls-64{opacity:0.02;}.cls-65{opacity:0.05;}.cls-66{opacity:0.07;}.cls-67{opacity:0.1;}.cls-68{opacity:0.12;}.cls-69{opacity:0.15;}.cls-70{opacity:0.17;}.cls-71{opacity:0.2;}.cls-72{opacity:0.22;}.cls-73{opacity:0.24;}.cls-74{opacity:0.27;}.cls-75{opacity:0.29;}.cls-76{opacity:0.32;}.cls-77{opacity:0.34;}.cls-78{opacity:0.37;}.cls-79{opacity:0.39;}.cls-80{opacity:0.41;}.cls-81{opacity:0.44;}.cls-82{opacity:0.46;}.cls-83{opacity:0.49;}.cls-84{opacity:0.51;}.cls-85{opacity:0.54;}.cls-86{opacity:0.56;}.cls-87{opacity:0.59;}.cls-88{opacity:0.61;}.cls-89{opacity:0.63;}.cls-90{opacity:0.66;}.cls-91{opacity:0.68;}.cls-92{opacity:0.71;}.cls-93{opacity:0.73;}.cls-94{opacity:0.76;}.cls-95{opacity:0.78;}.cls-96{opacity:0.8;}.cls-97{opacity:0.83;}.cls-98{opacity:0.85;}.cls-99{opacity:0.88;}.cls-100{opacity:0.9;}.cls-101{opacity:0.93;}.cls-102{opacity:0.95;}.cls-103{opacity:0.98;}.cls-104{fill:url(#linear-gradient-4);}.cls-105{fill:#fff;}.cls-106{opacity:0.2;}.cls-107{fill:url(#linear-gradient-5);}.cls-108{fill:url(#linear-gradient-6);}.cls-109{fill:url(#linear-gradient-7);}.cls-110{fill:url(#linear-gradient-8);}.cls-111{fill:#d3daed;}.cls-112{fill:url(#linear-gradient-9);}.cls-113{fill:url(#linear-gradient-10);}.cls-114{fill:#f6f9fc;}.cls-115{fill:url(#linear-gradient-11);}.cls-116{fill:url(#linear-gradient-12);}.cls-117{fill:url(#linear-gradient-13);}.cls-118{fill:url(#linear-gradient-14);}.cls-119{fill:#a5cbef;}.cls-120{fill:url(#linear-gradient-15);}.cls-121{fill:url(#linear-gradient-16);}.cls-122{fill:url(#linear-gradient-17);}.cls-123{fill:url(#linear-gradient-18);}.cls-124{fill:#f2b1b5;}.cls-125{fill:#63749d;}.cls-126{fill:url(#linear-gradient-19);}.cls-127{fill:url(#linear-gradient-20);}.cls-128{fill:url(#linear-gradient-21);}.cls-129{fill:url(#linear-gradient-22);}.cls-130{fill:url(#linear-gradient-23);}.cls-131{fill:url(#linear-gradient-24);}.cls-132{fill:#f9b888;}.cls-133{fill:url(#linear-gradient-25);}.cls-134{fill:url(#linear-gradient-26);}.cls-135{fill:url(#linear-gradient-27);}.cls-136{fill:url(#linear-gradient-28);}</style><linearGradient id="linear-gradient" x1="107.07" y1="183.82" x2="54.74" y2="13.16" gradientUnits="userSpaceOnUse"><stop offset="0.12" stop-color="#fff"/><stop offset="1" stop-color="#e1ebf7"/></linearGradient><linearGradient id="linear-gradient-2" x1="126.28" y1="68.33" x2="138.75" y2="68.33" gradientUnits="userSpaceOnUse"><stop offset="0" stop-color="#d1e1f2"/><stop offset="0.19" stop-color="#c8dbf0"/><stop offset="0.51" stop-color="#b0caea"/><stop offset="0.9" stop-color="#89afe2"/><stop offset="1" stop-color="#7ea7df"/></linearGradient><linearGradient id="linear-gradient-3" x1="125.76" y1="53.74" x2="139.27" y2="53.74" gradientUnits="userSpaceOnUse"><stop offset="0.15" stop-color="#ff9800"/><stop offset="1" stop-color="#ffc107"/></linearGradient><linearGradient id="linear-gradient-4" x1="22.9" y1="73.94" x2="100.24" y2="73.94" gradientUnits="userSpaceOnUse"><stop offset="0" stop-color="#a5cbef"/><stop offset="0.21" stop-color="#b2d3f1"/><stop offset="0.6" stop-color="#d5e7f8"/><stop offset="1" stop-color="#fff"/></linearGradient><linearGradient id="linear-gradient-5" x1="76.03" y1="85.04" x2="118.21" y2="44.74" gradientUnits="userSpaceOnUse"><stop offset="0" stop-color="#3c5185"/><stop offset="0.13" stop-color="#41588e"/><stop offset="0.69" stop-color="#5573b1"/><stop offset="1" stop-color="#5d7dbe"/></linearGradient><linearGradient id="linear-gradient-6" x1="74.93" y1="65.67" x2="117.54" y2="65.67" xlink:href="#linear-gradient-4"/><linearGradient id="linear-gradient-7" x1="326.34" y1="100.94" x2="380.02" y2="100.94" gradientTransform="translate(-318.15)" gradientUnits="userSpaceOnUse"><stop offset="0" stop-color="#4a65a3"/><stop offset="0.14" stop-color="#5e7bb4"/><stop offset="0.38" stop-color="#7d9ecd"/><stop offset="0.62" stop-color="#93b7e0"/><stop offset="0.83" stop-color="#a0c6eb"/><stop offset="1" stop-color="#a5cbef"/></linearGradient><linearGradient id="linear-gradient-8" x1="9.97" y1="101.15" x2="64.57" y2="101.15" xlink:href="#linear-gradient-5"/><linearGradient id="linear-gradient-9" x1="331.15" y1="110.56" x2="343.97" y2="110.56" gradientTransform="translate(-318.15)" xlink:href="#linear-gradient-3"/><linearGradient id="linear-gradient-10" x1="602.53" y1="34.15" x2="647.14" y2="34.15" gradientTransform="translate(-529.72)" gradientUnits="userSpaceOnUse"><stop offset="0" stop-color="#a5cbef"/><stop offset="0.28" stop-color="#c1dbf4"/><stop offset="0.76" stop-color="#eef5fc"/><stop offset="1" stop-color="#fff"/></linearGradient><linearGradient id="linear-gradient-11" x1="606.09" y1="42.53" x2="620.19" y2="42.53" gradientTransform="translate(-529.72)" xlink:href="#linear-gradient-3"/><linearGradient id="linear-gradient-12" x1="-526.58" y1="58.86" x2="-490.61" y2="58.86" gradientTransform="matrix(-1, 0, 0, 1, -457.34, 0)" gradientUnits="userSpaceOnUse"><stop offset="0" stop-color="#a5cbef"/><stop offset="0.17" stop-color="#a0c6eb"/><stop offset="0.38" stop-color="#93b7e0"/><stop offset="0.62" stop-color="#7d9ecd"/><stop offset="0.86" stop-color="#5e7bb4"/><stop offset="1" stop-color="#4a65a3"/></linearGradient><linearGradient id="linear-gradient-13" x1="38.95" y1="65.04" x2="46.55" y2="65.04" gradientUnits="userSpaceOnUse"><stop offset="0" stop-color="#4a65a3"/><stop offset="0.44" stop-color="#5471b1"/><stop offset="1" stop-color="#5d7dbe"/></linearGradient><linearGradient id="linear-gradient-14" x1="-590.71" y1="104.13" x2="-559.92" y2="104.13" gradientTransform="matrix(-1, 0, 0, 1, -498.95, 0)" gradientUnits="userSpaceOnUse"><stop offset="0" stop-color="#fff"/><stop offset="0.24" stop-color="#eef5fc"/><stop offset="0.72" stop-color="#c1dbf4"/><stop offset="1" stop-color="#a5cbef"/></linearGradient><linearGradient id="linear-gradient-15" x1="-586.51" y1="93.76" x2="-581.71" y2="93.76" gradientTransform="matrix(-1, 0, 0, 1, -498.95, 0)" xlink:href="#linear-gradient-3"/><linearGradient id="linear-gradient-16" x1="-406.98" y1="73.59" x2="-380.83" y2="73.59" gradientTransform="matrix(-1, 0, 0, 1, -380.64, 0)" gradientUnits="userSpaceOnUse"><stop offset="0" stop-color="#3c5185"/><stop offset="0.24" stop-color="#40568b"/><stop offset="0.57" stop-color="#4a649d"/><stop offset="0.96" stop-color="#5b7abb"/><stop offset="1" stop-color="#5d7dbe"/></linearGradient><linearGradient id="linear-gradient-17" x1="2.47" y1="74.09" x2="28.07" y2="74.09" xlink:href="#linear-gradient-5"/><linearGradient id="linear-gradient-18" x1="-406.05" y1="74.38" x2="-386.53" y2="74.38" gradientTransform="matrix(-1, 0, 0, 1, -380.64, 0)" xlink:href="#linear-gradient-3"/><linearGradient id="linear-gradient-19" x1="113.73" y1="85.5" x2="119.61" y2="85.5" xlink:href="#linear-gradient-3"/><linearGradient id="linear-gradient-20" x1="123.79" y1="113.13" x2="135.76" y2="113.13" gradientUnits="userSpaceOnUse"><stop offset="0" stop-color="#5d7dbe"/><stop offset="0.31" stop-color="#5573b1"/><stop offset="0.87" stop-color="#41588e"/><stop offset="1" stop-color="#3c5185"/></linearGradient><linearGradient id="linear-gradient-21" x1="136.36" y1="103.68" x2="130.2" y2="86.26" xlink:href="#linear-gradient-3"/><linearGradient id="linear-gradient-22" x1="54.51" y1="131.95" x2="58.8" y2="131.95" gradientUnits="userSpaceOnUse"><stop offset="0" stop-color="#fff"/><stop offset="1" stop-color="#a8d9fb"/></linearGradient><linearGradient id="linear-gradient-23" x1="44.59" y1="138.28" x2="56.58" y2="138.28" xlink:href="#linear-gradient-22"/><linearGradient id="linear-gradient-24" x1="44.07" y1="134.68" x2="48.54" y2="134.68" xlink:href="#linear-gradient-22"/><linearGradient id="linear-gradient-25" x1="94.75" y1="156.93" x2="102.46" y2="156.93" xlink:href="#linear-gradient-20"/><linearGradient id="linear-gradient-26" x1="92.45" y1="159.6" x2="101.04" y2="159.6" xlink:href="#linear-gradient-20"/><linearGradient id="linear-gradient-27" x1="17.62" y1="152.16" x2="30.09" y2="152.16" xlink:href="#linear-gradient-2"/><linearGradient id="linear-gradient-28" x1="17.1" y1="137.58" x2="30.61" y2="137.58" xlink:href="#linear-gradient-3"/></defs><title>Asset 1122</title><g id="Layer_2" data-name="Layer 2"><g id="Social_Media" data-name="Social Media"><path class="cls-1" d="M166.21,103.7c0,42.44-41.91,80.85-84.36,80.85S0,146.14,0,103.7,15.18,14.85,57.63,14.85,166.21,61.25,166.21,103.7Z"/><g class="cls-2"><path class="cls-3" d="M139,78.64c3.68-2.12,3.68-5.57,0-7.69a14.89,14.89,0,0,0-13.36,0c-3.66,2.12-3.66,5.57,0,7.69A14.89,14.89,0,0,0,139,78.64Z"/><path class="cls-4" d="M138.92,78.58c3.63-2.08,3.63-5.49,0-7.57a14.61,14.61,0,0,0-13.14,0c-3.6,2.08-3.6,5.49,0,7.57A14.61,14.61,0,0,0,138.92,78.58Z"/><path class="cls-5" d="M138.82,78.52c3.56-2,3.56-5.4,0-7.45a14.42,14.42,0,0,0-12.93,0c-3.55,2.05-3.55,5.4,0,7.45A14.42,14.42,0,0,0,138.82,78.52Z"/><path class="cls-6" d="M138.71,78.46c3.51-2,3.51-5.31,0-7.33a14.17,14.17,0,0,0-12.72,0c-3.49,2-3.49,5.31,0,7.33A14.17,14.17,0,0,0,138.71,78.46Z"/><path class="cls-7" d="M138.6,78.4c3.45-2,3.45-5.22,0-7.2a13.89,13.89,0,0,0-12.5,0c-3.43,2-3.43,5.22,0,7.2A13.89,13.89,0,0,0,138.6,78.4Z"/><path class="cls-8" d="M138.5,78.33c3.39-1.94,3.39-5.13,0-7.07a13.66,13.66,0,0,0-12.3,0c-3.37,1.94-3.37,5.13,0,7.07A13.66,13.66,0,0,0,138.5,78.33Z"/><path class="cls-9" d="M138.39,78.27c3.33-1.91,3.33-5,0-7a13.39,13.39,0,0,0-12.08,0c-3.31,1.91-3.31,5,0,7A13.39,13.39,0,0,0,138.39,78.27Z"/><path class="cls-10" d="M138.29,78.21c3.27-1.88,3.27-4.95,0-6.83a13.2,13.2,0,0,0-11.87,0c-3.26,1.88-3.26,5,0,6.83A13.2,13.2,0,0,0,138.29,78.21Z"/><path class="cls-11" d="M138.18,78.15c3.22-1.84,3.22-4.86,0-6.71a12.94,12.94,0,0,0-11.66,0c-3.19,1.85-3.19,4.87,0,6.71A12.94,12.94,0,0,0,138.18,78.15Z"/><path class="cls-12" d="M138.07,78.09c3.16-1.81,3.16-4.78,0-6.59a12.73,12.73,0,0,0-11.44,0c-3.14,1.81-3.14,4.78,0,6.59A12.73,12.73,0,0,0,138.07,78.09Z"/><path class="cls-13" d="M138,78c3.1-1.78,3.1-4.69,0-6.47a12.5,12.5,0,0,0-11.24,0c-3.08,1.78-3.08,4.69,0,6.47A12.5,12.5,0,0,0,138,78Z"/><path class="cls-14" d="M137.86,78c3-1.75,3-4.6,0-6.35a12.28,12.28,0,0,0-11,0c-3,1.75-3,4.6,0,6.35A12.28,12.28,0,0,0,137.86,78Z"/><path class="cls-15" d="M137.76,77.91c3-1.71,3-4.52,0-6.23a12,12,0,0,0-10.81,0c-3,1.71-3,4.52,0,6.23A12,12,0,0,0,137.76,77.91Z"/><path class="cls-16" d="M137.65,77.85c2.92-1.68,2.92-4.43,0-6.11a11.84,11.84,0,0,0-10.6,0c-2.9,1.68-2.9,4.43,0,6.11A11.84,11.84,0,0,0,137.65,77.85Z"/><path class="cls-17" d="M137.55,77.79c2.86-1.65,2.86-4.34,0-6a11.52,11.52,0,0,0-10.39,0c-2.85,1.64-2.85,4.33,0,6A11.59,11.59,0,0,0,137.55,77.79Z"/><path class="cls-18" d="M137.44,77.72c2.81-1.61,2.81-4.24,0-5.85a11.33,11.33,0,0,0-10.18,0c-2.79,1.61-2.79,4.24,0,5.85A11.27,11.27,0,0,0,137.44,77.72Z"/><path class="cls-19" d="M137.33,77.66c2.75-1.57,2.75-4.16,0-5.73a11.06,11.06,0,0,0-10,0c-2.73,1.57-2.73,4.16,0,5.73A11.06,11.06,0,0,0,137.33,77.66Z"/><path class="cls-20" d="M137.23,77.6c2.69-1.54,2.69-4.07,0-5.61a10.8,10.8,0,0,0-9.75,0c-2.68,1.54-2.68,4.07,0,5.61A10.8,10.8,0,0,0,137.23,77.6Z"/><path class="cls-21" d="M137.12,77.54c2.63-1.51,2.63-4,0-5.49a10.61,10.61,0,0,0-9.54,0c-2.61,1.51-2.61,4,0,5.49A10.61,10.61,0,0,0,137.12,77.54Z"/><path class="cls-22" d="M137,77.48c2.57-1.48,2.57-3.89,0-5.37a10.36,10.36,0,0,0-9.33,0c-2.56,1.48-2.56,3.89,0,5.37A10.36,10.36,0,0,0,137,77.48Z"/><path class="cls-23" d="M136.91,77.42c2.51-1.44,2.51-3.81,0-5.25a10.17,10.17,0,0,0-9.12,0c-2.5,1.44-2.5,3.81,0,5.25A10.17,10.17,0,0,0,136.91,77.42Z"/><path class="cls-24" d="M136.81,77.36c2.45-1.41,2.45-3.72,0-5.13a9.91,9.91,0,0,0-8.91,0c-2.44,1.41-2.44,3.72,0,5.13A9.91,9.91,0,0,0,136.81,77.36Z"/><path class="cls-25" d="M136.7,77.3c2.4-1.38,2.4-3.63,0-5a9.7,9.7,0,0,0-8.69,0c-2.39,1.38-2.39,3.63,0,5A9.7,9.7,0,0,0,136.7,77.3Z"/><path class="cls-26" d="M136.59,77.24c2.34-1.35,2.34-3.54,0-4.89a9.45,9.45,0,0,0-8.48,0c-2.32,1.35-2.32,3.54,0,4.89A9.45,9.45,0,0,0,136.59,77.24Z"/><path class="cls-27" d="M136.49,77.18c2.28-1.31,2.28-3.46,0-4.77a9.26,9.26,0,0,0-8.27,0c-2.27,1.31-2.27,3.46,0,4.77A9.26,9.26,0,0,0,136.49,77.18Z"/><path class="cls-28" d="M136.38,77.11c2.22-1.27,2.22-3.36,0-4.63a8.94,8.94,0,0,0-8.06,0c-2.2,1.27-2.2,3.36,0,4.63A8.94,8.94,0,0,0,136.38,77.11Z"/><path class="cls-29" d="M136.28,77.05c2.16-1.24,2.16-3.27,0-4.51a8.69,8.69,0,0,0-7.85,0c-2.15,1.24-2.15,3.27,0,4.51A8.69,8.69,0,0,0,136.28,77.05Z"/><path class="cls-30" d="M136.17,77c2.11-1.21,2.11-3.18,0-4.39a8.47,8.47,0,0,0-7.63,0c-2.1,1.21-2.1,3.18,0,4.39A8.47,8.47,0,0,0,136.17,77Z"/><path class="cls-31" d="M136.06,76.93c2.05-1.17,2.05-3.1,0-4.27a8.22,8.22,0,0,0-7.42,0c-2,1.17-2,3.1,0,4.27A8.22,8.22,0,0,0,136.06,76.93Z"/><path class="cls-32" d="M136,76.87c2-1.14,2-3,0-4.15a8,8,0,0,0-7.21,0c-2,1.14-2,3,0,4.15A8,8,0,0,0,136,76.87Z"/><path class="cls-33" d="M135.85,76.81c1.93-1.11,1.93-2.92,0-4a7.75,7.75,0,0,0-7,0c-1.92,1.11-1.92,2.92,0,4A7.75,7.75,0,0,0,135.85,76.81Z"/><path class="cls-34" d="M135.75,76.75c1.87-1.08,1.87-2.83,0-3.91a7.58,7.58,0,0,0-6.79,0c-1.86,1.08-1.86,2.83,0,3.91A7.58,7.58,0,0,0,135.75,76.75Z"/><path class="cls-35" d="M135.64,76.69c1.81-1,1.81-2.75,0-3.79a7.31,7.31,0,0,0-6.57,0c-1.81,1-1.81,2.75,0,3.79A7.31,7.31,0,0,0,135.64,76.69Z"/><path class="cls-36" d="M135.54,76.63c1.75-1,1.75-2.66,0-3.67a7.14,7.14,0,0,0-6.37,0c-1.74,1-1.74,2.66,0,3.67A7.14,7.14,0,0,0,135.54,76.63Z"/><path class="cls-37" d="M135.43,76.57c1.7-1,1.7-2.57,0-3.55a6.86,6.86,0,0,0-6.15,0c-1.69,1-1.69,2.57,0,3.55A6.86,6.86,0,0,0,135.43,76.57Z"/><path class="cls-38" d="M135.32,76.5c1.64-.94,1.64-2.47,0-3.41a6.59,6.59,0,0,0-5.93,0c-1.63.94-1.63,2.47,0,3.41A6.59,6.59,0,0,0,135.32,76.5Z"/><path class="cls-39" d="M135.22,76.44c1.58-.9,1.58-2.39,0-3.29a6.35,6.35,0,0,0-5.73,0c-1.57.9-1.57,2.39,0,3.29A6.35,6.35,0,0,0,135.22,76.44Z"/><path class="cls-40" d="M135.11,76.38c1.52-.87,1.52-2.3,0-3.17a6.08,6.08,0,0,0-5.51,0c-1.52.87-1.52,2.3,0,3.17A6.08,6.08,0,0,0,135.11,76.38Z"/><path class="cls-41" d="M135,76.32c1.46-.84,1.46-2.21,0-3a5.91,5.91,0,0,0-5.31,0c-1.45.84-1.45,2.21,0,3A5.91,5.91,0,0,0,135,76.32Z"/><path class="cls-42" d="M134.9,76.26c1.4-.81,1.4-2.12,0-2.93a5.63,5.63,0,0,0-5.09,0c-1.4.81-1.4,2.12,0,2.93A5.63,5.63,0,0,0,134.9,76.26Z"/><path class="cls-43" d="M134.8,76.2c1.34-.77,1.34-2,0-2.81a5.44,5.44,0,0,0-4.88,0c-1.34.77-1.34,2,0,2.81A5.44,5.44,0,0,0,134.8,76.2Z"/><path class="cls-44" d="M134.69,76.14c1.29-.74,1.29-2,0-2.69a5.19,5.19,0,0,0-4.67,0,1.42,1.42,0,0,0,0,2.69A5.19,5.19,0,0,0,134.69,76.14Z"/><path class="cls-45" d="M134.58,76.08a1.36,1.36,0,0,0,0-2.57,5,5,0,0,0-4.45,0,1.36,1.36,0,0,0,0,2.57A5,5,0,0,0,134.58,76.08Z"/><path class="cls-46" d="M134.48,76a1.29,1.29,0,0,0,0-2.45,4.74,4.74,0,0,0-4.25,0,1.3,1.3,0,0,0,0,2.45A4.74,4.74,0,0,0,134.48,76Z"/><path class="cls-47" d="M134.37,76a1.23,1.23,0,0,0,0-2.33,4.53,4.53,0,0,0-4,0,1.23,1.23,0,0,0,0,2.33A4.53,4.53,0,0,0,134.37,76Z"/><path class="cls-48" d="M134.27,75.89a1.16,1.16,0,0,0,0-2.19,4.22,4.22,0,0,0-3.82,0,1.16,1.16,0,0,0,0,2.19A4.22,4.22,0,0,0,134.27,75.89Z"/><path class="cls-49" d="M134.16,75.83a1.09,1.09,0,0,0,0-2.07,4,4,0,0,0-3.61,0,1.09,1.09,0,0,0,0,2.07A4,4,0,0,0,134.16,75.83Z"/><path class="cls-50" d="M134.05,75.77a1,1,0,0,0,0-2,3.75,3.75,0,0,0-3.39,0,1,1,0,0,0,0,2A3.75,3.75,0,0,0,134.05,75.77Z"/><path class="cls-51" d="M134,75.71a1,1,0,0,0,0-1.83,3.52,3.52,0,0,0-3.19,0,1,1,0,0,0,0,1.83A3.52,3.52,0,0,0,134,75.71Z"/><path class="cls-52" d="M133.84,75.65a.9.9,0,0,0,0-1.71,3.3,3.3,0,0,0-3,0,.9.9,0,0,0,0,1.71A3.3,3.3,0,0,0,133.84,75.65Z"/><path class="cls-53" d="M133.74,75.59a.84.84,0,0,0,0-1.59A3.05,3.05,0,0,0,131,74a.84.84,0,0,0,0,1.59A3.05,3.05,0,0,0,133.74,75.59Z"/><path class="cls-54" d="M133.63,75.53a.78.78,0,0,0,0-1.47,2.86,2.86,0,0,0-2.55,0,.78.78,0,0,0,0,1.47A2.86,2.86,0,0,0,133.63,75.53Z"/></g><path class="cls-55" d="M136.77,75.9c2.34-1.34,2.34-7.62,0-9a9.47,9.47,0,0,0-8.52,0c-2.34,1.34-2.34,7.62,0,9a8.71,8.71,0,0,0,4.2,1.31A8.88,8.88,0,0,0,136.77,75.9Z"/><path class="cls-56" d="M138.75,68.38v-1h-.24a3.89,3.89,0,0,0-1.59-1.55,9.81,9.81,0,0,0-8.83,0,3.83,3.83,0,0,0-1.57,1.55h-.22V68a2.08,2.08,0,0,0,0,.61h0a3.27,3.27,0,0,0,1.79,2.23,9.81,9.81,0,0,0,8.83,0,3.31,3.31,0,0,0,1.81-2.23h0Z"/><path class="cls-57" d="M136.92,70c2.44-1.39,2.44-3.68,0-5.08a9.81,9.81,0,0,0-8.83,0c-2.42,1.4-2.42,3.69,0,5.08A9.81,9.81,0,0,0,136.92,70Z"/><path class="cls-58" d="M136.57,69.77c2.23-1.29,2.23-3.39,0-4.68a9.07,9.07,0,0,0-8.12,0c-2.23,1.29-2.23,3.39,0,4.68A9.07,9.07,0,0,0,136.57,69.77Z"/><path class="cls-59" d="M135.83,69.94c1.83-1,1.83-2.77,0-3.82a7.39,7.39,0,0,0-6.64,0c-1.82,1-1.82,2.77,0,3.82A7.39,7.39,0,0,0,135.83,69.94Z"/><path class="cls-54" d="M132.51,69a.49.49,0,0,1-.49-.49V51.26a.49.49,0,0,1,1,0V68.47A.49.49,0,0,1,132.51,69Z"/><path class="cls-60" d="M137.16,51.63a5.17,5.17,0,1,0-9.29,0,6.76,6.76,0,1,0,9.29,0Z"/><path class="cls-61" d="M126.05,56.52a6.71,6.71,0,0,1,2.12-4.89,5.15,5.15,0,0,1,4.49-7.42h-.15a5.16,5.16,0,0,0-4.64,7.42,6.75,6.75,0,0,0,4.64,11.65h.15A6.76,6.76,0,0,1,126.05,56.52Z"/><path class="cls-62" d="M137.16,51.63a5.16,5.16,0,0,0-4.65-7.42,6,6,0,0,0-.74,0,5.17,5.17,0,0,1,3.9,7.37,6.75,6.75,0,0,1-3.9,11.61c.24,0,.49,0,.74,0a6.75,6.75,0,0,0,4.65-11.65Z"/><g class="cls-63"><polygon class="cls-3" points="100.67 102.75 127.67 117.71 50.05 163.54 23.05 147.56 100.67 102.75"/><polygon class="cls-64" points="100.67 102.75 127.07 117.38 49.47 163.19 23.05 147.56 100.67 102.75"/><polygon class="cls-65" points="100.67 102.75 126.47 117.05 48.88 162.85 23.05 147.56 100.67 102.75"/><polygon class="cls-66" points="100.67 102.75 125.87 116.71 48.3 162.5 23.05 147.56 100.67 102.75"/><polygon class="cls-67" points="100.67 102.75 125.27 116.38 47.72 162.16 23.05 147.56 100.67 102.75"/><polygon class="cls-68" points="100.67 102.75 124.67 116.05 47.14 161.82 23.05 147.56 100.67 102.75"/><polygon class="cls-69" points="100.67 102.75 124.07 115.71 46.56 161.47 23.05 147.56 100.67 102.75"/><polygon class="cls-70" points="100.67 102.75 123.47 115.38 45.98 161.13 23.05 147.56 100.67 102.75"/><polygon class="cls-71" points="100.67 102.75 122.87 115.05 45.4 160.78 23.05 147.56 100.67 102.75"/><polygon class="cls-72" points="100.67 102.75 122.27 114.72 44.82 160.44 23.05 147.56 100.67 102.75"/><polygon class="cls-73" points="100.67 102.75 121.67 114.38 44.24 160.1 23.05 147.56 100.67 102.75"/><polygon class="cls-74" points="100.67 102.75 121.07 114.05 43.66 159.75 23.05 147.56 100.67 102.75"/><polygon class="cls-75" points="100.67 102.75 120.47 113.72 43.08 159.41 23.05 147.56 100.67 102.75"/><polygon class="cls-76" points="100.67 102.75 119.87 113.38 42.5 159.07 23.05 147.56 100.67 102.75"/><polygon class="cls-77" points="100.67 102.75 119.27 113.05 41.92 158.72 23.05 147.56 100.67 102.75"/><polygon class="cls-78" points="100.67 102.75 118.67 112.72 41.34 158.38 23.05 147.56 100.67 102.75"/><polygon class="cls-79" points="100.67 102.75 118.08 112.39 40.75 158.03 23.05 147.56 100.67 102.75"/><polygon class="cls-80" points="100.67 102.75 117.47 112.05 40.17 157.69 23.05 147.56 100.67 102.75"/><polygon class="cls-81" points="100.67 102.75 116.88 111.72 39.59 157.35 23.05 147.56 100.67 102.75"/><polygon class="cls-82" points="100.67 102.75 116.28 111.39 39.01 157 23.05 147.56 100.67 102.75"/><polygon class="cls-83" points="100.67 102.75 115.68 111.05 38.43 156.66 23.05 147.56 100.67 102.75"/><polygon class="cls-84" points="100.67 102.75 115.08 110.72 37.85 156.31 23.05 147.56 100.67 102.75"/><polygon class="cls-85" points="100.67 102.75 114.48 110.39 37.27 155.97 23.05 147.56 100.67 102.75"/><polygon class="cls-86" points="100.67 102.75 113.88 110.06 36.69 155.63 23.05 147.56 100.67 102.75"/><polygon class="cls-87" points="100.67 102.75 113.28 109.72 36.11 155.28 23.05 147.56 100.67 102.75"/><polygon class="cls-88" points="100.67 102.75 112.68 109.39 35.53 154.94 23.05 147.56 100.67 102.75"/><polygon class="cls-89" points="100.67 102.75 112.08 109.06 34.95 154.59 23.05 147.56 100.67 102.75"/><polygon class="cls-90" points="100.67 102.75 111.48 108.72 34.37 154.25 23.05 147.56 100.67 102.75"/><polygon class="cls-91" points="100.67 102.75 110.88 108.39 33.78 153.91 23.05 147.56 100.67 102.75"/><polygon class="cls-92" points="100.67 102.75 110.28 108.06 33.2 153.56 23.05 147.56 100.67 102.75"/><polygon class="cls-93" points="100.67 102.75 109.68 107.72 32.62 153.22 23.05 147.56 100.67 102.75"/><polygon class="cls-94" points="100.67 102.75 109.08 107.39 32.04 152.88 23.05 147.56 100.67 102.75"/><polygon class="cls-95" points="100.67 102.75 108.48 107.06 31.46 152.53 23.05 147.56 100.67 102.75"/><polygon class="cls-96" points="100.67 102.75 107.88 106.73 30.88 152.19 23.05 147.56 100.67 102.75"/><polygon class="cls-97" points="100.67 102.75 107.28 106.39 30.3 151.84 23.05 147.56 100.67 102.75"/><polygon class="cls-98" points="100.67 102.75 106.69 106.06 29.72 151.5 23.05 147.56 100.67 102.75"/><polygon class="cls-99" points="100.67 102.75 106.09 105.73 29.14 151.16 23.05 147.56 100.67 102.75"/><polygon class="cls-100" points="100.67 102.75 105.49 105.39 28.56 150.81 23.05 147.56 100.67 102.75"/><polygon class="cls-101" points="100.67 102.75 104.89 105.06 27.98 150.47 23.05 147.56 100.67 102.75"/><polygon class="cls-102" points="100.67 102.75 104.29 104.73 27.39 150.12 23.05 147.56 100.67 102.75"/><polygon class="cls-103" points="100.67 102.75 103.69 104.4 26.81 149.78 23.05 147.56 100.67 102.75"/><polygon class="cls-54" points="100.67 102.75 103.09 104.06 26.23 149.44 23.05 147.56 100.67 102.75"/></g><path class="cls-104" d="M22.9,45.74a4.09,4.09,0,0,1,1.83-3.18L97.74.19a1.43,1.43,0,0,1,1.36,0l1.14.58-.52,99.39a4.07,4.07,0,0,1-1.83,3.18L24,147.22l-1.13.66Z"/><path class="cls-105" d="M24,46.57a4.11,4.11,0,0,1,1.83-3.18L99,.91c1-.58,1.83-.11,1.83,1V102.61L24,147.22Z"/><path class="cls-58" d="M25.86,43.39,99,.91c1-.58,1.83-.11,1.83,1V6.74L24,51.35V46.57A4.11,4.11,0,0,1,25.86,43.39Z"/><path class="cls-105" d="M34.78,41.28c.32-.19.59,0,.59.35a1.35,1.35,0,0,1-.59,1c-.33.19-.6,0-.6-.35A1.32,1.32,0,0,1,34.78,41.28Z"/><path class="cls-105" d="M32.18,42.82c.33-.19.59,0,.59.35a1.32,1.32,0,0,1-.59,1c-.33.19-.6,0-.6-.35A1.32,1.32,0,0,1,32.18,42.82Z"/><path class="cls-105" d="M29.58,44.36c.33-.19.59,0,.59.35a1.32,1.32,0,0,1-.59,1c-.33.19-.6,0-.6-.35A1.32,1.32,0,0,1,29.58,44.36Z"/><polygon class="cls-55" points="94.82 18.33 94.82 47.41 30.68 84.31 30.68 55.43 94.82 18.33"/><polygon class="cls-55" points="94.91 84.36 94.91 86.59 30.68 123.91 30.68 121.69 94.91 84.36"/><polygon class="cls-55" points="94.91 90.4 94.91 92.63 30.68 129.95 30.68 127.73 94.91 90.4"/><polygon class="cls-55" points="94.91 96.74 94.91 98.97 30.68 136.29 30.68 134.07 94.91 96.74"/><polygon class="cls-55" points="94.82 51.84 94.82 75.03 76.38 85.89 76.38 62.86 94.82 51.84"/><polygon class="cls-55" points="49.12 78.2 49.12 101.39 30.68 112.25 30.68 89.22 49.12 78.2"/><polygon class="cls-55" points="71.97 65.09 71.97 88.28 53.53 99.15 53.53 76.11 71.97 65.09"/><path class="cls-106" d="M100.86,50.73,73.77,66.44a2.69,2.69,0,0,0-1.34,2.32V84.42h0a1.5,1.5,0,0,0,0,.37l0,.1a1.33,1.33,0,0,0,.1.24l0,.1a2.65,2.65,0,0,0,.21.26l.06,0a1.37,1.37,0,0,0,.21.15l.12.07.19.08.14,0a1.54,1.54,0,0,0,.31,0,1.61,1.61,0,0,0,.81-.21l26.14-15.32Z"/><path class="cls-107" d="M117.88,45.92V61.36a2.69,2.69,0,0,1-1.34,2.32L77.22,86.73a1.52,1.52,0,0,1-2.29-1.31V69.76a2.69,2.69,0,0,1,1.34-2.32l39.34-22.83A1.52,1.52,0,0,1,117.88,45.92Z"/><path class="cls-108" d="M76.06,86V70.33A2.68,2.68,0,0,1,77.4,68l39.34-22.83a1.57,1.57,0,0,1,.8-.21,1.52,1.52,0,0,0-1.93-.36L76.27,67.44a2.69,2.69,0,0,0-1.34,2.32V85.42a1.52,1.52,0,0,0,1.48,1.52A1.5,1.5,0,0,1,76.06,86Z"/><path class="cls-105" d="M109.33,57.7A3.41,3.41,0,0,1,111,54.87a.85.85,0,0,1,1,.31,2.31,2.31,0,0,1,1.13-1.07c.83-.3,1.43.48,1.33,1.75a4.23,4.23,0,0,1-.54,1.73l-1.86,3.56a22.33,22.33,0,0,1-2.58-2.2A2,2,0,0,1,109.33,57.7Z"/><path class="cls-105" d="M92.05,66.88c1.43-.83,2.6-.15,2.6,1.49a5.33,5.33,0,0,1-.72,2.48v1.2a.17.17,0,0,1-.17.17h-.87a3.6,3.6,0,0,1-.84.64c-1.42.83-2.59.15-2.59-1.49A5.75,5.75,0,0,1,92.05,66.88Z"/><path class="cls-105" d="M83.53,74.15a1.65,1.65,0,0,0,.11-.47.39.39,0,0,0-.08-.29.14.14,0,0,0-.2,0,1.46,1.46,0,0,0-.46.79L82.46,74a4.29,4.29,0,0,1,.41-.88,1.46,1.46,0,0,1,.53-.52.46.46,0,0,1,.56,0,.91.91,0,0,1,.22.76,2.56,2.56,0,0,1-.12.65,8,8,0,0,1-.38.93l-.47,1,1-.56,0,.81-1.75,1,0-.66.77-1.62Q83.42,74.42,83.53,74.15Z"/><path class="cls-105" d="M86.28,71.06l0,.78-1,.55,0,.67a1.24,1.24,0,0,1,.26-.19.51.51,0,0,1,.61,0,1,1,0,0,1,.23.8,2.51,2.51,0,0,1-.3,1.13,1.71,1.71,0,0,1-.68.76.57.57,0,0,1-.82-.12l.31-.82.08.08a.71.71,0,0,0,.19.08.35.35,0,0,0,.28,0,.79.79,0,0,0,.26-.28.91.91,0,0,0,.12-.47.4.4,0,0,0-.1-.35.29.29,0,0,0-.31,0,1.85,1.85,0,0,0-.44.47l-.22-.27.06-2Z"/><path class="cls-105" d="M88.4,69.87l0,.78-1,.55,0,.67a1.24,1.24,0,0,1,.26-.19.49.49,0,0,1,.61,0,1,1,0,0,1,.23.8,2.51,2.51,0,0,1-.3,1.13,1.71,1.71,0,0,1-.68.76.57.57,0,0,1-.82-.13l.31-.81.08.07a.67.67,0,0,0,.19.09.35.35,0,0,0,.28,0,.75.75,0,0,0,.26-.29.85.85,0,0,0,.12-.46.4.4,0,0,0-.1-.35c-.08-.06-.18,0-.31,0a1.69,1.69,0,0,0-.44.47l-.22-.28.06-2Z"/><path class="cls-105" d="M103.5,63.44l0-.7.53-.3,0,.7.28-.16,0,.78-.29.15,0,1-.54.3,0-1-1,.57,0-.69,1-2.87.61-.34-.92,2.76Z"/><path class="cls-105" d="M105.78,60.59a.81.81,0,0,0-.37.45,2.37,2.37,0,0,0-.17.77,1.47,1.47,0,0,1,.5-.52.42.42,0,0,1,.57,0,1.25,1.25,0,0,1,.2.85,2.61,2.61,0,0,1-.28,1.12,1.65,1.65,0,0,1-.65.72.56.56,0,0,1-.45.09.43.43,0,0,1-.28-.28,3.14,3.14,0,0,1-.17-1.31,6.12,6.12,0,0,1,.11-1,3.5,3.5,0,0,1,.25-.79,1.87,1.87,0,0,1,.72-.88.7.7,0,0,1,.33-.1.56.56,0,0,1,.24,0l.18.11-.28.78-.06,0a.27.27,0,0,0-.16-.06A.27.27,0,0,0,105.78,60.59Zm-.12,1.49a.72.72,0,0,0-.28.31,1.1,1.1,0,0,0-.13.47.58.58,0,0,0,.1.38c.06.08.15.09.26,0a.69.69,0,0,0,.27-.31,1.31,1.31,0,0,0,.12-.48.65.65,0,0,0-.08-.38C105.86,62,105.77,62,105.66,62.08Z"/><path class="cls-105" d="M106.91,60.55l0-1.29,1.79-1,0,.68-1.1,3.9-.61.34,1.06-3.78-.63.35v.52Z"/><path class="cls-109" d="M61.67,74.86h0a3.43,3.43,0,0,0-3.36-.21L9.58,102.82a3.08,3.08,0,0,0-1.39,2.4v20.5a1.92,1.92,0,0,0,1.3,1.81h0a.75.75,0,0,0,.7-.14L60.37,98.71a3.08,3.08,0,0,0,1.5-2.33v-21A.67.67,0,0,0,61.67,74.86Z"/><path class="cls-110" d="M61.94,75.85c0-.88-.62-1.24-1.38-.8L11.35,103.46a3.07,3.07,0,0,0-1.38,2.4v20.59c0,.88.62,1.24,1.38.8L60.56,98.84a3.07,3.07,0,0,0,1.38-2.39V89.09L64.49,83A1,1,0,0,0,64,81.64l-2-.86Z"/><polygon class="cls-111" points="27.39 100.7 55.85 84.32 55.86 82.48 27.39 98.83 27.39 100.7"/><polygon class="cls-111" points="27.39 106.97 55.86 90.63 55.86 88.79 27.39 105.14 27.39 106.97"/><polygon class="cls-111" points="27.39 113.48 43.23 104.42 43.23 102.58 27.39 111.66 27.39 113.48"/><polygon class="cls-112" points="25.82 98.03 25.78 115.77 13 123.08 13 105.31 25.82 98.03"/><path class="cls-106" d="M100.86,13.86,72.45,30.2a4.75,4.75,0,0,0-2.14,3.71V53.74a2.56,2.56,0,0,0,1,2l1.33,1h0a1.51,1.51,0,0,0,1.51-.15l26.68-15.4Z"/><path class="cls-113" d="M75,32.2a4.75,4.75,0,0,0-2.14,3.71V55.74a2.56,2.56,0,0,0,1,2l1.34,1c.35.09-.68-.87-.22-1.14l39.76-23A4.7,4.7,0,0,0,116.83,31l-.27-20.29c0-.46.86-.54.86-.54l-1-.39a3.3,3.3,0,0,0-2.81.22Z"/><path class="cls-114" d="M76.68,33.19a4.77,4.77,0,0,0-2.14,3.71V57.38c0,1.36,1,1.92,2.14,1.24l39.77-23A4.66,4.66,0,0,0,118.56,32l-.26-20.29c0-1.37-1-1.92-2.18-1.24Z"/><path class="cls-115" d="M83.42,34.33a15.65,15.65,0,0,0-7,12.21c0,4.48,3.17,6.39,7,4.24s7-7.65,7-12.22S87.3,32.09,83.42,34.33Z"/><path class="cls-105" d="M81.64,46.49c0,1.6,1.13,2.29,2.52,1.52a5.51,5.51,0,0,0,2.53-4.38Z"/><path class="cls-54" d="M86.62,38.24a1.74,1.74,0,0,0-.78,1.35c0,.5.35.71.78.47a1.71,1.71,0,0,0,.78-1.35C87.4,38.21,87.05,38,86.62,38.24Z"/><path class="cls-54" d="M81.54,41.27a1.7,1.7,0,0,0-.78,1.34c0,.5.35.71.78.47a1.69,1.69,0,0,0,.78-1.35C82.32,41.23,82,41,81.54,41.27Z"/><polygon class="cls-57" points="92.77 29.96 92.78 31.86 115.93 18.44 115.93 16.5 92.77 29.96"/><polygon class="cls-57" points="92.77 34.54 92.78 36.43 115.93 23.01 115.93 21.07 92.77 34.54"/><polygon class="cls-57" points="92.77 39.12 92.78 41.01 115.93 27.59 115.93 25.65 92.77 39.12"/><polygon class="cls-57" points="92.77 43.69 92.78 45.59 105.15 38.46 105.15 36.52 92.77 43.69"/><path class="cls-106" d="M67,39.22c0-.7-.34-1.14-.82-1.22h.11l-.8-.31a2.6,2.6,0,0,0-2.26.17L32,55.78a3.85,3.85,0,0,0-1.73,3l.05,16.84a1.37,1.37,0,0,0,.92,1.27l.94.32h0a1.22,1.22,0,0,0,1.22-.12L65.46,58.58a3.76,3.76,0,0,0,1.7-3Z"/><path class="cls-116" d="M35,57.28a3.85,3.85,0,0,0-1.73,3l0,16.84a1.37,1.37,0,0,0,.92,1.27l.94.32c.29.07-.55-.71-.18-.92L67.06,59.28a3.8,3.8,0,0,0,1.71-3l-.21-16.36c0-.37.68-.43.68-.43l-.8-.31a2.6,2.6,0,0,0-2.26.17Z"/><path class="cls-58" d="M36.4,58.08a3.85,3.85,0,0,0-1.73,3V77.59c0,1.1.78,1.55,1.73,1L68.46,60.08a3.76,3.76,0,0,0,1.7-3L70,40.72c0-1.1-.8-1.55-1.75-1Z"/><polygon class="cls-54" points="48.7 55.48 48.7 57.01 67.37 46.19 67.37 44.63 48.7 55.48"/><polygon class="cls-54" points="48.7 59.17 48.7 60.7 67.37 49.88 67.37 48.31 48.7 59.17"/><polygon class="cls-54" points="48.7 62.86 48.7 64.39 67.37 53.57 67.37 52.01 48.7 62.86"/><polygon class="cls-54" points="48.7 66.48 48.7 68.01 59.35 61.9 59.35 60.34 48.7 66.48"/><path class="cls-54" d="M38.18,60.89V73.21l.77.38L40.1,72.1V66.67l3.77-2.19v5.34l.76.39,1.15-1.39V58.19a2.08,2.08,0,0,0-3.12-1.8L39.84,58A3.33,3.33,0,0,0,38.18,60.89Zm1.92,3.56V60.89a1.4,1.4,0,0,1,.7-1.21l2.82-1.63a.17.17,0,0,1,.17,0,.16.16,0,0,1,.08.14v4.07Z"/><path class="cls-117" d="M39,61.27V73.59l1.92-1.1V67.06l3.76-2.2v5.35l1.92-1V58.58a2.08,2.08,0,0,0-3.12-1.81L40.61,58.4A3.33,3.33,0,0,0,39,61.27Zm1.92,3.57V61.27a1.42,1.42,0,0,1,.7-1.21l2.82-1.62a.12.12,0,0,1,.16,0,.13.13,0,0,1,.08.14v4.06Z"/><path class="cls-118" d="M91.32,84.48l.12.15a1.64,1.64,0,0,1,.32,1v20.92A3.12,3.12,0,0,1,90.37,109L63.7,124.3a1.82,1.82,0,0,1-1.19.21h-.06A1.76,1.76,0,0,1,61,122.76V101.54a3.1,3.1,0,0,1,1.39-2.41L89,84A1.81,1.81,0,0,1,91.32,84.48Z"/><path class="cls-119" d="M90.36,84.67c.77-.44,1.4-.08,1.4.81v21a3.1,3.1,0,0,1-1.39,2.41L63.66,124.26c-.77.44-1.4.08-1.4-.81V102.34a3.07,3.07,0,0,1,1.4-2.4Z"/><path class="cls-120" d="M85.16,91c1.32-.76,2.4-.16,2.4,1.34a5.57,5.57,0,0,1-2.4,4.22c-1.31.82-2.39.21-2.39-1.34A5.4,5.4,0,0,1,85.16,91Z"/><path class="cls-54" d="M68.54,104.13l4.33,7.31L77,107.12l14.75-4.51v3.82a3.1,3.1,0,0,1-1.39,2.41L63.66,124.26c-.77.44-1.4.08-1.4-.81v-3.39L64.15,119Z"/><path class="cls-121" d="M.19,81c0-8.31,5.89-18.5,13.08-22.65,3.34-1.93,6.4-2.22,8.72-1.16h0a6.67,6.67,0,0,1,.94.53L25.06,59l-.31.67a11.48,11.48,0,0,1,1.59,6.28,26.47,26.47,0,0,1-3.62,12.48v6.08a.83.83,0,0,1-.83.83h-4.4a21.86,21.86,0,0,1-4.22,3.25,13.06,13.06,0,0,1-4.36,1.65l-.05.41-1.75-.29A6.84,6.84,0,0,1,5.34,90h0C2.21,89,.19,85.86.19,81Z"/><path class="cls-122" d="M15.27,59.31c7-4.07,12.8-.74,12.8,7.39a26,26,0,0,1-3.55,12.22v6a.81.81,0,0,1-.81.81H19.4a21.38,21.38,0,0,1-4.13,3.19c-7,4.06-12.8.74-12.8-7.39S8.23,63.37,15.27,59.31Z"/><path class="cls-123" d="M15.65,62.65c5.37-3.22,9.77-.58,9.77,5.86S21,82.87,15.65,86.1s-9.76.58-9.76-5.86S10.28,65.88,15.65,62.65Z"/><path class="cls-105" d="M21.38,70.84c.65-.38,1.18-.07,1.18.68a2.62,2.62,0,0,1-1.18,2c-.64.37-1.17.07-1.17-.68A2.62,2.62,0,0,1,21.38,70.84Z"/><path class="cls-105" d="M15.91,73.88c.65-.38,1.18-.07,1.18.68a2.6,2.6,0,0,1-1.18,2c-.64.37-1.17.07-1.17-.68A2.62,2.62,0,0,1,15.91,73.88Z"/><path class="cls-105" d="M10.3,76.92c.65-.38,1.18-.07,1.18.68a2.6,2.6,0,0,1-1.18,2c-.65.37-1.18.07-1.18-.68A2.6,2.6,0,0,1,10.3,76.92Z"/><path class="cls-54" d="M133.64,148.47l-1.33-.78-1.39-.81-3.14-1.82a1.06,1.06,0,0,1,.17-1.92h0a2.35,2.35,0,0,1,1.84.09l2.41,1.18,2.94,1.08a.61.61,0,0,1,.39.59l-.05.78a1.71,1.71,0,0,1-1.7,1.61Z"/><path class="cls-124" d="M134.12,144.88l-1.92-.47-1.42-.7a1.06,1.06,0,0,0,0,1.85l2.13,1.21.1.06a1.5,1.5,0,0,0,1.81-.23c.36-.35.66-.72.55-.87l-.83-.26A.61.61,0,0,0,134.12,144.88Z"/><path class="cls-124" d="M133.72,147c-.92,0-1.32-.74-1.32-1.66l-2.18-29.17c0-.91,2.92-2.92,3.83-2.92s1,1.28,1,2.19v16l.34,13.85A1.65,1.65,0,0,1,133.72,147Z"/><path class="cls-125" d="M113.54,85.38l5.88-3.45a.29.29,0,0,1,.44.25l0,3a.65.65,0,0,1-.32.53l-5.83,3.36a.28.28,0,0,1-.43-.24V85.92A.63.63,0,0,1,113.54,85.38Z"/><path class="cls-126" d="M114,85.4l5.22-3.07a.25.25,0,0,1,.38.22l0,2.66a.55.55,0,0,1-.28.47l-5.18,3a.25.25,0,0,1-.38-.22V85.88A.56.56,0,0,1,114,85.4Z"/><path class="cls-124" d="M132.11,117.53a1.32,1.32,0,0,1-1.16-2l4.35-8a1.94,1.94,0,0,0-.61-2.56L129,101.15A1.32,1.32,0,1,1,130.49,99l5.69,3.89a4.59,4.59,0,0,1,1.45,6l-4.35,8A1.33,1.33,0,0,1,132.11,117.53Z"/><path class="cls-54" d="M126.75,151.93l-1.34-.78-1.39-.8-3.14-1.82a1.07,1.07,0,0,1,.17-1.93h0a2.35,2.35,0,0,1,1.84.09l2.42,1.18,2.93,1.08a.59.59,0,0,1,.39.59l0,.78a1.7,1.7,0,0,1-1.7,1.61Z"/><path class="cls-124" d="M127.22,148.34l-1.91-.47-1.43-.7a1.06,1.06,0,0,0,0,1.85l2.12,1.21.1.06a1.51,1.51,0,0,0,1.81-.22c.36-.36.67-.72.55-.88l-.83-.26A.59.59,0,0,0,127.22,148.34Z"/><path class="cls-124" d="M126.82,150.5c-.91,0-1.32-.74-1.32-1.65V118.41a1.65,1.65,0,0,1,1.65-1.66c.92,0,4.83,2.11,4.83,3l-2.56,14.42-.94,14.65A1.65,1.65,0,0,1,126.82,150.5Z"/><path class="cls-124" d="M129.53,102.68a.78.78,0,0,1-.22,0l-1.34-.22a17.69,17.69,0,0,1-13.19-10.11l-1.1-2.42a1.32,1.32,0,0,1,2.41-1.1l1.1,2.42a15.06,15.06,0,0,0,11.22,8.6l1.33.22a1.32,1.32,0,0,1-.21,2.63Z"/><path class="cls-124" d="M131.2,96.74h0a1,1,0,0,1-1-1V91.23h2v4.53A1,1,0,0,1,131.2,96.74Z"/><path class="cls-124" d="M133.19,94.3l-2,.26a2.29,2.29,0,0,1-2.62-2.44c0-.08,0-.15,0-.23l1-4.63,4.84,1Z"/><path class="cls-124" d="M115.74,89A1.53,1.53,0,1,1,113,87.69c.35-.76,1.19-.25,2,.11S116.09,88.2,115.74,89Z"/><rect class="cls-124" x="112.84" y="85.5" width="0.78" height="2.91" rx="0.35"/><rect class="cls-124" x="113.27" y="84.6" width="0.78" height="1.88" rx="0.35" transform="translate(107.39 -56.57) rotate(50.51)"/><rect class="cls-124" x="115.46" y="87.09" width="0.78" height="1.88" rx="0.35" transform="translate(110.38 -57.36) rotate(50.62)"/><path class="cls-127" d="M135.7,124.19a31.75,31.75,0,0,0-1.21-10.88l.79-17a2.53,2.53,0,0,0-3.73-2.23l0,0a2.35,2.35,0,0,0-.75.72,27.3,27.3,0,0,1-3.61,4.39c-.39-.1-.78-.22-1.16-.35a1.65,1.65,0,1,0-1.1,3.12l.46.14a6.41,6.41,0,0,0-.28,2l1,7.54L124.9,119l-.4,12.83a4.65,4.65,0,0,0,2.76.65c.1,0,1.23-.07,1.47-.11,2.83-.49,6-.72,7-2.84Z"/><path class="cls-128" d="M137.07,99.55a2.85,2.85,0,0,1-.42-1c-.07-.78.57-1.44.72-2.21.23-1.14-.56-2.19-.51-3.32a10.19,10.19,0,0,0,0-3.57,5.31,5.31,0,0,0-.2-.56,4.85,4.85,0,0,0-3.92-2.71,7.13,7.13,0,0,0-2.16-.06,3.25,3.25,0,0,0-1.23.32,1.19,1.19,0,0,0-.42.35,1.35,1.35,0,0,0-.19.81c.06.63.87.85.94,1.45,0,.31-.17.65-.19.95a2.34,2.34,0,0,0,.19,1.17c.32.69,1,1.28.94,2a8.62,8.62,0,0,1-.22,1c-.17,1.18,1.07,2.09.75,3.29-.21.77-1.09,1.33-1,2.12,0,.32.23.61.28.93.11.65-.36,1.35-.07,2,1,2,4.41,1.69,6,.8a2.64,2.64,0,0,0,1-.88A3,3,0,0,0,137.07,99.55Z"/><path class="cls-54" d="M130.22,116.21a16,16,0,0,0,4.81-.73c-.15-.73-.33-1.45-.54-2.17l0-.45a13.76,13.76,0,0,1-8.65,0l-.41,2.65A15.65,15.65,0,0,0,130.22,116.21Z"/><path class="cls-124" d="M56.45,149.12a1.45,1.45,0,0,0,1.26-.71l1.76-3a7.45,7.45,0,0,0,.9-5.3l0-.08-2.48-9.39a1.46,1.46,0,0,0-2.83.74l2.47,9.36A4.46,4.46,0,0,1,57,144l-1.76,3a1.47,1.47,0,0,0,.51,2A1.52,1.52,0,0,0,56.45,149.12Z"/><path class="cls-129" d="M58.77,133.92l0-.08-1.18-4.44a1.56,1.56,0,1,0-3,.8l1.16,4.39C56,136.3,59.16,135.86,58.77,133.92Z"/><path class="cls-54" d="M51.12,155.49a2,2,0,0,1-.76.76l-4.88,2.84a2.09,2.09,0,0,1-2.09-3.61l4.88-2.83a2.08,2.08,0,0,1,2.85,2.84Z"/><path class="cls-105" d="M51.12,153.4a2.08,2.08,0,0,0-1.35-1l-3.27,1.9a1.6,1.6,0,1,0,1.61,2.77l3.12-1.81A2.09,2.09,0,0,0,51.12,153.4Z"/><path class="cls-59" d="M48.57,157.14a2,2,0,0,0,1.19-.38l10-7a2.09,2.09,0,0,0-2.39-3.42l-10,7a2.08,2.08,0,0,0,1.2,3.79Z"/><path class="cls-54" d="M56.71,154.66a2.08,2.08,0,0,0,1-.28l4.89-2.83a2.09,2.09,0,1,0-2.09-3.61l-4.89,2.82a2.09,2.09,0,0,0,1.05,3.9Z"/><path class="cls-105" d="M54.9,153.61a2.07,2.07,0,0,1-.18-1.66L58,150.06a1.61,1.61,0,1,1,1.61,2.78l-3.12,1.8A2.06,2.06,0,0,1,54.9,153.61Z"/><path class="cls-54" d="M56.07,133.07v14.14a2.21,2.21,0,0,1-1.24,1.94l-8,4.17a1.23,1.23,0,0,1-1.85-1l1-9.65-.35-4.43c0-.8-.22-1.6.54-2l8-4.18A1.24,1.24,0,0,1,56.07,133.07Z"/><path class="cls-130" d="M56.58,130.06V144.8a1.84,1.84,0,0,1-1.14,1.7l-1.74.7-4.74,2a2.91,2.91,0,0,1-4.37-2.45l.81-2.94a4.67,4.67,0,0,0,.14-1.71L44.59,133a2.58,2.58,0,0,1,1.34-2.25l5.91-3.31A3.15,3.15,0,0,1,56.58,130.06Z"/><path class="cls-124" d="M51.4,131.05a1.31,1.31,0,0,0,1.3-1.29l0-4.18a1.31,1.31,0,0,0-2.62,0l-.07,1.64,0,2.54a1.31,1.31,0,0,0,1.29,1.32Z"/><path class="cls-124" d="M50.24,128.06l2.55.44a3.12,3.12,0,0,0,3.51-2.63l1-5.32-3.18-.61A2.78,2.78,0,0,0,51,122.29Z"/><path class="cls-59" d="M52.61,155.87a9.63,9.63,0,0,0,4.79-1.28l1-.55a2.09,2.09,0,1,0-2.08-3.62l-1,.56a5.44,5.44,0,0,1-3.47.66l-8.38-1.22a2.09,2.09,0,0,0-.6,4.13l8.38,1.22A9,9,0,0,0,52.61,155.87Z"/><path class="cls-124" d="M53.68,150.61a1.46,1.46,0,0,0,.48-2.84l-7.06-2.45a3.35,3.35,0,0,1-1.71-4.27l2.84-7.2a1.46,1.46,0,1,0-2.71-1.07L42.68,140A6.25,6.25,0,0,0,46,148l.11,0,7.14,2.48A1.55,1.55,0,0,0,53.68,150.61Z"/><path class="cls-131" d="M47.21,136.78l1.22-3a1.61,1.61,0,0,0-3-1.18l-1.23,3C43.37,137.86,46.49,138.61,47.21,136.78Z"/><path class="cls-124" d="M56.45,149.12a1.45,1.45,0,0,0,1.26-.71l1.76-3a7.45,7.45,0,0,0,.9-5.3A1.46,1.46,0,0,0,58.65,139a1.47,1.47,0,0,0-1.14,1.73A4.51,4.51,0,0,1,57,144l-1.76,3a1.47,1.47,0,0,0,.51,2A1.52,1.52,0,0,0,56.45,149.12Z"/><path class="cls-54" d="M52.59,148.66a.3.3,0,0,0,.16,0l4.07-2.4a.33.33,0,0,0,.11-.43.31.31,0,0,0-.43-.11l-4.07,2.41a.3.3,0,0,0-.11.42A.32.32,0,0,0,52.59,148.66Z"/><path class="cls-124" d="M53.79,148.71a1.44,1.44,0,1,0,1.43-1.43A1.43,1.43,0,0,0,53.79,148.71Z"/><path class="cls-124" d="M51.71,148.19l1.71-1a.42.42,0,0,0,.16-.57l-.06-.11a.42.42,0,0,0-.58-.15l-1.7,1a.42.42,0,0,0-.16.58l.06.1A.42.42,0,0,0,51.71,148.19Z"/><rect class="cls-124" x="54.18" y="145.02" width="2.82" height="0.96" rx="0.47" transform="translate(-44.16 25.87) rotate(-18.91)"/><path class="cls-54" d="M54.37,123l-2.5-.53,0,2.66H51l-.61,1.75a.71.71,0,0,1-1,.42h0v-5.45a2.1,2.1,0,0,1,2.09-2.09h7.07l-1.23,1.95A2.88,2.88,0,0,1,54.37,123Z"/><path class="cls-124" d="M50.37,124.44a1,1,0,1,0,1.23-.83A1.05,1.05,0,0,0,50.37,124.44Z"/><path class="cls-124" d="M108.51,131.54l-3.08,2.77a.61.61,0,0,1-1-.18l-2.43-4.9c-.54-.83-.66-1.31-1.37-1.4A1.3,1.3,0,0,0,99.2,129l4.41,8.29a.9.9,0,0,0,1.39.27l4.92-4.17Z"/><path class="cls-132" d="M108.21,132.26a1.47,1.47,0,0,0,1.73,1.14,1.46,1.46,0,1,0-1.73-1.14Z"/><path class="cls-54" d="M113.08,125.28l-2.15,1.88a.92.92,0,0,0-.28.42l-1.87,5.58a.28.28,0,0,0,.45.31l2.14-1.89a.89.89,0,0,0,.28-.41l1.88-5.59A.28.28,0,0,0,113.08,125.28Z"/><path class="cls-124" d="M110.25,132.9h0a.52.52,0,0,0,.71-.22l1.27-2.39a.54.54,0,0,0-.21-.72h0a.54.54,0,0,0-.72.22l-1.27,2.4A.52.52,0,0,0,110.25,132.9Z"/><path class="cls-124" d="M109.67,133.4h0a.52.52,0,0,0,.65-.36l.75-2.61a.52.52,0,0,0-.37-.65h0a.52.52,0,0,0-.65.36l-.74,2.61A.52.52,0,0,0,109.67,133.4Z"/><path class="cls-124" d="M108.5,132.75h0a.53.53,0,0,0,.58-.47l.27-2.7a.53.53,0,0,0-.47-.58h0a.53.53,0,0,0-.58.47l-.27,2.7A.53.53,0,0,0,108.5,132.75Z"/><path class="cls-119" d="M102.27,134a1.61,1.61,0,0,0,1.36-2.49l-2.45-3.83a1.62,1.62,0,1,0-2.73,1.75l2.45,3.83A1.63,1.63,0,0,0,102.27,134Z"/><path class="cls-59" d="M97.18,173v1.58a1.25,1.25,0,0,0,.59,1.06l4.79,3a1.53,1.53,0,0,0,1.62,0l1.47-.83a.92.92,0,0,0,.47-.8V176a.63.63,0,0,1-.5-.11L102.43,174v-1Z"/><path class="cls-119" d="M97.18,172.08v1.58a1.25,1.25,0,0,0,.59,1.06l4.79,3a1.55,1.55,0,0,0,1.62,0l1.44-.88a1,1,0,0,0,0-1.78l-3.19-1.93v-1Z"/><path class="cls-59" d="M98,173.16A1.13,1.13,0,0,1,98,171a4.13,4.13,0,0,1,3.72,0,1.14,1.14,0,0,1,0,2.15A4.13,4.13,0,0,1,98,173.16Z"/><path class="cls-54" d="M98.58,172.79a.75.75,0,0,1,0-1.42,2.78,2.78,0,0,1,2.45,0,.75.75,0,0,1,0,1.42A2.71,2.71,0,0,1,98.58,172.79Z"/><path class="cls-59" d="M91.42,175.88v1.57a1.23,1.23,0,0,0,.59,1.06l4.79,3a1.55,1.55,0,0,0,1.62,0l1.47-.83a.93.93,0,0,0,.47-.81v-.9a.6.6,0,0,1-.49-.12l-3.19-1.93v-1Z"/><path class="cls-119" d="M91.42,175v1.57a1.25,1.25,0,0,0,.59,1.07l4.79,3a1.57,1.57,0,0,0,1.62,0l1.44-.87a1,1,0,0,0,0-1.78L96.67,176v-1Z"/><ellipse class="cls-59" cx="94.04" cy="175" rx="2.63" ry="1.52"/><path class="cls-54" d="M92.82,175.71a.75.75,0,0,1,0-1.42,2.71,2.71,0,0,1,2.45,0,.75.75,0,0,1,0,1.42A2.71,2.71,0,0,1,92.82,175.71Z"/><path class="cls-133" d="M99.85,172.79c.9,0,1.65.18,1.73-.73l.88-14.15-.88-15.22a1.73,1.73,0,0,0-1.83-1.63c-1,.05-5.06,1.66-5,2.62l3.8,14.19-.43,13.91c-.08.95.63.93,1.59,1Z"/><path class="cls-134" d="M94.18,175.46c1,0,1.73.09,1.73-.87L98.05,152l3-5.92c0-1-5.9-2.35-6.86-2.35a1.73,1.73,0,0,0-1.73,1.73v29.13C92.45,175.55,93.22,175.46,94.18,175.46Z"/><path class="cls-119" d="M97.88,125.65l-1,.6c-3.48,2-5.26,4.63-5,8.64.28,4.58-.09,13.87-.09,13.87a24.24,24.24,0,0,0,10.6-2.63c-.93-5.9,0-9.79,0-13.75S100.39,124.2,97.88,125.65Z"/><path class="cls-124" d="M97.4,129.13h0a1.21,1.21,0,0,1-1.21-1.21v-2.75h2.42v2.75A1.21,1.21,0,0,1,97.4,129.13Z"/><path class="cls-124" d="M96.24,127.13h0A1.85,1.85,0,0,1,94.78,125l1.1-5.52,6.66,1.33-.5,2.49A4.93,4.93,0,0,1,96.24,127.13Z"/><path class="cls-124" d="M95.85,151.26a1.24,1.24,0,0,0,.93.07,1.22,1.22,0,0,0,.77-1.54l-2.46-7.44.54-10.2A1.22,1.22,0,1,0,93.2,132l-.56,10.66,2.6,7.87A1.23,1.23,0,0,0,95.85,151.26Z"/><path class="cls-119" d="M93.22,139.08a1.67,1.67,0,0,0,.59.16,1.62,1.62,0,0,0,1.75-1.48l.47-5.54A1.62,1.62,0,0,0,92.8,132l-.47,5.54A1.63,1.63,0,0,0,93.22,139.08Z"/><path class="cls-59" d="M97.78,121.94a2,2,0,0,0-1.07,1.28c-.1.39,0,.55.22.89a.87.87,0,0,1,.12.63.09.09,0,0,1,0,.06.11.11,0,0,1-.07,0c-.22,0-.4-.16-.54-.33s-.49-.52-.8-.23-.11.65,0,1,.34,1.23-.08,1.53-1.09-.07-1.39-.26l-.14-.1c-.9-.71-.77-2.11-.91-3.13a8.27,8.27,0,0,1,.21-2.33,3.53,3.53,0,0,1,.67-2.13,1.56,1.56,0,0,1,2.09-.25,2,2,0,0,1,1.35-.68A6.23,6.23,0,0,1,99,118a5.41,5.41,0,0,1,2.48,1,7.5,7.5,0,0,1,1,.94,1.17,1.17,0,0,1,.23,1.16,6.51,6.51,0,0,1-.55,1.38.35.35,0,0,1-.09-.17,2.61,2.61,0,0,0-.47-1.17c-.31-.32-.59-.26-1-.11a1.38,1.38,0,0,0-.34.18c-.26.21-.19.55-.49.75a1.21,1.21,0,0,1-.84.09,4.22,4.22,0,0,0-.86-.11A.89.89,0,0,0,97.78,121.94Z"/><path class="cls-124" d="M98.05,152h0a.29.29,0,0,0,.18-.38l-.8-2.27a.29.29,0,0,0-.38-.18h0a.3.3,0,0,0-.19.38l.8,2.27A.3.3,0,0,0,98.05,152Z"/><path class="cls-124" d="M97.43,152.67h0a.29.29,0,0,0,.18-.38l-.8-2.27a.29.29,0,0,0-.38-.18h0a.3.3,0,0,0-.19.38l.81,2.27A.29.29,0,0,0,97.43,152.67Z"/><path class="cls-124" d="M96.63,152.82h0a.3.3,0,0,0,.18-.39l-.8-2.27a.3.3,0,0,0-.38-.18h0a.3.3,0,0,0-.19.38l.81,2.27A.3.3,0,0,0,96.63,152.82Z"/><path class="cls-124" d="M95.31,152.58h0a.3.3,0,0,0,.34-.26l.31-2.39a.31.31,0,0,0-.26-.34h0a.32.32,0,0,0-.34.26l-.31,2.39A.3.3,0,0,0,95.31,152.58Z"/><path class="cls-124" d="M98.29,149.78h0a.29.29,0,0,0-.05-.42l-1.9-1.48a.3.3,0,0,0-.42.05h0a.3.3,0,0,0,0,.42l1.9,1.48A.3.3,0,0,0,98.29,149.78Z"/><g class="cls-2"><path class="cls-3" d="M30.37,162.47c3.68-2.11,3.68-5.57,0-7.68a14.83,14.83,0,0,0-13.36,0c-3.66,2.11-3.66,5.57,0,7.68A14.83,14.83,0,0,0,30.37,162.47Z"/><path class="cls-4" d="M30.26,162.41c3.63-2.08,3.63-5.48,0-7.56a14.61,14.61,0,0,0-13.14,0c-3.6,2.08-3.6,5.48,0,7.56A14.61,14.61,0,0,0,30.26,162.41Z"/><path class="cls-5" d="M30.16,162.35c3.56-2,3.56-5.4,0-7.44a14.36,14.36,0,0,0-12.93,0c-3.55,2-3.55,5.39,0,7.44A14.36,14.36,0,0,0,30.16,162.35Z"/><path class="cls-6" d="M30.05,162.29c3.51-2,3.51-5.31,0-7.32a14.17,14.17,0,0,0-12.72,0c-3.49,2-3.49,5.31,0,7.32A14.17,14.17,0,0,0,30.05,162.29Z"/><path class="cls-7" d="M29.94,162.23c3.45-2,3.45-5.22,0-7.2a13.89,13.89,0,0,0-12.5,0c-3.43,2-3.43,5.22,0,7.2A13.89,13.89,0,0,0,29.94,162.23Z"/><path class="cls-8" d="M29.84,162.17c3.39-1.95,3.39-5.13,0-7.08a13.66,13.66,0,0,0-12.3,0c-3.37,1.95-3.37,5.13,0,7.08A13.72,13.72,0,0,0,29.84,162.17Z"/><path class="cls-9" d="M29.73,162.11c3.33-1.92,3.33-5.05,0-7a13.45,13.45,0,0,0-12.08,0c-3.31,1.91-3.31,5,0,7A13.45,13.45,0,0,0,29.73,162.11Z"/><path class="cls-10" d="M29.63,162.05c3.27-1.88,3.27-5,0-6.84a13.2,13.2,0,0,0-11.87,0c-3.26,1.88-3.26,5,0,6.84A13.2,13.2,0,0,0,29.63,162.05Z"/><path class="cls-11" d="M29.52,162c3.22-1.85,3.22-4.87,0-6.72a13,13,0,0,0-11.66,0c-3.19,1.85-3.19,4.87,0,6.72A13,13,0,0,0,29.52,162Z"/><path class="cls-12" d="M29.41,161.92c3.16-1.81,3.16-4.77,0-6.59a12.73,12.73,0,0,0-11.44,0c-3.14,1.82-3.14,4.78,0,6.59A12.67,12.67,0,0,0,29.41,161.92Z"/><path class="cls-13" d="M29.31,161.86c3.1-1.78,3.1-4.69,0-6.46a12.5,12.5,0,0,0-11.24,0c-3.08,1.77-3.08,4.68,0,6.46A12.5,12.5,0,0,0,29.31,161.86Z"/><path class="cls-14" d="M29.2,161.8c3-1.74,3-4.6,0-6.34a12.22,12.22,0,0,0-11,0c-3,1.74-3,4.6,0,6.34A12.22,12.22,0,0,0,29.2,161.8Z"/><path class="cls-15" d="M29.1,161.74c3-1.71,3-4.51,0-6.22a12,12,0,0,0-10.81,0c-3,1.71-3,4.51,0,6.22A12,12,0,0,0,29.1,161.74Z"/><path class="cls-16" d="M29,161.68c2.92-1.68,2.92-4.42,0-6.1a11.78,11.78,0,0,0-10.6,0c-2.9,1.68-2.9,4.42,0,6.1A11.78,11.78,0,0,0,29,161.68Z"/><path class="cls-17" d="M28.89,161.62c2.86-1.64,2.86-4.34,0-6a11.52,11.52,0,0,0-10.39,0c-2.85,1.64-2.85,4.34,0,6A11.59,11.59,0,0,0,28.89,161.62Z"/><path class="cls-18" d="M28.78,161.56c2.81-1.61,2.81-4.25,0-5.86a11.33,11.33,0,0,0-10.18,0c-2.79,1.61-2.79,4.25,0,5.86A11.33,11.33,0,0,0,28.78,161.56Z"/><path class="cls-19" d="M28.67,161.5c2.75-1.58,2.75-4.16,0-5.74a11.06,11.06,0,0,0-10,0c-2.73,1.58-2.73,4.16,0,5.74A11.06,11.06,0,0,0,28.67,161.5Z"/><path class="cls-20" d="M28.57,161.44c2.69-1.55,2.69-4.07,0-5.62a10.87,10.87,0,0,0-9.75,0c-2.68,1.55-2.68,4.07,0,5.62A10.87,10.87,0,0,0,28.57,161.44Z"/><path class="cls-21" d="M28.46,161.38c2.63-1.51,2.63-4,0-5.5a10.61,10.61,0,0,0-9.54,0c-2.61,1.51-2.61,4,0,5.5A10.61,10.61,0,0,0,28.46,161.38Z"/><path class="cls-22" d="M28.36,161.31c2.57-1.47,2.57-3.89,0-5.37a10.42,10.42,0,0,0-9.33,0c-2.56,1.48-2.56,3.9,0,5.37A10.36,10.36,0,0,0,28.36,161.31Z"/><path class="cls-23" d="M28.25,161.25c2.52-1.44,2.52-3.8,0-5.24a10.1,10.1,0,0,0-9.12,0c-2.5,1.44-2.5,3.8,0,5.24A10.1,10.1,0,0,0,28.25,161.25Z"/><path class="cls-24" d="M28.15,161.19c2.45-1.41,2.45-3.71,0-5.12a9.91,9.91,0,0,0-8.91,0c-2.44,1.41-2.44,3.71,0,5.12A9.91,9.91,0,0,0,28.15,161.19Z"/><path class="cls-25" d="M28,161.13c2.4-1.37,2.4-3.63,0-5a9.64,9.64,0,0,0-8.69,0c-2.39,1.37-2.39,3.63,0,5A9.64,9.64,0,0,0,28,161.13Z"/><path class="cls-26" d="M27.93,161.07c2.34-1.34,2.34-3.54,0-4.88a9.45,9.45,0,0,0-8.48,0c-2.32,1.34-2.32,3.54,0,4.88A9.45,9.45,0,0,0,27.93,161.07Z"/><path class="cls-27" d="M27.83,161c2.28-1.31,2.28-3.45,0-4.76a9.19,9.19,0,0,0-8.27,0c-2.27,1.31-2.27,3.45,0,4.76A9.19,9.19,0,0,0,27.83,161Z"/><path class="cls-28" d="M27.72,161c2.22-1.28,2.22-3.36,0-4.64a8.94,8.94,0,0,0-8.06,0c-2.2,1.28-2.2,3.36,0,4.64A9,9,0,0,0,27.72,161Z"/><path class="cls-29" d="M27.62,160.89c2.16-1.24,2.16-3.28,0-4.52a8.75,8.75,0,0,0-7.85,0c-2.15,1.24-2.15,3.28,0,4.52A8.75,8.75,0,0,0,27.62,160.89Z"/><path class="cls-30" d="M27.51,160.83c2.11-1.21,2.11-3.19,0-4.4a8.47,8.47,0,0,0-7.63,0c-2.1,1.21-2.1,3.19,0,4.4A8.47,8.47,0,0,0,27.51,160.83Z"/><path class="cls-31" d="M27.4,160.77c2.05-1.18,2.05-3.1,0-4.28a8.28,8.28,0,0,0-7.42,0c-2,1.18-2,3.1,0,4.28A8.28,8.28,0,0,0,27.4,160.77Z"/><path class="cls-32" d="M27.3,160.71c2-1.15,2-3,0-4.16a8,8,0,0,0-7.21,0c-2,1.15-2,3,0,4.16A8,8,0,0,0,27.3,160.71Z"/><path class="cls-33" d="M27.19,160.64c1.93-1.1,1.93-2.92,0-4a7.75,7.75,0,0,0-7,0c-1.92,1.1-1.92,2.92,0,4A7.75,7.75,0,0,0,27.19,160.64Z"/><path class="cls-34" d="M27.09,160.58c1.87-1.07,1.87-2.83,0-3.9a7.52,7.52,0,0,0-6.79,0c-1.86,1.07-1.86,2.83,0,3.9A7.52,7.52,0,0,0,27.09,160.58Z"/><path class="cls-35" d="M27,160.52c1.81-1,1.81-2.74,0-3.78a7.31,7.31,0,0,0-6.57,0c-1.81,1-1.81,2.74,0,3.78A7.31,7.31,0,0,0,27,160.52Z"/><path class="cls-36" d="M26.88,160.46c1.75-1,1.75-2.65,0-3.66a7.07,7.07,0,0,0-6.37,0c-1.74,1-1.74,2.65,0,3.66A7.07,7.07,0,0,0,26.88,160.46Z"/><path class="cls-37" d="M26.77,160.4c1.7-1,1.7-2.57,0-3.54a6.86,6.86,0,0,0-6.15,0c-1.69,1-1.69,2.57,0,3.54A6.86,6.86,0,0,0,26.77,160.4Z"/><path class="cls-38" d="M26.66,160.34c1.64-.94,1.64-2.48,0-3.42a6.59,6.59,0,0,0-5.93,0c-1.63.94-1.63,2.48,0,3.42A6.59,6.59,0,0,0,26.66,160.34Z"/><path class="cls-39" d="M26.56,160.28c1.58-.91,1.58-2.39,0-3.3a6.35,6.35,0,0,0-5.73,0c-1.57.91-1.57,2.39,0,3.3A6.42,6.42,0,0,0,26.56,160.28Z"/><path class="cls-40" d="M26.45,160.22c1.52-.88,1.52-2.3,0-3.18a6.14,6.14,0,0,0-5.51,0c-1.51.88-1.51,2.3,0,3.18A6.14,6.14,0,0,0,26.45,160.22Z"/><path class="cls-41" d="M26.35,160.16c1.46-.84,1.46-2.22,0-3.06a5.91,5.91,0,0,0-5.31,0c-1.45.84-1.45,2.22,0,3.06A5.91,5.91,0,0,0,26.35,160.16Z"/><path class="cls-42" d="M26.24,160.1c1.4-.81,1.4-2.13,0-2.94a5.7,5.7,0,0,0-5.09,0c-1.4.81-1.4,2.13,0,2.94A5.7,5.7,0,0,0,26.24,160.1Z"/><path class="cls-43" d="M26.14,160c1.34-.77,1.34-2,0-2.8a5.38,5.38,0,0,0-4.88,0c-1.34.77-1.34,2,0,2.8A5.38,5.38,0,0,0,26.14,160Z"/><path class="cls-44" d="M26,160c1.29-.74,1.29-1.95,0-2.68a5.19,5.19,0,0,0-4.67,0c-1.28.73-1.28,1.94,0,2.68A5.19,5.19,0,0,0,26,160Z"/><path class="cls-45" d="M25.92,159.91a1.35,1.35,0,0,0,0-2.56,4.91,4.91,0,0,0-4.45,0,1.35,1.35,0,0,0,0,2.56A4.91,4.91,0,0,0,25.92,159.91Z"/><path class="cls-46" d="M25.82,159.85a1.29,1.29,0,0,0,0-2.44,4.74,4.74,0,0,0-4.25,0,1.29,1.29,0,0,0,0,2.44A4.74,4.74,0,0,0,25.82,159.85Z"/><path class="cls-47" d="M25.71,159.79a1.22,1.22,0,0,0,0-2.32,4.47,4.47,0,0,0-4,0,1.22,1.22,0,0,0,0,2.32A4.47,4.47,0,0,0,25.71,159.79Z"/><path class="cls-48" d="M25.61,159.73a1.16,1.16,0,0,0,0-2.2,4.28,4.28,0,0,0-3.82,0,1.16,1.16,0,0,0,0,2.2A4.28,4.28,0,0,0,25.61,159.73Z"/><path class="cls-49" d="M25.5,159.67a1.1,1.1,0,0,0,0-2.08,4,4,0,0,0-3.61,0,1.1,1.1,0,0,0,0,2.08A4,4,0,0,0,25.5,159.67Z"/><path class="cls-50" d="M25.39,159.61a1,1,0,0,0,0-2,3.75,3.75,0,0,0-3.39,0,1,1,0,0,0,0,2A3.75,3.75,0,0,0,25.39,159.61Z"/><path class="cls-51" d="M25.29,159.55a1,1,0,0,0,0-1.84,3.58,3.58,0,0,0-3.19,0,1,1,0,0,0,0,1.84A3.58,3.58,0,0,0,25.29,159.55Z"/><path class="cls-52" d="M25.18,159.49a.91.91,0,0,0,0-1.72,3.3,3.3,0,0,0-3,0,.91.91,0,0,0,0,1.72A3.3,3.3,0,0,0,25.18,159.49Z"/><path class="cls-53" d="M25.08,159.42a.84.84,0,0,0,0-1.59,3.11,3.11,0,0,0-2.76,0,.84.84,0,0,0,0,1.59A3.05,3.05,0,0,0,25.08,159.42Z"/><path class="cls-54" d="M25,159.36a.77.77,0,0,0,0-1.46,2.8,2.8,0,0,0-2.55,0,.77.77,0,0,0,0,1.46A2.8,2.8,0,0,0,25,159.36Z"/></g><path class="cls-55" d="M28.11,159.74c2.34-1.35,2.34-7.62,0-9a9.47,9.47,0,0,0-8.52,0c-2.33,1.35-2.33,7.62,0,9a8.81,8.81,0,0,0,4.2,1.31A9,9,0,0,0,28.11,159.74Z"/><path class="cls-135" d="M30.09,152.22v-1.06h-.24a3.84,3.84,0,0,0-1.58-1.54,9.83,9.83,0,0,0-8.84,0,3.75,3.75,0,0,0-1.57,1.54h-.22v.7a2,2,0,0,0,0,.6v0h0a3.28,3.28,0,0,0,1.79,2.22,9.83,9.83,0,0,0,8.84,0,3.32,3.32,0,0,0,1.8-2.22h0Z"/><path class="cls-57" d="M28.27,153.81c2.43-1.4,2.43-3.69,0-5.09a9.83,9.83,0,0,0-8.84,0c-2.42,1.4-2.42,3.69,0,5.09A9.83,9.83,0,0,0,28.27,153.81Z"/><path class="cls-58" d="M27.91,153.6c2.23-1.28,2.23-3.39,0-4.67a9,9,0,0,0-8.12,0c-2.23,1.28-2.23,3.39,0,4.67A9,9,0,0,0,27.91,153.6Z"/><path class="cls-59" d="M27.17,153.78C29,152.72,29,151,27.17,150a7.39,7.39,0,0,0-6.64,0c-1.82,1.05-1.82,2.77,0,3.83A7.39,7.39,0,0,0,27.17,153.78Z"/><path class="cls-54" d="M23.85,152.8a.49.49,0,0,1-.49-.49V135.09a.49.49,0,0,1,1,0v17.22A.49.49,0,0,1,23.85,152.8Z"/><path class="cls-136" d="M28.5,135.46a5.17,5.17,0,1,0-9.29,0,6.76,6.76,0,1,0,9.29,0Z"/><path class="cls-61" d="M17.39,140.36a6.73,6.73,0,0,1,2.12-4.9A5.14,5.14,0,0,1,24,128.05h-.15a5.16,5.16,0,0,0-4.64,7.42,6.75,6.75,0,0,0,4.64,11.65H24A6.76,6.76,0,0,1,17.39,140.36Z"/><path class="cls-62" d="M28.5,135.46A5.16,5.16,0,0,0,23.85,128a4.52,4.52,0,0,0-.74.06,5.16,5.16,0,0,1,3.9,7.36,6.75,6.75,0,0,1-3.9,11.61,6,6,0,0,0,.74,0,6.75,6.75,0,0,0,4.65-11.65Z"/></g></g></svg>